%TF.GenerationSoftware,KiCad,Pcbnew,10.0.3*%
%TF.CreationDate,2026-05-31T14:48:56+03:00*%
%TF.ProjectId,maratui,6d617261-7475-4692-9e6b-696361645f70,rev?*%
%TF.SameCoordinates,Original*%
%TF.FileFunction,Copper,L1,Top*%
%TF.FilePolarity,Positive*%
%FSLAX46Y46*%
G04 Gerber Fmt 4.6, Leading zero omitted, Abs format (unit mm)*
G04 Created by KiCad (PCBNEW 10.0.3) date 2026-05-31 14:48:56*
%MOMM*%
%LPD*%
G01*
G04 APERTURE LIST*
%TA.AperFunction,ComponentPad*%
%ADD10R,1.700000X1.700000*%
%TD*%
%TA.AperFunction,ComponentPad*%
%ADD11C,1.700000*%
%TD*%
%TA.AperFunction,ComponentPad*%
%ADD12R,2.600000X2.600000*%
%TD*%
%TA.AperFunction,ComponentPad*%
%ADD13C,2.600000*%
%TD*%
%TA.AperFunction,ComponentPad*%
%ADD14O,3.000000X1.500000*%
%TD*%
%TA.AperFunction,ComponentPad*%
%ADD15O,1.524000X1.900000*%
%TD*%
%TA.AperFunction,ComponentPad*%
%ADD16C,2.000000*%
%TD*%
%TA.AperFunction,Conductor*%
%ADD17C,0.200000*%
%TD*%
G04 APERTURE END LIST*
D10*
%TO.P,J2,1,Pin_1_1*%
%TO.N,GND*%
X180500000Y-52960000D03*
D11*
%TO.P,J2,2,Pin_2_2*%
%TO.N,Net-(J2-Pin_2)*%
X180500000Y-55500000D03*
%TO.P,J2,3,Pin_3_3*%
%TO.N,Net-(J2-Pin_3)*%
X180500000Y-58040000D03*
%TD*%
D12*
%TO.P,J1,1*%
%TO.N,+5V*%
X182300000Y-92000000D03*
D13*
%TO.P,J1,2*%
%TO.N,GND*%
X182300000Y-98000000D03*
%TO.P,J1,3*%
%TO.N,N/C*%
X187000000Y-95000000D03*
%TD*%
D14*
%TO.P,U1,1,VCC_1*%
%TO.N,+3.3V*%
X89360000Y-59490000D03*
%TO.P,U1,2,GND_2*%
%TO.N,GND*%
X89360000Y-62030000D03*
%TO.P,U1,3,CS_3*%
%TO.N,Net-(U1-CS)*%
X89360000Y-64570000D03*
%TO.P,U1,4,RST_4*%
%TO.N,/RESET*%
X89360000Y-67110000D03*
%TO.P,U1,5,DC_5*%
%TO.N,Net-(U1-DC)*%
X89360000Y-69650000D03*
%TO.P,U1,6,MOSI_6*%
%TO.N,Net-(U1-MOSI)*%
X89360000Y-72190000D03*
%TO.P,U1,7,SCK_7*%
%TO.N,Net-(U1-SCK)*%
X89360000Y-74730000D03*
%TO.P,U1,8,LED_8*%
%TO.N,/LED*%
X89360000Y-77270000D03*
%TO.P,U1,9,MISO_9*%
%TO.N,unconnected-(U1-MISO-Pad9)*%
X89360000Y-79810000D03*
%TO.P,U1,10*%
%TO.N,unconnected-(U1-Pad10)*%
X89360000Y-82350000D03*
%TO.P,U1,11*%
%TO.N,unconnected-(U1-Pad11)*%
X89360000Y-84890000D03*
%TO.P,U1,12*%
%TO.N,unconnected-(U1-Pad12)*%
X89360000Y-87430000D03*
%TO.P,U1,13*%
%TO.N,unconnected-(U1-Pad13)*%
X89360000Y-89970000D03*
%TO.P,U1,14*%
%TO.N,unconnected-(U1-Pad14)*%
X89360000Y-92510000D03*
%TD*%
D15*
%TO.P,U2,1,VIN_1*%
%TO.N,+5V*%
X147708098Y-90292460D03*
%TO.P,U2,2,GND_2*%
%TO.N,unconnected-(U2-GND-Pad2)*%
X145168098Y-90292460D03*
%TO.P,U2,3,GPIO13_3*%
%TO.N,unconnected-(U2-GPIO13-Pad3)*%
X142628098Y-90292460D03*
%TO.P,U2,4,GPIO12_4*%
%TO.N,/BUTTON*%
X140088098Y-90292460D03*
%TO.P,U2,5,GPIO14_5*%
%TO.N,/LED*%
X137548098Y-90292460D03*
%TO.P,U2,6,GPIO27_6*%
%TO.N,unconnected-(U2-GPIO27-Pad6)*%
X135008098Y-90292460D03*
%TO.P,U2,7,GPIO26_7*%
%TO.N,unconnected-(U2-GPIO26-Pad7)*%
X132468098Y-90292460D03*
%TO.P,U2,8,GPIO25_8*%
%TO.N,unconnected-(U2-GPIO25-Pad8)*%
X129928098Y-90292460D03*
%TO.P,U2,9,GPIO33_9*%
%TO.N,unconnected-(U2-GPIO33-Pad9)*%
X127388098Y-90292460D03*
%TO.P,U2,10,GPIO32_10*%
%TO.N,unconnected-(U2-GPIO32-Pad10)*%
X124848098Y-90292460D03*
%TO.P,U2,11,GPIO35_11*%
%TO.N,unconnected-(U2-GPIO35-Pad11)*%
X122308098Y-90292460D03*
%TO.P,U2,12,GPIO34_12*%
%TO.N,unconnected-(U2-GPIO34-Pad12)*%
X119768098Y-90292460D03*
%TO.P,U2,13,GPIO39_13*%
%TO.N,unconnected-(U2-GPIO39-Pad13)*%
X117228098Y-90292460D03*
%TO.P,U2,14,GPIO36_14*%
%TO.N,unconnected-(U2-GPIO36-Pad14)*%
X114688098Y-90292460D03*
%TO.P,U2,15,EN_15*%
%TO.N,unconnected-(U2-EN-Pad15)*%
X112148098Y-90292460D03*
%TO.P,U2,16,3.3v_16*%
%TO.N,+3.3V*%
X147708098Y-64892460D03*
%TO.P,U2,17,GND_17*%
%TO.N,GND*%
X145168098Y-64892460D03*
%TO.P,U2,18,GPIO15_18*%
%TO.N,unconnected-(U2-GPIO15-Pad18)*%
X142628098Y-64892460D03*
%TO.P,U2,19,GPIO2_19*%
%TO.N,unconnected-(U2-GPIO2-Pad19)*%
X140088098Y-64892460D03*
%TO.P,U2,20,GPIO4_20*%
%TO.N,unconnected-(U2-GPIO4-Pad20)*%
X137548098Y-64892460D03*
%TO.P,U2,21,GPIO16_21*%
%TO.N,Net-(J2-Pin_3)*%
X135008098Y-64892460D03*
%TO.P,U2,22,GPIO17_22*%
%TO.N,Net-(J2-Pin_2)*%
X132468098Y-64892460D03*
%TO.P,U2,23,GPIO5_23*%
%TO.N,unconnected-(U2-GPIO5-Pad23)*%
X129928098Y-64892460D03*
%TO.P,U2,24,GPIO18_24*%
%TO.N,Net-(U1-SCK)*%
X127388098Y-64892460D03*
%TO.P,U2,25,GPIO19_25*%
%TO.N,Net-(U1-CS)*%
X124848098Y-64892460D03*
%TO.P,U2,26,GPIO21_26*%
%TO.N,Net-(U1-MOSI)*%
X122308098Y-64892460D03*
%TO.P,U2,27,GPIO3_27*%
%TO.N,unconnected-(U2-GPIO3-Pad27)*%
X119768098Y-64892460D03*
%TO.P,U2,28,GPIO1_28*%
%TO.N,unconnected-(U2-GPIO1-Pad28)*%
X117228098Y-64892460D03*
%TO.P,U2,29,GPIO22_29*%
%TO.N,/RESET*%
X114688098Y-64892460D03*
%TO.P,U2,30,GPIO23_30*%
%TO.N,Net-(U1-DC)*%
X112148098Y-64892460D03*
%TD*%
D16*
%TO.P,SW1,1,1_1*%
%TO.N,/BUTTON*%
X185000000Y-69500000D03*
X185000000Y-76000000D03*
%TO.P,SW1,2,2_2*%
%TO.N,GND*%
X180500000Y-69500000D03*
X180500000Y-76000000D03*
%TD*%
%TO.N,GND*%
D17*
X180500000Y-69500000D02*
X180500000Y-76000000D01*
%TO.N,Net-(J2-Pin_2)*%
X172500000Y-69000000D02*
X136575638Y-69000000D01*
X180500000Y-55500000D02*
X182000000Y-57000000D01*
X182000000Y-59500000D02*
X172500000Y-69000000D01*
X182000000Y-57000000D02*
X182000000Y-59500000D01*
X136575638Y-69000000D02*
X132468098Y-64892460D01*
%TO.N,Net-(J2-Pin_3)*%
X135008098Y-66508098D02*
X135008098Y-64892460D01*
X170040000Y-68500000D02*
X137000000Y-68500000D01*
X180500000Y-58040000D02*
X170040000Y-68500000D01*
X137000000Y-68500000D02*
X135008098Y-66508098D01*
%TO.N,+5V*%
X182300000Y-92000000D02*
X180300000Y-94000000D01*
X180300000Y-94000000D02*
X151415638Y-94000000D01*
X151415638Y-94000000D02*
X147708098Y-90292460D01*
%TO.N,+3.3V*%
X142305638Y-59490000D02*
X147708098Y-64892460D01*
X89360000Y-59490000D02*
X142305638Y-59490000D01*
%TO.N,Net-(U1-CS)*%
X90687540Y-63242460D02*
X123198098Y-63242460D01*
X123198098Y-63242460D02*
X124848098Y-64892460D01*
X89360000Y-64570000D02*
X90687540Y-63242460D01*
%TO.N,/RESET*%
X92827540Y-63642460D02*
X113438098Y-63642460D01*
X89360000Y-67110000D02*
X92827540Y-63642460D01*
X113438098Y-63642460D02*
X114688098Y-64892460D01*
%TO.N,Net-(U1-DC)*%
X107390558Y-69650000D02*
X112148098Y-64892460D01*
X89360000Y-69650000D02*
X107390558Y-69650000D01*
%TO.N,Net-(U1-MOSI)*%
X119240453Y-72190000D02*
X122308098Y-69122355D01*
X89360000Y-72190000D02*
X119240453Y-72190000D01*
X122308098Y-69122355D02*
X122308098Y-64892460D01*
%TO.N,Net-(U1-SCK)*%
X89360000Y-74730000D02*
X117550558Y-74730000D01*
X117550558Y-74730000D02*
X127388098Y-64892460D01*
%TO.N,/LED*%
X124525638Y-77270000D02*
X137548098Y-90292460D01*
X89360000Y-77270000D02*
X124525638Y-77270000D01*
%TO.N,/BUTTON*%
X151605533Y-92500000D02*
X148147993Y-89042460D01*
X148147993Y-89042460D02*
X141338098Y-89042460D01*
X185000000Y-76000000D02*
X168500000Y-92500000D01*
X168500000Y-92500000D02*
X151605533Y-92500000D01*
X185000000Y-69500000D02*
X185000000Y-76000000D01*
X141338098Y-89042460D02*
X140088098Y-90292460D01*
%TD*%
M02*
