M48
; DRILL file KiCad 10.0.3 date 2026-05-31T14:22:31
; FORMAT={-:-/ absolute / metric / decimal}
; #@! TF.CreationDate,2026-05-31T14:22:31+03:00
; #@! TF.GenerationSoftware,Kicad,Pcbnew,10.0.3
; #@! TF.FileFunction,Plated,1,2,PTH
FMAT,2
METRIC
; #@! TA.AperFunction,Plated,PTH,ComponentDrill
T1C0.800
; #@! TA.AperFunction,Plated,PTH,ComponentDrill
T2C1.000
; #@! TA.AperFunction,Plated,PTH,ComponentDrill
T3C1.100
; #@! TA.AperFunction,Plated,PTH,ComponentDrill
T4C1.600
%
G90
G05
T1
X89.36Y-59.49
X89.36Y-62.03
X89.36Y-64.57
X89.36Y-67.11
X89.36Y-69.65
X89.36Y-72.19
X89.36Y-74.73
X89.36Y-77.27
X89.36Y-79.81
X89.36Y-82.35
X89.36Y-84.89
X89.36Y-87.43
X89.36Y-89.97
X89.36Y-92.51
X112.148Y-64.892
X112.148Y-90.292
X114.688Y-64.892
X114.688Y-90.292
X117.228Y-64.892
X117.228Y-90.292
X119.768Y-64.892
X119.768Y-90.292
X122.308Y-64.892
X122.308Y-90.292
X124.848Y-64.892
X124.848Y-90.292
X127.388Y-64.892
X127.388Y-90.292
X129.928Y-64.892
X129.928Y-90.292
X132.468Y-64.892
X132.468Y-90.292
X135.008Y-64.892
X135.008Y-90.292
X137.548Y-64.892
X137.548Y-90.292
X140.088Y-64.892
X140.088Y-90.292
X142.628Y-64.892
X142.628Y-90.292
X145.168Y-64.892
X145.168Y-90.292
X147.708Y-64.892
X147.708Y-90.292
T2
X180.5Y-52.96
X180.5Y-55.5
X180.5Y-58.04
T3
X180.5Y-69.5
X180.5Y-76.0
X185.0Y-69.5
X185.0Y-76.0
T4
X182.3Y-92.0
X182.3Y-98.0
X187.0Y-95.0
M30
