%TF.GenerationSoftware,KiCad,Pcbnew,10.0.3*%
%TF.CreationDate,2026-05-31T14:23:31+03:00*%
%TF.ProjectId,maratui,6d617261-7475-4692-9e6b-696361645f70,rev?*%
%TF.SameCoordinates,Original*%
%TF.FileFunction,Copper,L2,Bot*%
%TF.FilePolarity,Positive*%
%FSLAX46Y46*%
G04 Gerber Fmt 4.6, Leading zero omitted, Abs format (unit mm)*
G04 Created by KiCad (PCBNEW 10.0.3) date 2026-05-31 14:23:31*
%MOMM*%
%LPD*%
G01*
G04 APERTURE LIST*
%TA.AperFunction,ComponentPad*%
%ADD10O,1.524000X1.900000*%
%TD*%
%TA.AperFunction,ComponentPad*%
%ADD11O,3.000000X1.500000*%
%TD*%
%TA.AperFunction,ComponentPad*%
%ADD12C,2.600000*%
%TD*%
%TA.AperFunction,ComponentPad*%
%ADD13R,2.600000X2.600000*%
%TD*%
%TA.AperFunction,ComponentPad*%
%ADD14R,1.700000X1.700000*%
%TD*%
%TA.AperFunction,ComponentPad*%
%ADD15C,1.700000*%
%TD*%
%TA.AperFunction,ComponentPad*%
%ADD16C,2.000000*%
%TD*%
G04 APERTURE END LIST*
D10*
%TO.P,U2,15,EN_15*%
%TO.N,unconnected-(U2-EN-Pad15)*%
X112148098Y-90292460D03*
%TO.P,U2,14,GPIO36_14*%
%TO.N,unconnected-(U2-GPIO36-Pad14)*%
X114688098Y-90292460D03*
%TO.P,U2,1,VIN_1*%
%TO.N,+5V*%
X147708098Y-90292460D03*
%TO.P,U2,16,3.3v_16*%
%TO.N,+3.3V*%
X147708098Y-64892460D03*
%TO.P,U2,2,GND_2*%
%TO.N,unconnected-(U2-GND-Pad2)*%
X145168098Y-90292460D03*
%TO.P,U2,17,GND_17*%
%TO.N,GND*%
X145168098Y-64892460D03*
%TO.P,U2,3,GPIO13_3*%
%TO.N,unconnected-(U2-GPIO13-Pad3)*%
X142628098Y-90292460D03*
%TO.P,U2,18,GPIO15_18*%
%TO.N,unconnected-(U2-GPIO15-Pad18)*%
X142628098Y-64892460D03*
%TO.P,U2,4,GPIO12_4*%
%TO.N,/BUTTON*%
X140088098Y-90292460D03*
%TO.P,U2,19,GPIO2_19*%
%TO.N,unconnected-(U2-GPIO2-Pad19)*%
X140088098Y-64892460D03*
%TO.P,U2,5,GPIO14_5*%
%TO.N,/LED*%
X137548098Y-90292460D03*
%TO.P,U2,20,GPIO4_20*%
%TO.N,unconnected-(U2-GPIO4-Pad20)*%
X137548098Y-64892460D03*
%TO.P,U2,6,GPIO27_6*%
%TO.N,unconnected-(U2-GPIO27-Pad6)*%
X135008098Y-90292460D03*
%TO.P,U2,21,GPIO16_21*%
%TO.N,Net-(J2-Pin_3)*%
X135008098Y-64892460D03*
%TO.P,U2,7,GPIO26_7*%
%TO.N,unconnected-(U2-GPIO26-Pad7)*%
X132468098Y-90292460D03*
%TO.P,U2,22,GPIO17_22*%
%TO.N,Net-(J2-Pin_2)*%
X132468098Y-64892460D03*
%TO.P,U2,8,GPIO25_8*%
%TO.N,unconnected-(U2-GPIO25-Pad8)*%
X129928098Y-90292460D03*
%TO.P,U2,23,GPIO5_23*%
%TO.N,unconnected-(U2-GPIO5-Pad23)*%
X129928098Y-64892460D03*
%TO.P,U2,9,GPIO33_9*%
%TO.N,unconnected-(U2-GPIO33-Pad9)*%
X127388098Y-90292460D03*
%TO.P,U2,24,GPIO18_24*%
%TO.N,Net-(U1-SCK)*%
X127388098Y-64892460D03*
%TO.P,U2,10,GPIO32_10*%
%TO.N,unconnected-(U2-GPIO32-Pad10)*%
X124848098Y-90292460D03*
%TO.P,U2,25,GPIO19_25*%
%TO.N,Net-(U1-CS)*%
X124848098Y-64892460D03*
%TO.P,U2,11,GPIO35_11*%
%TO.N,unconnected-(U2-GPIO35-Pad11)*%
X122308098Y-90292460D03*
%TO.P,U2,26,GPIO21_26*%
%TO.N,Net-(U1-MOSI)*%
X122308098Y-64892460D03*
%TO.P,U2,12,GPIO34_12*%
%TO.N,unconnected-(U2-GPIO34-Pad12)*%
X119768098Y-90292460D03*
%TO.P,U2,27,GPIO3_27*%
%TO.N,unconnected-(U2-GPIO3-Pad27)*%
X119768098Y-64892460D03*
%TO.P,U2,13,GPIO39_13*%
%TO.N,unconnected-(U2-GPIO39-Pad13)*%
X117228098Y-90292460D03*
%TO.P,U2,28,GPIO1_28*%
%TO.N,unconnected-(U2-GPIO1-Pad28)*%
X117228098Y-64892460D03*
%TO.P,U2,29,GPIO22_29*%
%TO.N,/RESET*%
X114688098Y-64892460D03*
%TO.P,U2,30,GPIO23_30*%
%TO.N,Net-(U1-DC)*%
X112148098Y-64892460D03*
%TD*%
D11*
%TO.P,U1,1,VCC_1*%
%TO.N,+3.3V*%
X89360000Y-59490000D03*
%TO.P,U1,2,GND_2*%
%TO.N,GND*%
X89360000Y-62030000D03*
%TO.P,U1,3,CS_3*%
%TO.N,Net-(U1-CS)*%
X89360000Y-64570000D03*
%TO.P,U1,4,RST_4*%
%TO.N,/RESET*%
X89360000Y-67110000D03*
%TO.P,U1,5,DC_5*%
%TO.N,Net-(U1-DC)*%
X89360000Y-69650000D03*
%TO.P,U1,6,MOSI_6*%
%TO.N,Net-(U1-MOSI)*%
X89360000Y-72190000D03*
%TO.P,U1,7,SCK_7*%
%TO.N,Net-(U1-SCK)*%
X89360000Y-74730000D03*
%TO.P,U1,8,LED_8*%
%TO.N,/LED*%
X89360000Y-77270000D03*
%TO.P,U1,9,MISO_9*%
%TO.N,unconnected-(U1-MISO-Pad9)*%
X89360000Y-79810000D03*
%TO.P,U1,10*%
%TO.N,unconnected-(U1-Pad10)*%
X89360000Y-82350000D03*
%TO.P,U1,11*%
%TO.N,unconnected-(U1-Pad11)*%
X89360000Y-84890000D03*
%TO.P,U1,12*%
%TO.N,unconnected-(U1-Pad12)*%
X89360000Y-87430000D03*
%TO.P,U1,13*%
%TO.N,unconnected-(U1-Pad13)*%
X89360000Y-89970000D03*
%TO.P,U1,14*%
%TO.N,unconnected-(U1-Pad14)*%
X89360000Y-92510000D03*
%TD*%
D12*
%TO.P,J1,3*%
%TO.N,N/C*%
X187000000Y-95000000D03*
%TO.P,J1,2*%
%TO.N,GND*%
X182300000Y-98000000D03*
D13*
%TO.P,J1,1*%
%TO.N,+5V*%
X182300000Y-92000000D03*
%TD*%
D14*
%TO.P,J2,1,Pin_1_1*%
%TO.N,GND*%
X180500000Y-52960000D03*
D15*
%TO.P,J2,2,Pin_2_2*%
%TO.N,Net-(J2-Pin_2)*%
X180500000Y-55500000D03*
%TO.P,J2,3,Pin_3_3*%
%TO.N,Net-(J2-Pin_3)*%
X180500000Y-58040000D03*
%TD*%
D16*
%TO.P,SW1,1,1_1*%
%TO.N,/BUTTON*%
X185000000Y-69500000D03*
X185000000Y-76000000D03*
%TO.P,SW1,2,2_2*%
%TO.N,GND*%
X180500000Y-69500000D03*
X180500000Y-76000000D03*
%TD*%
%TA.AperFunction,Conductor*%
%TO.N,GND*%
G36*
X189942538Y-49020185D02*
G01*
X189988293Y-49072989D01*
X189999499Y-49124500D01*
X189999499Y-102875499D01*
X189979814Y-102942538D01*
X189927010Y-102988293D01*
X189875499Y-102999499D01*
X82124500Y-102999499D01*
X82057461Y-102979814D01*
X82011706Y-102927010D01*
X82000500Y-102875499D01*
X82000500Y-97882014D01*
X180500000Y-97882014D01*
X180500000Y-98117985D01*
X180530799Y-98351914D01*
X180591870Y-98579837D01*
X180682160Y-98797819D01*
X180682165Y-98797828D01*
X180800144Y-99002171D01*
X180800145Y-99002172D01*
X180862721Y-99083723D01*
X181584152Y-98362292D01*
X181591049Y-98378942D01*
X181678599Y-98509970D01*
X181790030Y-98621401D01*
X181921058Y-98708951D01*
X181937706Y-98715846D01*
X181216275Y-99437277D01*
X181297827Y-99499854D01*
X181297828Y-99499855D01*
X181502171Y-99617834D01*
X181502180Y-99617839D01*
X181720163Y-99708129D01*
X181720161Y-99708129D01*
X181948085Y-99769200D01*
X182182014Y-99799999D01*
X182182029Y-99800000D01*
X182417971Y-99800000D01*
X182417985Y-99799999D01*
X182651914Y-99769200D01*
X182879837Y-99708129D01*
X183097819Y-99617839D01*
X183097828Y-99617834D01*
X183302181Y-99499850D01*
X183383723Y-99437279D01*
X183383723Y-99437276D01*
X182662293Y-98715847D01*
X182678942Y-98708951D01*
X182809970Y-98621401D01*
X182921401Y-98509970D01*
X183008951Y-98378942D01*
X183015847Y-98362293D01*
X183737276Y-99083723D01*
X183737279Y-99083723D01*
X183799850Y-99002181D01*
X183917834Y-98797828D01*
X183917839Y-98797819D01*
X184008129Y-98579837D01*
X184069200Y-98351914D01*
X184099999Y-98117985D01*
X184100000Y-98117971D01*
X184100000Y-97882028D01*
X184099999Y-97882014D01*
X184069200Y-97648085D01*
X184008129Y-97420162D01*
X183917839Y-97202180D01*
X183917834Y-97202171D01*
X183799855Y-96997828D01*
X183799854Y-96997827D01*
X183737277Y-96916275D01*
X183015846Y-97637705D01*
X183008951Y-97621058D01*
X182921401Y-97490030D01*
X182809970Y-97378599D01*
X182678942Y-97291049D01*
X182662293Y-97284152D01*
X183383723Y-96562721D01*
X183302172Y-96500145D01*
X183302171Y-96500144D01*
X183097828Y-96382165D01*
X183097819Y-96382160D01*
X182879836Y-96291870D01*
X182879838Y-96291870D01*
X182651914Y-96230799D01*
X182417985Y-96200000D01*
X182182014Y-96200000D01*
X181948085Y-96230799D01*
X181720162Y-96291870D01*
X181502180Y-96382160D01*
X181502171Y-96382165D01*
X181297828Y-96500144D01*
X181297818Y-96500150D01*
X181216275Y-96562720D01*
X181216275Y-96562721D01*
X181937706Y-97284152D01*
X181921058Y-97291049D01*
X181790030Y-97378599D01*
X181678599Y-97490030D01*
X181591049Y-97621058D01*
X181584152Y-97637706D01*
X180862721Y-96916275D01*
X180862720Y-96916275D01*
X180800150Y-96997818D01*
X180800144Y-96997828D01*
X180682165Y-97202171D01*
X180682160Y-97202180D01*
X180591870Y-97420162D01*
X180530799Y-97648085D01*
X180500000Y-97882014D01*
X82000500Y-97882014D01*
X82000500Y-94881995D01*
X185199500Y-94881995D01*
X185199500Y-95118004D01*
X185199501Y-95118020D01*
X185230306Y-95352010D01*
X185291394Y-95579993D01*
X185381714Y-95798045D01*
X185381719Y-95798056D01*
X185452677Y-95920957D01*
X185499727Y-96002450D01*
X185499729Y-96002453D01*
X185499730Y-96002454D01*
X185643406Y-96189697D01*
X185643412Y-96189704D01*
X185810295Y-96356587D01*
X185810301Y-96356592D01*
X185997550Y-96500273D01*
X186105713Y-96562721D01*
X186201943Y-96618280D01*
X186201948Y-96618282D01*
X186201951Y-96618284D01*
X186420007Y-96708606D01*
X186647986Y-96769693D01*
X186881989Y-96800500D01*
X186881996Y-96800500D01*
X187118004Y-96800500D01*
X187118011Y-96800500D01*
X187352014Y-96769693D01*
X187579993Y-96708606D01*
X187798049Y-96618284D01*
X188002450Y-96500273D01*
X188189699Y-96356592D01*
X188356592Y-96189699D01*
X188500273Y-96002450D01*
X188618284Y-95798049D01*
X188708606Y-95579993D01*
X188769693Y-95352014D01*
X188800500Y-95118011D01*
X188800500Y-94881989D01*
X188769693Y-94647986D01*
X188708606Y-94420007D01*
X188618284Y-94201951D01*
X188618282Y-94201948D01*
X188618280Y-94201943D01*
X188576118Y-94128918D01*
X188500273Y-93997550D01*
X188356592Y-93810301D01*
X188356587Y-93810295D01*
X188189704Y-93643412D01*
X188189697Y-93643406D01*
X188002454Y-93499730D01*
X188002453Y-93499729D01*
X188002450Y-93499727D01*
X187920957Y-93452677D01*
X187798056Y-93381719D01*
X187798045Y-93381714D01*
X187579993Y-93291394D01*
X187352010Y-93230306D01*
X187118020Y-93199501D01*
X187118017Y-93199500D01*
X187118011Y-93199500D01*
X186881989Y-93199500D01*
X186881983Y-93199500D01*
X186881979Y-93199501D01*
X186647989Y-93230306D01*
X186420006Y-93291394D01*
X186201954Y-93381714D01*
X186201943Y-93381719D01*
X185997545Y-93499730D01*
X185810302Y-93643406D01*
X185810295Y-93643412D01*
X185643412Y-93810295D01*
X185643406Y-93810302D01*
X185499730Y-93997545D01*
X185381719Y-94201943D01*
X185381714Y-94201954D01*
X185291394Y-94420006D01*
X185230306Y-94647989D01*
X185199501Y-94881979D01*
X185199500Y-94881995D01*
X82000500Y-94881995D01*
X82000500Y-59391577D01*
X87359500Y-59391577D01*
X87359500Y-59588422D01*
X87390290Y-59782826D01*
X87451117Y-59970029D01*
X87540476Y-60145405D01*
X87656172Y-60304646D01*
X87795354Y-60443828D01*
X87914784Y-60530600D01*
X87954596Y-60559525D01*
X88131763Y-60649795D01*
X88182560Y-60697769D01*
X88199355Y-60765590D01*
X88176818Y-60831725D01*
X88131764Y-60870765D01*
X87954856Y-60960904D01*
X87795678Y-61076555D01*
X87656555Y-61215678D01*
X87540904Y-61374856D01*
X87451581Y-61550162D01*
X87390781Y-61737283D01*
X87384016Y-61780000D01*
X89044314Y-61780000D01*
X89039920Y-61784394D01*
X88987259Y-61875606D01*
X88960000Y-61977339D01*
X88960000Y-62082661D01*
X88987259Y-62184394D01*
X89039920Y-62275606D01*
X89044314Y-62280000D01*
X87384016Y-62280000D01*
X87390781Y-62322716D01*
X87451581Y-62509837D01*
X87540904Y-62685143D01*
X87656555Y-62844321D01*
X87795678Y-62983444D01*
X87954856Y-63099095D01*
X88131764Y-63189234D01*
X88182560Y-63237208D01*
X88199355Y-63305029D01*
X88176818Y-63371164D01*
X88131764Y-63410204D01*
X87954594Y-63500476D01*
X87863741Y-63566485D01*
X87795354Y-63616172D01*
X87795352Y-63616174D01*
X87795351Y-63616174D01*
X87656174Y-63755351D01*
X87656174Y-63755352D01*
X87656172Y-63755354D01*
X87606485Y-63823741D01*
X87540476Y-63914594D01*
X87451117Y-64089970D01*
X87390290Y-64277173D01*
X87359500Y-64471577D01*
X87359500Y-64668422D01*
X87390290Y-64862826D01*
X87451117Y-65050029D01*
X87517249Y-65179820D01*
X87540476Y-65225405D01*
X87656172Y-65384646D01*
X87795354Y-65523828D01*
X87954595Y-65639524D01*
X88077992Y-65702397D01*
X88131213Y-65729515D01*
X88182009Y-65777489D01*
X88198804Y-65845310D01*
X88176267Y-65911445D01*
X88131213Y-65950485D01*
X87954594Y-66040476D01*
X87863741Y-66106485D01*
X87795354Y-66156172D01*
X87795352Y-66156174D01*
X87795351Y-66156174D01*
X87656174Y-66295351D01*
X87656174Y-66295352D01*
X87656172Y-66295354D01*
X87606485Y-66363741D01*
X87540476Y-66454594D01*
X87451117Y-66629970D01*
X87390290Y-66817173D01*
X87359500Y-67011577D01*
X87359500Y-67208422D01*
X87390290Y-67402826D01*
X87451117Y-67590029D01*
X87536333Y-67757274D01*
X87540476Y-67765405D01*
X87656172Y-67924646D01*
X87795354Y-68063828D01*
X87954595Y-68179524D01*
X88028317Y-68217087D01*
X88131213Y-68269515D01*
X88182009Y-68317489D01*
X88198804Y-68385310D01*
X88176267Y-68451445D01*
X88131213Y-68490485D01*
X87954594Y-68580476D01*
X87885202Y-68630893D01*
X87795354Y-68696172D01*
X87795352Y-68696174D01*
X87795351Y-68696174D01*
X87656174Y-68835351D01*
X87656174Y-68835352D01*
X87656172Y-68835354D01*
X87606485Y-68903741D01*
X87540476Y-68994594D01*
X87451117Y-69169970D01*
X87390290Y-69357173D01*
X87359500Y-69551577D01*
X87359500Y-69748422D01*
X87390290Y-69942826D01*
X87451117Y-70130029D01*
X87530672Y-70286163D01*
X87540476Y-70305405D01*
X87656172Y-70464646D01*
X87795354Y-70603828D01*
X87954595Y-70719524D01*
X88077992Y-70782397D01*
X88131213Y-70809515D01*
X88182009Y-70857489D01*
X88198804Y-70925310D01*
X88176267Y-70991445D01*
X88131213Y-71030485D01*
X87954594Y-71120476D01*
X87863741Y-71186485D01*
X87795354Y-71236172D01*
X87795352Y-71236174D01*
X87795351Y-71236174D01*
X87656174Y-71375351D01*
X87656174Y-71375352D01*
X87656172Y-71375354D01*
X87606485Y-71443741D01*
X87540476Y-71534594D01*
X87451117Y-71709970D01*
X87390290Y-71897173D01*
X87359500Y-72091577D01*
X87359500Y-72288422D01*
X87390290Y-72482826D01*
X87451117Y-72670029D01*
X87540476Y-72845405D01*
X87656172Y-73004646D01*
X87795354Y-73143828D01*
X87954595Y-73259524D01*
X88077992Y-73322397D01*
X88131213Y-73349515D01*
X88182009Y-73397489D01*
X88198804Y-73465310D01*
X88176267Y-73531445D01*
X88131213Y-73570485D01*
X87954594Y-73660476D01*
X87863741Y-73726485D01*
X87795354Y-73776172D01*
X87795352Y-73776174D01*
X87795351Y-73776174D01*
X87656174Y-73915351D01*
X87656174Y-73915352D01*
X87656172Y-73915354D01*
X87606485Y-73983741D01*
X87540476Y-74074594D01*
X87451117Y-74249970D01*
X87390290Y-74437173D01*
X87359500Y-74631577D01*
X87359500Y-74828422D01*
X87390290Y-75022826D01*
X87451117Y-75210029D01*
X87540476Y-75385405D01*
X87656172Y-75544646D01*
X87795354Y-75683828D01*
X87954595Y-75799524D01*
X88077992Y-75862397D01*
X88131213Y-75889515D01*
X88182009Y-75937489D01*
X88198804Y-76005310D01*
X88176267Y-76071445D01*
X88131213Y-76110485D01*
X87954594Y-76200476D01*
X87863741Y-76266485D01*
X87795354Y-76316172D01*
X87795352Y-76316174D01*
X87795351Y-76316174D01*
X87656174Y-76455351D01*
X87656174Y-76455352D01*
X87656172Y-76455354D01*
X87614640Y-76512518D01*
X87540476Y-76614594D01*
X87451117Y-76789970D01*
X87390290Y-76977173D01*
X87359500Y-77171577D01*
X87359500Y-77368422D01*
X87390290Y-77562826D01*
X87451117Y-77750029D01*
X87540476Y-77925405D01*
X87656172Y-78084646D01*
X87795354Y-78223828D01*
X87954595Y-78339524D01*
X88077992Y-78402397D01*
X88131213Y-78429515D01*
X88182009Y-78477489D01*
X88198804Y-78545310D01*
X88176267Y-78611445D01*
X88131213Y-78650485D01*
X87954594Y-78740476D01*
X87863741Y-78806485D01*
X87795354Y-78856172D01*
X87795352Y-78856174D01*
X87795351Y-78856174D01*
X87656174Y-78995351D01*
X87656174Y-78995352D01*
X87656172Y-78995354D01*
X87606485Y-79063741D01*
X87540476Y-79154594D01*
X87451117Y-79329970D01*
X87390290Y-79517173D01*
X87359500Y-79711577D01*
X87359500Y-79908422D01*
X87390290Y-80102826D01*
X87451117Y-80290029D01*
X87540476Y-80465405D01*
X87656172Y-80624646D01*
X87795354Y-80763828D01*
X87954595Y-80879524D01*
X88077992Y-80942397D01*
X88131213Y-80969515D01*
X88182009Y-81017489D01*
X88198804Y-81085310D01*
X88176267Y-81151445D01*
X88131213Y-81190485D01*
X87954594Y-81280476D01*
X87863741Y-81346485D01*
X87795354Y-81396172D01*
X87795352Y-81396174D01*
X87795351Y-81396174D01*
X87656174Y-81535351D01*
X87656174Y-81535352D01*
X87656172Y-81535354D01*
X87606485Y-81603741D01*
X87540476Y-81694594D01*
X87451117Y-81869970D01*
X87390290Y-82057173D01*
X87359500Y-82251577D01*
X87359500Y-82448422D01*
X87390290Y-82642826D01*
X87451117Y-82830029D01*
X87540476Y-83005405D01*
X87656172Y-83164646D01*
X87795354Y-83303828D01*
X87954595Y-83419524D01*
X88077992Y-83482397D01*
X88131213Y-83509515D01*
X88182009Y-83557489D01*
X88198804Y-83625310D01*
X88176267Y-83691445D01*
X88131213Y-83730485D01*
X87954594Y-83820476D01*
X87863741Y-83886485D01*
X87795354Y-83936172D01*
X87795352Y-83936174D01*
X87795351Y-83936174D01*
X87656174Y-84075351D01*
X87656174Y-84075352D01*
X87656172Y-84075354D01*
X87606485Y-84143741D01*
X87540476Y-84234594D01*
X87451117Y-84409970D01*
X87390290Y-84597173D01*
X87359500Y-84791577D01*
X87359500Y-84988422D01*
X87390290Y-85182826D01*
X87451117Y-85370029D01*
X87540476Y-85545405D01*
X87656172Y-85704646D01*
X87795354Y-85843828D01*
X87954595Y-85959524D01*
X88077992Y-86022397D01*
X88131213Y-86049515D01*
X88182009Y-86097489D01*
X88198804Y-86165310D01*
X88176267Y-86231445D01*
X88131213Y-86270485D01*
X87954594Y-86360476D01*
X87863741Y-86426485D01*
X87795354Y-86476172D01*
X87795352Y-86476174D01*
X87795351Y-86476174D01*
X87656174Y-86615351D01*
X87656174Y-86615352D01*
X87656172Y-86615354D01*
X87606485Y-86683741D01*
X87540476Y-86774594D01*
X87451117Y-86949970D01*
X87390290Y-87137173D01*
X87359500Y-87331577D01*
X87359500Y-87528422D01*
X87390290Y-87722826D01*
X87451117Y-87910029D01*
X87540476Y-88085405D01*
X87656172Y-88244646D01*
X87795354Y-88383828D01*
X87954595Y-88499524D01*
X88077992Y-88562397D01*
X88131213Y-88589515D01*
X88182009Y-88637489D01*
X88198804Y-88705310D01*
X88176267Y-88771445D01*
X88131213Y-88810485D01*
X87954594Y-88900476D01*
X87907827Y-88934455D01*
X87795354Y-89016172D01*
X87795352Y-89016174D01*
X87795351Y-89016174D01*
X87656174Y-89155351D01*
X87656174Y-89155352D01*
X87656172Y-89155354D01*
X87632666Y-89187707D01*
X87540476Y-89314594D01*
X87451117Y-89489970D01*
X87390290Y-89677173D01*
X87359500Y-89871577D01*
X87359500Y-90068422D01*
X87390290Y-90262826D01*
X87451117Y-90450029D01*
X87517249Y-90579820D01*
X87540476Y-90625405D01*
X87656172Y-90784646D01*
X87795354Y-90923828D01*
X87954595Y-91039524D01*
X88077992Y-91102397D01*
X88131213Y-91129515D01*
X88182009Y-91177489D01*
X88198804Y-91245310D01*
X88176267Y-91311445D01*
X88131213Y-91350485D01*
X87954594Y-91440476D01*
X87863741Y-91506485D01*
X87795354Y-91556172D01*
X87795352Y-91556174D01*
X87795351Y-91556174D01*
X87656174Y-91695351D01*
X87656174Y-91695352D01*
X87656172Y-91695354D01*
X87621584Y-91742960D01*
X87540476Y-91854594D01*
X87451117Y-92029970D01*
X87390290Y-92217173D01*
X87359500Y-92411577D01*
X87359500Y-92608422D01*
X87390290Y-92802826D01*
X87451117Y-92990029D01*
X87540476Y-93165405D01*
X87656172Y-93324646D01*
X87795354Y-93463828D01*
X87954595Y-93579524D01*
X88037455Y-93621743D01*
X88129970Y-93668882D01*
X88129972Y-93668882D01*
X88129975Y-93668884D01*
X88230317Y-93701487D01*
X88317173Y-93729709D01*
X88511578Y-93760500D01*
X88511583Y-93760500D01*
X90208422Y-93760500D01*
X90402826Y-93729709D01*
X90590025Y-93668884D01*
X90765405Y-93579524D01*
X90924646Y-93463828D01*
X91063828Y-93324646D01*
X91179524Y-93165405D01*
X91268884Y-92990025D01*
X91329709Y-92802826D01*
X91360500Y-92608422D01*
X91360500Y-92411577D01*
X91329709Y-92217173D01*
X91268882Y-92029970D01*
X91179523Y-91854594D01*
X91063828Y-91695354D01*
X90924646Y-91556172D01*
X90845025Y-91498324D01*
X90765403Y-91440474D01*
X90588787Y-91350485D01*
X90537990Y-91302511D01*
X90521195Y-91234690D01*
X90543732Y-91168555D01*
X90588787Y-91129515D01*
X90765403Y-91039525D01*
X90765402Y-91039525D01*
X90765405Y-91039524D01*
X90924646Y-90923828D01*
X91063828Y-90784646D01*
X91179524Y-90625405D01*
X91268884Y-90450025D01*
X91329709Y-90262826D01*
X91360500Y-90068422D01*
X91360500Y-89871577D01*
X91329709Y-89677173D01*
X91268882Y-89489970D01*
X91221743Y-89397455D01*
X91179524Y-89314595D01*
X91063828Y-89155354D01*
X91027346Y-89118872D01*
X105027411Y-89118872D01*
X105027411Y-89381127D01*
X105041742Y-89489975D01*
X105061641Y-89641116D01*
X105106578Y-89808824D01*
X105129513Y-89894418D01*
X105129516Y-89894428D01*
X105229864Y-90136690D01*
X105229869Y-90136700D01*
X105360986Y-90363803D01*
X105520629Y-90571851D01*
X105520637Y-90571860D01*
X105706051Y-90757274D01*
X105706059Y-90757281D01*
X105914107Y-90916924D01*
X106141210Y-91048041D01*
X106141220Y-91048046D01*
X106383482Y-91148394D01*
X106383492Y-91148398D01*
X106636795Y-91216270D01*
X106896791Y-91250500D01*
X106896798Y-91250500D01*
X107159024Y-91250500D01*
X107159031Y-91250500D01*
X107419027Y-91216270D01*
X107672330Y-91148398D01*
X107914608Y-91048043D01*
X108141714Y-90916924D01*
X108349762Y-90757282D01*
X108349766Y-90757277D01*
X108349771Y-90757274D01*
X108535185Y-90571860D01*
X108535188Y-90571855D01*
X108535193Y-90571851D01*
X108694835Y-90363803D01*
X108825954Y-90136697D01*
X108828115Y-90131480D01*
X108880464Y-90005099D01*
X110885598Y-90005099D01*
X110885598Y-90579821D01*
X110897051Y-90652135D01*
X110916685Y-90776097D01*
X110978091Y-90965089D01*
X110978092Y-90965092D01*
X111061871Y-91129515D01*
X111068311Y-91142154D01*
X111185117Y-91302924D01*
X111325634Y-91443441D01*
X111486404Y-91560247D01*
X111573247Y-91604495D01*
X111663465Y-91650465D01*
X111663468Y-91650466D01*
X111757964Y-91681169D01*
X111852462Y-91711873D01*
X112048737Y-91742960D01*
X112048738Y-91742960D01*
X112247458Y-91742960D01*
X112247459Y-91742960D01*
X112443734Y-91711873D01*
X112632730Y-91650465D01*
X112809792Y-91560247D01*
X112970562Y-91443441D01*
X113111079Y-91302924D01*
X113227885Y-91142154D01*
X113307613Y-90985678D01*
X113355588Y-90934883D01*
X113423409Y-90918088D01*
X113489544Y-90940625D01*
X113528582Y-90985678D01*
X113608311Y-91142154D01*
X113725117Y-91302924D01*
X113865634Y-91443441D01*
X114026404Y-91560247D01*
X114113247Y-91604495D01*
X114203465Y-91650465D01*
X114203468Y-91650466D01*
X114297964Y-91681169D01*
X114392462Y-91711873D01*
X114588737Y-91742960D01*
X114588738Y-91742960D01*
X114787458Y-91742960D01*
X114787459Y-91742960D01*
X114983734Y-91711873D01*
X115172730Y-91650465D01*
X115349792Y-91560247D01*
X115510562Y-91443441D01*
X115651079Y-91302924D01*
X115767885Y-91142154D01*
X115847613Y-90985678D01*
X115895588Y-90934883D01*
X115963409Y-90918088D01*
X116029544Y-90940625D01*
X116068582Y-90985678D01*
X116148311Y-91142154D01*
X116265117Y-91302924D01*
X116405634Y-91443441D01*
X116566404Y-91560247D01*
X116653247Y-91604495D01*
X116743465Y-91650465D01*
X116743468Y-91650466D01*
X116837964Y-91681169D01*
X116932462Y-91711873D01*
X117128737Y-91742960D01*
X117128738Y-91742960D01*
X117327458Y-91742960D01*
X117327459Y-91742960D01*
X117523734Y-91711873D01*
X117712730Y-91650465D01*
X117889792Y-91560247D01*
X118050562Y-91443441D01*
X118191079Y-91302924D01*
X118307885Y-91142154D01*
X118387613Y-90985678D01*
X118435588Y-90934883D01*
X118503409Y-90918088D01*
X118569544Y-90940625D01*
X118608582Y-90985678D01*
X118688311Y-91142154D01*
X118805117Y-91302924D01*
X118945634Y-91443441D01*
X119106404Y-91560247D01*
X119193247Y-91604495D01*
X119283465Y-91650465D01*
X119283468Y-91650466D01*
X119377964Y-91681169D01*
X119472462Y-91711873D01*
X119668737Y-91742960D01*
X119668738Y-91742960D01*
X119867458Y-91742960D01*
X119867459Y-91742960D01*
X120063734Y-91711873D01*
X120252730Y-91650465D01*
X120429792Y-91560247D01*
X120590562Y-91443441D01*
X120731079Y-91302924D01*
X120847885Y-91142154D01*
X120927613Y-90985678D01*
X120975588Y-90934883D01*
X121043409Y-90918088D01*
X121109544Y-90940625D01*
X121148582Y-90985678D01*
X121228311Y-91142154D01*
X121345117Y-91302924D01*
X121485634Y-91443441D01*
X121646404Y-91560247D01*
X121733247Y-91604495D01*
X121823465Y-91650465D01*
X121823468Y-91650466D01*
X121917964Y-91681169D01*
X122012462Y-91711873D01*
X122208737Y-91742960D01*
X122208738Y-91742960D01*
X122407458Y-91742960D01*
X122407459Y-91742960D01*
X122603734Y-91711873D01*
X122792730Y-91650465D01*
X122969792Y-91560247D01*
X123130562Y-91443441D01*
X123271079Y-91302924D01*
X123387885Y-91142154D01*
X123467613Y-90985678D01*
X123515588Y-90934883D01*
X123583409Y-90918088D01*
X123649544Y-90940625D01*
X123688582Y-90985678D01*
X123768311Y-91142154D01*
X123885117Y-91302924D01*
X124025634Y-91443441D01*
X124186404Y-91560247D01*
X124273247Y-91604495D01*
X124363465Y-91650465D01*
X124363468Y-91650466D01*
X124457964Y-91681169D01*
X124552462Y-91711873D01*
X124748737Y-91742960D01*
X124748738Y-91742960D01*
X124947458Y-91742960D01*
X124947459Y-91742960D01*
X125143734Y-91711873D01*
X125332730Y-91650465D01*
X125509792Y-91560247D01*
X125670562Y-91443441D01*
X125811079Y-91302924D01*
X125927885Y-91142154D01*
X126007613Y-90985678D01*
X126055588Y-90934883D01*
X126123409Y-90918088D01*
X126189544Y-90940625D01*
X126228582Y-90985678D01*
X126308311Y-91142154D01*
X126425117Y-91302924D01*
X126565634Y-91443441D01*
X126726404Y-91560247D01*
X126813247Y-91604495D01*
X126903465Y-91650465D01*
X126903468Y-91650466D01*
X126997964Y-91681169D01*
X127092462Y-91711873D01*
X127288737Y-91742960D01*
X127288738Y-91742960D01*
X127487458Y-91742960D01*
X127487459Y-91742960D01*
X127683734Y-91711873D01*
X127872730Y-91650465D01*
X128049792Y-91560247D01*
X128210562Y-91443441D01*
X128351079Y-91302924D01*
X128467885Y-91142154D01*
X128547613Y-90985678D01*
X128595588Y-90934883D01*
X128663409Y-90918088D01*
X128729544Y-90940625D01*
X128768582Y-90985678D01*
X128848311Y-91142154D01*
X128965117Y-91302924D01*
X129105634Y-91443441D01*
X129266404Y-91560247D01*
X129353247Y-91604495D01*
X129443465Y-91650465D01*
X129443468Y-91650466D01*
X129537964Y-91681169D01*
X129632462Y-91711873D01*
X129828737Y-91742960D01*
X129828738Y-91742960D01*
X130027458Y-91742960D01*
X130027459Y-91742960D01*
X130223734Y-91711873D01*
X130412730Y-91650465D01*
X130589792Y-91560247D01*
X130750562Y-91443441D01*
X130891079Y-91302924D01*
X131007885Y-91142154D01*
X131087613Y-90985678D01*
X131135588Y-90934883D01*
X131203409Y-90918088D01*
X131269544Y-90940625D01*
X131308582Y-90985678D01*
X131388311Y-91142154D01*
X131505117Y-91302924D01*
X131645634Y-91443441D01*
X131806404Y-91560247D01*
X131893247Y-91604495D01*
X131983465Y-91650465D01*
X131983468Y-91650466D01*
X132077964Y-91681169D01*
X132172462Y-91711873D01*
X132368737Y-91742960D01*
X132368738Y-91742960D01*
X132567458Y-91742960D01*
X132567459Y-91742960D01*
X132763734Y-91711873D01*
X132952730Y-91650465D01*
X133129792Y-91560247D01*
X133290562Y-91443441D01*
X133431079Y-91302924D01*
X133547885Y-91142154D01*
X133627613Y-90985678D01*
X133675588Y-90934883D01*
X133743409Y-90918088D01*
X133809544Y-90940625D01*
X133848582Y-90985678D01*
X133928311Y-91142154D01*
X134045117Y-91302924D01*
X134185634Y-91443441D01*
X134346404Y-91560247D01*
X134433247Y-91604495D01*
X134523465Y-91650465D01*
X134523468Y-91650466D01*
X134617964Y-91681169D01*
X134712462Y-91711873D01*
X134908737Y-91742960D01*
X134908738Y-91742960D01*
X135107458Y-91742960D01*
X135107459Y-91742960D01*
X135303734Y-91711873D01*
X135492730Y-91650465D01*
X135669792Y-91560247D01*
X135830562Y-91443441D01*
X135971079Y-91302924D01*
X136087885Y-91142154D01*
X136167613Y-90985678D01*
X136215588Y-90934883D01*
X136283409Y-90918088D01*
X136349544Y-90940625D01*
X136388582Y-90985678D01*
X136468311Y-91142154D01*
X136585117Y-91302924D01*
X136725634Y-91443441D01*
X136886404Y-91560247D01*
X136973247Y-91604495D01*
X137063465Y-91650465D01*
X137063468Y-91650466D01*
X137157964Y-91681169D01*
X137252462Y-91711873D01*
X137448737Y-91742960D01*
X137448738Y-91742960D01*
X137647458Y-91742960D01*
X137647459Y-91742960D01*
X137843734Y-91711873D01*
X138032730Y-91650465D01*
X138209792Y-91560247D01*
X138370562Y-91443441D01*
X138511079Y-91302924D01*
X138627885Y-91142154D01*
X138707613Y-90985678D01*
X138755588Y-90934883D01*
X138823409Y-90918088D01*
X138889544Y-90940625D01*
X138928582Y-90985678D01*
X139008311Y-91142154D01*
X139125117Y-91302924D01*
X139265634Y-91443441D01*
X139426404Y-91560247D01*
X139513247Y-91604495D01*
X139603465Y-91650465D01*
X139603468Y-91650466D01*
X139697964Y-91681169D01*
X139792462Y-91711873D01*
X139988737Y-91742960D01*
X139988738Y-91742960D01*
X140187458Y-91742960D01*
X140187459Y-91742960D01*
X140383734Y-91711873D01*
X140572730Y-91650465D01*
X140749792Y-91560247D01*
X140910562Y-91443441D01*
X141051079Y-91302924D01*
X141167885Y-91142154D01*
X141247613Y-90985678D01*
X141295588Y-90934883D01*
X141363409Y-90918088D01*
X141429544Y-90940625D01*
X141468582Y-90985678D01*
X141548311Y-91142154D01*
X141665117Y-91302924D01*
X141805634Y-91443441D01*
X141966404Y-91560247D01*
X142053247Y-91604495D01*
X142143465Y-91650465D01*
X142143468Y-91650466D01*
X142237964Y-91681169D01*
X142332462Y-91711873D01*
X142528737Y-91742960D01*
X142528738Y-91742960D01*
X142727458Y-91742960D01*
X142727459Y-91742960D01*
X142923734Y-91711873D01*
X143112730Y-91650465D01*
X143289792Y-91560247D01*
X143450562Y-91443441D01*
X143591079Y-91302924D01*
X143707885Y-91142154D01*
X143787613Y-90985678D01*
X143835588Y-90934883D01*
X143903409Y-90918088D01*
X143969544Y-90940625D01*
X144008582Y-90985678D01*
X144088311Y-91142154D01*
X144205117Y-91302924D01*
X144345634Y-91443441D01*
X144506404Y-91560247D01*
X144593247Y-91604495D01*
X144683465Y-91650465D01*
X144683468Y-91650466D01*
X144777964Y-91681169D01*
X144872462Y-91711873D01*
X145068737Y-91742960D01*
X145068738Y-91742960D01*
X145267458Y-91742960D01*
X145267459Y-91742960D01*
X145463734Y-91711873D01*
X145652730Y-91650465D01*
X145829792Y-91560247D01*
X145990562Y-91443441D01*
X146131079Y-91302924D01*
X146247885Y-91142154D01*
X146327613Y-90985678D01*
X146375588Y-90934883D01*
X146443409Y-90918088D01*
X146509544Y-90940625D01*
X146548582Y-90985678D01*
X146628311Y-91142154D01*
X146745117Y-91302924D01*
X146885634Y-91443441D01*
X147046404Y-91560247D01*
X147133247Y-91604495D01*
X147223465Y-91650465D01*
X147223468Y-91650466D01*
X147317964Y-91681169D01*
X147412462Y-91711873D01*
X147608737Y-91742960D01*
X147608738Y-91742960D01*
X147807458Y-91742960D01*
X147807459Y-91742960D01*
X148003734Y-91711873D01*
X148192730Y-91650465D01*
X148369792Y-91560247D01*
X148530562Y-91443441D01*
X148671079Y-91302924D01*
X148787885Y-91142154D01*
X148878103Y-90965092D01*
X148939511Y-90776096D01*
X148970598Y-90579821D01*
X148970598Y-90005099D01*
X148939511Y-89808824D01*
X148878103Y-89619828D01*
X148878103Y-89619827D01*
X148787884Y-89442765D01*
X148671079Y-89281996D01*
X148530562Y-89141479D01*
X148499446Y-89118872D01*
X151027411Y-89118872D01*
X151027411Y-89381127D01*
X151041742Y-89489975D01*
X151061641Y-89641116D01*
X151106578Y-89808824D01*
X151129513Y-89894418D01*
X151129516Y-89894428D01*
X151229864Y-90136690D01*
X151229869Y-90136700D01*
X151360986Y-90363803D01*
X151520629Y-90571851D01*
X151520637Y-90571860D01*
X151706051Y-90757274D01*
X151706059Y-90757281D01*
X151914107Y-90916924D01*
X152141210Y-91048041D01*
X152141220Y-91048046D01*
X152383482Y-91148394D01*
X152383492Y-91148398D01*
X152636795Y-91216270D01*
X152896791Y-91250500D01*
X152896798Y-91250500D01*
X153159024Y-91250500D01*
X153159031Y-91250500D01*
X153419027Y-91216270D01*
X153672330Y-91148398D01*
X153914608Y-91048043D01*
X154141714Y-90916924D01*
X154349762Y-90757282D01*
X154349766Y-90757277D01*
X154349771Y-90757274D01*
X154454910Y-90652135D01*
X180499500Y-90652135D01*
X180499500Y-93347870D01*
X180499501Y-93347876D01*
X180505908Y-93407483D01*
X180556202Y-93542328D01*
X180556206Y-93542335D01*
X180642452Y-93657544D01*
X180642455Y-93657547D01*
X180757664Y-93743793D01*
X180757671Y-93743797D01*
X180892517Y-93794091D01*
X180892516Y-93794091D01*
X180899444Y-93794835D01*
X180952127Y-93800500D01*
X183647872Y-93800499D01*
X183707483Y-93794091D01*
X183842331Y-93743796D01*
X183957546Y-93657546D01*
X184043796Y-93542331D01*
X184094091Y-93407483D01*
X184100500Y-93347873D01*
X184100499Y-90652128D01*
X184094091Y-90592517D01*
X184089355Y-90579820D01*
X184043797Y-90457671D01*
X184043793Y-90457664D01*
X183957547Y-90342455D01*
X183957544Y-90342452D01*
X183842335Y-90256206D01*
X183842328Y-90256202D01*
X183707482Y-90205908D01*
X183707483Y-90205908D01*
X183647883Y-90199501D01*
X183647881Y-90199500D01*
X183647873Y-90199500D01*
X183647864Y-90199500D01*
X180952129Y-90199500D01*
X180952123Y-90199501D01*
X180892516Y-90205908D01*
X180757671Y-90256202D01*
X180757664Y-90256206D01*
X180642455Y-90342452D01*
X180642452Y-90342455D01*
X180556206Y-90457664D01*
X180556202Y-90457671D01*
X180505908Y-90592517D01*
X180499501Y-90652116D01*
X180499501Y-90652123D01*
X180499500Y-90652135D01*
X154454910Y-90652135D01*
X154535185Y-90571860D01*
X154535189Y-90571855D01*
X154535193Y-90571851D01*
X154694835Y-90363803D01*
X154825954Y-90136697D01*
X154926309Y-89894419D01*
X154994181Y-89641116D01*
X155028411Y-89381120D01*
X155028411Y-89118880D01*
X154994181Y-88858884D01*
X154926309Y-88605581D01*
X154882379Y-88499524D01*
X154825957Y-88363309D01*
X154825952Y-88363299D01*
X154694835Y-88136196D01*
X154535192Y-87928148D01*
X154535185Y-87928140D01*
X154349771Y-87742726D01*
X154349762Y-87742718D01*
X154141714Y-87583075D01*
X153914611Y-87451958D01*
X153914601Y-87451953D01*
X153672339Y-87351605D01*
X153672332Y-87351603D01*
X153672330Y-87351602D01*
X153419027Y-87283730D01*
X153361250Y-87276123D01*
X153159038Y-87249500D01*
X153159031Y-87249500D01*
X152896791Y-87249500D01*
X152896783Y-87249500D01*
X152665683Y-87279926D01*
X152636795Y-87283730D01*
X152383492Y-87351602D01*
X152383482Y-87351605D01*
X152141220Y-87451953D01*
X152141210Y-87451958D01*
X151914107Y-87583075D01*
X151706059Y-87742718D01*
X151520629Y-87928148D01*
X151360986Y-88136196D01*
X151229869Y-88363299D01*
X151229864Y-88363309D01*
X151129516Y-88605571D01*
X151129513Y-88605581D01*
X151074441Y-88811116D01*
X151061641Y-88858885D01*
X151027411Y-89118872D01*
X148499446Y-89118872D01*
X148369792Y-89024673D01*
X148353108Y-89016172D01*
X148192730Y-88934454D01*
X148192727Y-88934453D01*
X148003735Y-88873047D01*
X147905596Y-88857503D01*
X147807459Y-88841960D01*
X147608737Y-88841960D01*
X147543312Y-88852322D01*
X147412460Y-88873047D01*
X147223468Y-88934453D01*
X147223465Y-88934454D01*
X147046403Y-89024673D01*
X146885631Y-89141481D01*
X146745119Y-89281993D01*
X146628311Y-89442765D01*
X146548583Y-89599240D01*
X146500608Y-89650036D01*
X146432787Y-89666831D01*
X146366652Y-89644293D01*
X146327613Y-89599240D01*
X146271939Y-89489975D01*
X146247885Y-89442766D01*
X146131079Y-89281996D01*
X145990562Y-89141479D01*
X145829792Y-89024673D01*
X145813108Y-89016172D01*
X145652730Y-88934454D01*
X145652727Y-88934453D01*
X145463735Y-88873047D01*
X145365596Y-88857503D01*
X145267459Y-88841960D01*
X145068737Y-88841960D01*
X145003312Y-88852322D01*
X144872460Y-88873047D01*
X144683468Y-88934453D01*
X144683465Y-88934454D01*
X144506403Y-89024673D01*
X144345631Y-89141481D01*
X144205119Y-89281993D01*
X144088311Y-89442765D01*
X144008583Y-89599240D01*
X143960608Y-89650036D01*
X143892787Y-89666831D01*
X143826652Y-89644293D01*
X143787613Y-89599240D01*
X143731939Y-89489975D01*
X143707885Y-89442766D01*
X143591079Y-89281996D01*
X143450562Y-89141479D01*
X143289792Y-89024673D01*
X143273108Y-89016172D01*
X143112730Y-88934454D01*
X143112727Y-88934453D01*
X142923735Y-88873047D01*
X142825596Y-88857503D01*
X142727459Y-88841960D01*
X142528737Y-88841960D01*
X142463312Y-88852322D01*
X142332460Y-88873047D01*
X142143468Y-88934453D01*
X142143465Y-88934454D01*
X141966403Y-89024673D01*
X141805631Y-89141481D01*
X141665119Y-89281993D01*
X141548311Y-89442765D01*
X141468583Y-89599240D01*
X141420608Y-89650036D01*
X141352787Y-89666831D01*
X141286652Y-89644293D01*
X141247613Y-89599240D01*
X141191939Y-89489975D01*
X141167885Y-89442766D01*
X141051079Y-89281996D01*
X140910562Y-89141479D01*
X140749792Y-89024673D01*
X140733108Y-89016172D01*
X140572730Y-88934454D01*
X140572727Y-88934453D01*
X140383735Y-88873047D01*
X140285596Y-88857503D01*
X140187459Y-88841960D01*
X139988737Y-88841960D01*
X139923312Y-88852322D01*
X139792460Y-88873047D01*
X139603468Y-88934453D01*
X139603465Y-88934454D01*
X139426403Y-89024673D01*
X139265631Y-89141481D01*
X139125119Y-89281993D01*
X139008311Y-89442765D01*
X138928583Y-89599240D01*
X138880608Y-89650036D01*
X138812787Y-89666831D01*
X138746652Y-89644293D01*
X138707613Y-89599240D01*
X138651939Y-89489975D01*
X138627885Y-89442766D01*
X138511079Y-89281996D01*
X138370562Y-89141479D01*
X138209792Y-89024673D01*
X138193108Y-89016172D01*
X138032730Y-88934454D01*
X138032727Y-88934453D01*
X137843735Y-88873047D01*
X137745596Y-88857503D01*
X137647459Y-88841960D01*
X137448737Y-88841960D01*
X137383312Y-88852322D01*
X137252460Y-88873047D01*
X137063468Y-88934453D01*
X137063465Y-88934454D01*
X136886403Y-89024673D01*
X136725631Y-89141481D01*
X136585119Y-89281993D01*
X136468311Y-89442765D01*
X136388583Y-89599240D01*
X136340608Y-89650036D01*
X136272787Y-89666831D01*
X136206652Y-89644293D01*
X136167613Y-89599240D01*
X136111939Y-89489975D01*
X136087885Y-89442766D01*
X135971079Y-89281996D01*
X135830562Y-89141479D01*
X135669792Y-89024673D01*
X135653108Y-89016172D01*
X135492730Y-88934454D01*
X135492727Y-88934453D01*
X135303735Y-88873047D01*
X135205596Y-88857503D01*
X135107459Y-88841960D01*
X134908737Y-88841960D01*
X134843312Y-88852322D01*
X134712460Y-88873047D01*
X134523468Y-88934453D01*
X134523465Y-88934454D01*
X134346403Y-89024673D01*
X134185631Y-89141481D01*
X134045119Y-89281993D01*
X133928311Y-89442765D01*
X133848583Y-89599240D01*
X133800608Y-89650036D01*
X133732787Y-89666831D01*
X133666652Y-89644293D01*
X133627613Y-89599240D01*
X133571939Y-89489975D01*
X133547885Y-89442766D01*
X133431079Y-89281996D01*
X133290562Y-89141479D01*
X133129792Y-89024673D01*
X133113108Y-89016172D01*
X132952730Y-88934454D01*
X132952727Y-88934453D01*
X132763735Y-88873047D01*
X132665596Y-88857503D01*
X132567459Y-88841960D01*
X132368737Y-88841960D01*
X132303312Y-88852322D01*
X132172460Y-88873047D01*
X131983468Y-88934453D01*
X131983465Y-88934454D01*
X131806403Y-89024673D01*
X131645631Y-89141481D01*
X131505119Y-89281993D01*
X131388311Y-89442765D01*
X131308583Y-89599240D01*
X131260608Y-89650036D01*
X131192787Y-89666831D01*
X131126652Y-89644293D01*
X131087613Y-89599240D01*
X131031939Y-89489975D01*
X131007885Y-89442766D01*
X130891079Y-89281996D01*
X130750562Y-89141479D01*
X130589792Y-89024673D01*
X130573108Y-89016172D01*
X130412730Y-88934454D01*
X130412727Y-88934453D01*
X130223735Y-88873047D01*
X130125596Y-88857503D01*
X130027459Y-88841960D01*
X129828737Y-88841960D01*
X129763312Y-88852322D01*
X129632460Y-88873047D01*
X129443468Y-88934453D01*
X129443465Y-88934454D01*
X129266403Y-89024673D01*
X129105631Y-89141481D01*
X128965119Y-89281993D01*
X128848311Y-89442765D01*
X128768583Y-89599240D01*
X128720608Y-89650036D01*
X128652787Y-89666831D01*
X128586652Y-89644293D01*
X128547613Y-89599240D01*
X128491939Y-89489975D01*
X128467885Y-89442766D01*
X128351079Y-89281996D01*
X128210562Y-89141479D01*
X128049792Y-89024673D01*
X128033108Y-89016172D01*
X127872730Y-88934454D01*
X127872727Y-88934453D01*
X127683735Y-88873047D01*
X127585596Y-88857503D01*
X127487459Y-88841960D01*
X127288737Y-88841960D01*
X127223312Y-88852322D01*
X127092460Y-88873047D01*
X126903468Y-88934453D01*
X126903465Y-88934454D01*
X126726403Y-89024673D01*
X126565631Y-89141481D01*
X126425119Y-89281993D01*
X126308311Y-89442765D01*
X126228583Y-89599240D01*
X126180608Y-89650036D01*
X126112787Y-89666831D01*
X126046652Y-89644293D01*
X126007613Y-89599240D01*
X125951939Y-89489975D01*
X125927885Y-89442766D01*
X125811079Y-89281996D01*
X125670562Y-89141479D01*
X125509792Y-89024673D01*
X125493108Y-89016172D01*
X125332730Y-88934454D01*
X125332727Y-88934453D01*
X125143735Y-88873047D01*
X125045596Y-88857503D01*
X124947459Y-88841960D01*
X124748737Y-88841960D01*
X124683312Y-88852322D01*
X124552460Y-88873047D01*
X124363468Y-88934453D01*
X124363465Y-88934454D01*
X124186403Y-89024673D01*
X124025631Y-89141481D01*
X123885119Y-89281993D01*
X123768311Y-89442765D01*
X123688583Y-89599240D01*
X123640608Y-89650036D01*
X123572787Y-89666831D01*
X123506652Y-89644293D01*
X123467613Y-89599240D01*
X123411939Y-89489975D01*
X123387885Y-89442766D01*
X123271079Y-89281996D01*
X123130562Y-89141479D01*
X122969792Y-89024673D01*
X122953108Y-89016172D01*
X122792730Y-88934454D01*
X122792727Y-88934453D01*
X122603735Y-88873047D01*
X122505596Y-88857503D01*
X122407459Y-88841960D01*
X122208737Y-88841960D01*
X122143312Y-88852322D01*
X122012460Y-88873047D01*
X121823468Y-88934453D01*
X121823465Y-88934454D01*
X121646403Y-89024673D01*
X121485631Y-89141481D01*
X121345119Y-89281993D01*
X121228311Y-89442765D01*
X121148583Y-89599240D01*
X121100608Y-89650036D01*
X121032787Y-89666831D01*
X120966652Y-89644293D01*
X120927613Y-89599240D01*
X120871939Y-89489975D01*
X120847885Y-89442766D01*
X120731079Y-89281996D01*
X120590562Y-89141479D01*
X120429792Y-89024673D01*
X120413108Y-89016172D01*
X120252730Y-88934454D01*
X120252727Y-88934453D01*
X120063735Y-88873047D01*
X119965596Y-88857503D01*
X119867459Y-88841960D01*
X119668737Y-88841960D01*
X119603312Y-88852322D01*
X119472460Y-88873047D01*
X119283468Y-88934453D01*
X119283465Y-88934454D01*
X119106403Y-89024673D01*
X118945631Y-89141481D01*
X118805119Y-89281993D01*
X118688311Y-89442765D01*
X118608583Y-89599240D01*
X118560608Y-89650036D01*
X118492787Y-89666831D01*
X118426652Y-89644293D01*
X118387613Y-89599240D01*
X118331939Y-89489975D01*
X118307885Y-89442766D01*
X118191079Y-89281996D01*
X118050562Y-89141479D01*
X117889792Y-89024673D01*
X117873108Y-89016172D01*
X117712730Y-88934454D01*
X117712727Y-88934453D01*
X117523735Y-88873047D01*
X117425596Y-88857503D01*
X117327459Y-88841960D01*
X117128737Y-88841960D01*
X117063312Y-88852322D01*
X116932460Y-88873047D01*
X116743468Y-88934453D01*
X116743465Y-88934454D01*
X116566403Y-89024673D01*
X116405631Y-89141481D01*
X116265119Y-89281993D01*
X116148311Y-89442765D01*
X116068583Y-89599240D01*
X116020608Y-89650036D01*
X115952787Y-89666831D01*
X115886652Y-89644293D01*
X115847613Y-89599240D01*
X115791939Y-89489975D01*
X115767885Y-89442766D01*
X115651079Y-89281996D01*
X115510562Y-89141479D01*
X115349792Y-89024673D01*
X115333108Y-89016172D01*
X115172730Y-88934454D01*
X115172727Y-88934453D01*
X114983735Y-88873047D01*
X114885596Y-88857503D01*
X114787459Y-88841960D01*
X114588737Y-88841960D01*
X114523312Y-88852322D01*
X114392460Y-88873047D01*
X114203468Y-88934453D01*
X114203465Y-88934454D01*
X114026403Y-89024673D01*
X113865631Y-89141481D01*
X113725119Y-89281993D01*
X113608311Y-89442765D01*
X113528583Y-89599240D01*
X113480608Y-89650036D01*
X113412787Y-89666831D01*
X113346652Y-89644293D01*
X113307613Y-89599240D01*
X113251939Y-89489975D01*
X113227885Y-89442766D01*
X113111079Y-89281996D01*
X112970562Y-89141479D01*
X112809792Y-89024673D01*
X112793108Y-89016172D01*
X112632730Y-88934454D01*
X112632727Y-88934453D01*
X112443735Y-88873047D01*
X112345596Y-88857503D01*
X112247459Y-88841960D01*
X112048737Y-88841960D01*
X111983312Y-88852322D01*
X111852460Y-88873047D01*
X111663468Y-88934453D01*
X111663465Y-88934454D01*
X111486403Y-89024673D01*
X111325631Y-89141481D01*
X111185119Y-89281993D01*
X111068311Y-89442765D01*
X110978092Y-89619827D01*
X110978091Y-89619830D01*
X110916685Y-89808822D01*
X110893885Y-89952774D01*
X110885598Y-90005099D01*
X108880464Y-90005099D01*
X108902138Y-89952774D01*
X108926305Y-89894428D01*
X108926309Y-89894419D01*
X108994181Y-89641116D01*
X109028411Y-89381120D01*
X109028411Y-89118880D01*
X108994181Y-88858884D01*
X108926309Y-88605581D01*
X108882379Y-88499524D01*
X108825957Y-88363309D01*
X108825952Y-88363299D01*
X108694835Y-88136196D01*
X108535192Y-87928148D01*
X108535185Y-87928140D01*
X108349771Y-87742726D01*
X108349762Y-87742718D01*
X108141714Y-87583075D01*
X107914611Y-87451958D01*
X107914601Y-87451953D01*
X107672339Y-87351605D01*
X107672332Y-87351603D01*
X107672330Y-87351602D01*
X107419027Y-87283730D01*
X107361250Y-87276123D01*
X107159038Y-87249500D01*
X107159031Y-87249500D01*
X106896791Y-87249500D01*
X106896783Y-87249500D01*
X106665683Y-87279926D01*
X106636795Y-87283730D01*
X106383492Y-87351602D01*
X106383482Y-87351605D01*
X106141220Y-87451953D01*
X106141210Y-87451958D01*
X105914107Y-87583075D01*
X105706059Y-87742718D01*
X105520629Y-87928148D01*
X105360986Y-88136196D01*
X105229869Y-88363299D01*
X105229864Y-88363309D01*
X105129516Y-88605571D01*
X105129513Y-88605581D01*
X105074441Y-88811116D01*
X105061641Y-88858885D01*
X105027411Y-89118872D01*
X91027346Y-89118872D01*
X90924646Y-89016172D01*
X90812173Y-88934455D01*
X90765403Y-88900474D01*
X90588787Y-88810485D01*
X90537990Y-88762511D01*
X90521195Y-88694690D01*
X90543732Y-88628555D01*
X90588787Y-88589515D01*
X90765403Y-88499525D01*
X90765402Y-88499525D01*
X90765405Y-88499524D01*
X90924646Y-88383828D01*
X91063828Y-88244646D01*
X91179524Y-88085405D01*
X91268884Y-87910025D01*
X91329709Y-87722826D01*
X91360500Y-87528422D01*
X91360500Y-87331577D01*
X91329709Y-87137173D01*
X91268882Y-86949970D01*
X91179523Y-86774594D01*
X91063828Y-86615354D01*
X90924646Y-86476172D01*
X90845025Y-86418324D01*
X90765403Y-86360474D01*
X90588787Y-86270485D01*
X90537990Y-86222511D01*
X90521195Y-86154690D01*
X90543732Y-86088555D01*
X90588787Y-86049515D01*
X90765403Y-85959525D01*
X90765402Y-85959525D01*
X90765405Y-85959524D01*
X90924646Y-85843828D01*
X91063828Y-85704646D01*
X91179524Y-85545405D01*
X91268884Y-85370025D01*
X91329709Y-85182826D01*
X91360500Y-84988422D01*
X91360500Y-84791577D01*
X91329709Y-84597173D01*
X91268882Y-84409970D01*
X91179523Y-84234594D01*
X91063828Y-84075354D01*
X90924646Y-83936172D01*
X90845025Y-83878324D01*
X90765403Y-83820474D01*
X90588787Y-83730485D01*
X90537990Y-83682511D01*
X90521195Y-83614690D01*
X90543732Y-83548555D01*
X90588787Y-83509515D01*
X90765403Y-83419525D01*
X90765402Y-83419525D01*
X90765405Y-83419524D01*
X90924646Y-83303828D01*
X91063828Y-83164646D01*
X91179524Y-83005405D01*
X91268884Y-82830025D01*
X91329709Y-82642826D01*
X91360500Y-82448422D01*
X91360500Y-82251577D01*
X91329709Y-82057173D01*
X91268882Y-81869970D01*
X91179523Y-81694594D01*
X91063828Y-81535354D01*
X90924646Y-81396172D01*
X90845025Y-81338324D01*
X90765403Y-81280474D01*
X90588787Y-81190485D01*
X90537990Y-81142511D01*
X90521195Y-81074690D01*
X90543732Y-81008555D01*
X90588787Y-80969515D01*
X90765403Y-80879525D01*
X90765402Y-80879525D01*
X90765405Y-80879524D01*
X90924646Y-80763828D01*
X91063828Y-80624646D01*
X91179524Y-80465405D01*
X91268884Y-80290025D01*
X91329709Y-80102826D01*
X91360500Y-79908422D01*
X91360500Y-79711577D01*
X91329709Y-79517173D01*
X91268882Y-79329970D01*
X91179523Y-79154594D01*
X91063828Y-78995354D01*
X90924646Y-78856172D01*
X90845025Y-78798324D01*
X90765403Y-78740474D01*
X90588787Y-78650485D01*
X90537990Y-78602511D01*
X90521195Y-78534690D01*
X90543732Y-78468555D01*
X90588787Y-78429515D01*
X90765403Y-78339525D01*
X90765402Y-78339525D01*
X90765405Y-78339524D01*
X90924646Y-78223828D01*
X91063828Y-78084646D01*
X91179524Y-77925405D01*
X91268884Y-77750025D01*
X91329709Y-77562826D01*
X91360500Y-77368422D01*
X91360500Y-77171577D01*
X91329709Y-76977173D01*
X91268882Y-76789970D01*
X91179523Y-76614594D01*
X91063828Y-76455354D01*
X90924646Y-76316172D01*
X90845025Y-76258324D01*
X90765403Y-76200474D01*
X90588787Y-76110485D01*
X90537990Y-76062511D01*
X90521195Y-75994690D01*
X90543732Y-75928555D01*
X90588787Y-75889515D01*
X90603639Y-75881947D01*
X179000000Y-75881947D01*
X179000000Y-76118052D01*
X179036934Y-76351247D01*
X179109897Y-76575802D01*
X179217087Y-76786174D01*
X179277338Y-76869104D01*
X179277340Y-76869105D01*
X179976212Y-76170233D01*
X179987482Y-76212292D01*
X180059890Y-76337708D01*
X180162292Y-76440110D01*
X180287708Y-76512518D01*
X180329765Y-76523787D01*
X179630893Y-77222658D01*
X179713828Y-77282914D01*
X179924197Y-77390102D01*
X180148752Y-77463065D01*
X180148751Y-77463065D01*
X180381948Y-77500000D01*
X180618052Y-77500000D01*
X180851247Y-77463065D01*
X181075802Y-77390102D01*
X181286163Y-77282918D01*
X181286169Y-77282914D01*
X181369104Y-77222658D01*
X181369105Y-77222658D01*
X180670233Y-76523787D01*
X180712292Y-76512518D01*
X180837708Y-76440110D01*
X180940110Y-76337708D01*
X181012518Y-76212292D01*
X181023787Y-76170234D01*
X181722658Y-76869105D01*
X181722658Y-76869104D01*
X181782914Y-76786169D01*
X181782918Y-76786163D01*
X181890102Y-76575802D01*
X181963065Y-76351247D01*
X182000000Y-76118052D01*
X182000000Y-75881947D01*
X181999993Y-75881902D01*
X183499500Y-75881902D01*
X183499500Y-76118097D01*
X183536446Y-76351368D01*
X183609433Y-76575996D01*
X183716519Y-76786163D01*
X183716657Y-76786433D01*
X183855483Y-76977510D01*
X184022490Y-77144517D01*
X184213567Y-77283343D01*
X184312991Y-77334002D01*
X184424003Y-77390566D01*
X184424005Y-77390566D01*
X184424008Y-77390568D01*
X184544412Y-77429689D01*
X184648631Y-77463553D01*
X184881903Y-77500500D01*
X184881908Y-77500500D01*
X185118097Y-77500500D01*
X185351368Y-77463553D01*
X185352870Y-77463065D01*
X185575992Y-77390568D01*
X185786433Y-77283343D01*
X185977510Y-77144517D01*
X186144517Y-76977510D01*
X186283343Y-76786433D01*
X186390568Y-76575992D01*
X186463553Y-76351368D01*
X186469127Y-76316174D01*
X186500500Y-76118097D01*
X186500500Y-75881902D01*
X186463553Y-75648631D01*
X186390566Y-75424003D01*
X186283477Y-75213830D01*
X186283343Y-75213567D01*
X186144517Y-75022490D01*
X185977510Y-74855483D01*
X185786433Y-74716657D01*
X185575996Y-74609433D01*
X185351368Y-74536446D01*
X185118097Y-74499500D01*
X185118092Y-74499500D01*
X184881908Y-74499500D01*
X184881903Y-74499500D01*
X184648631Y-74536446D01*
X184424003Y-74609433D01*
X184213566Y-74716657D01*
X184130047Y-74777338D01*
X184022490Y-74855483D01*
X184022488Y-74855485D01*
X184022487Y-74855485D01*
X183855485Y-75022487D01*
X183855485Y-75022488D01*
X183855483Y-75022490D01*
X183855239Y-75022826D01*
X183716657Y-75213566D01*
X183609433Y-75424003D01*
X183536446Y-75648631D01*
X183499500Y-75881902D01*
X181999993Y-75881902D01*
X181963065Y-75648752D01*
X181890102Y-75424197D01*
X181782914Y-75213828D01*
X181722658Y-75130894D01*
X181722658Y-75130893D01*
X181023787Y-75829765D01*
X181012518Y-75787708D01*
X180940110Y-75662292D01*
X180837708Y-75559890D01*
X180712292Y-75487482D01*
X180670234Y-75476212D01*
X181369105Y-74777340D01*
X181369104Y-74777338D01*
X181286174Y-74717087D01*
X181075802Y-74609897D01*
X180851247Y-74536934D01*
X180851248Y-74536934D01*
X180618052Y-74500000D01*
X180381948Y-74500000D01*
X180148752Y-74536934D01*
X179924197Y-74609897D01*
X179713830Y-74717084D01*
X179630894Y-74777340D01*
X180329766Y-75476212D01*
X180287708Y-75487482D01*
X180162292Y-75559890D01*
X180059890Y-75662292D01*
X179987482Y-75787708D01*
X179976212Y-75829766D01*
X179277340Y-75130894D01*
X179217084Y-75213830D01*
X179109897Y-75424197D01*
X179036934Y-75648752D01*
X179000000Y-75881947D01*
X90603639Y-75881947D01*
X90642007Y-75862397D01*
X90765405Y-75799524D01*
X90924646Y-75683828D01*
X91063828Y-75544646D01*
X91179524Y-75385405D01*
X91268884Y-75210025D01*
X91329709Y-75022826D01*
X91329763Y-75022487D01*
X91360500Y-74828422D01*
X91360500Y-74631577D01*
X91329709Y-74437173D01*
X91268882Y-74249970D01*
X91179523Y-74074594D01*
X91063828Y-73915354D01*
X90924646Y-73776172D01*
X90845025Y-73718324D01*
X90765403Y-73660474D01*
X90588787Y-73570485D01*
X90537990Y-73522511D01*
X90521195Y-73454690D01*
X90543732Y-73388555D01*
X90588787Y-73349515D01*
X90765403Y-73259525D01*
X90765402Y-73259525D01*
X90765405Y-73259524D01*
X90924646Y-73143828D01*
X91063828Y-73004646D01*
X91179524Y-72845405D01*
X91268884Y-72670025D01*
X91329709Y-72482826D01*
X91360500Y-72288422D01*
X91360500Y-72091577D01*
X91329709Y-71897173D01*
X91268882Y-71709970D01*
X91179523Y-71534594D01*
X91063828Y-71375354D01*
X90924646Y-71236172D01*
X90845025Y-71178324D01*
X90765403Y-71120474D01*
X90588787Y-71030485D01*
X90537990Y-70982511D01*
X90521195Y-70914690D01*
X90543732Y-70848555D01*
X90588787Y-70809515D01*
X90765403Y-70719525D01*
X90765402Y-70719525D01*
X90765405Y-70719524D01*
X90924646Y-70603828D01*
X91063828Y-70464646D01*
X91179524Y-70305405D01*
X91268884Y-70130025D01*
X91329709Y-69942826D01*
X91343848Y-69853554D01*
X91360500Y-69748422D01*
X91360500Y-69551577D01*
X91335934Y-69396473D01*
X91333633Y-69381947D01*
X179000000Y-69381947D01*
X179000000Y-69618052D01*
X179036934Y-69851247D01*
X179109897Y-70075802D01*
X179217087Y-70286174D01*
X179277338Y-70369104D01*
X179277340Y-70369105D01*
X179976212Y-69670233D01*
X179987482Y-69712292D01*
X180059890Y-69837708D01*
X180162292Y-69940110D01*
X180287708Y-70012518D01*
X180329765Y-70023787D01*
X179630893Y-70722658D01*
X179713828Y-70782914D01*
X179924197Y-70890102D01*
X180148752Y-70963065D01*
X180148751Y-70963065D01*
X180381948Y-71000000D01*
X180618052Y-71000000D01*
X180851247Y-70963065D01*
X181075802Y-70890102D01*
X181286163Y-70782918D01*
X181286169Y-70782914D01*
X181369104Y-70722658D01*
X181369105Y-70722658D01*
X180670233Y-70023787D01*
X180712292Y-70012518D01*
X180837708Y-69940110D01*
X180940110Y-69837708D01*
X181012518Y-69712292D01*
X181023787Y-69670234D01*
X181722658Y-70369105D01*
X181722658Y-70369104D01*
X181782914Y-70286169D01*
X181782918Y-70286163D01*
X181890102Y-70075802D01*
X181963065Y-69851247D01*
X182000000Y-69618052D01*
X182000000Y-69381947D01*
X181999993Y-69381902D01*
X183499500Y-69381902D01*
X183499500Y-69618097D01*
X183536446Y-69851368D01*
X183609433Y-70075996D01*
X183716519Y-70286163D01*
X183716657Y-70286433D01*
X183855483Y-70477510D01*
X184022490Y-70644517D01*
X184213567Y-70783343D01*
X184312991Y-70834002D01*
X184424003Y-70890566D01*
X184424005Y-70890566D01*
X184424008Y-70890568D01*
X184498248Y-70914690D01*
X184648631Y-70963553D01*
X184881903Y-71000500D01*
X184881908Y-71000500D01*
X185118097Y-71000500D01*
X185351368Y-70963553D01*
X185425395Y-70939500D01*
X185575992Y-70890568D01*
X185786433Y-70783343D01*
X185977510Y-70644517D01*
X186144517Y-70477510D01*
X186283343Y-70286433D01*
X186390568Y-70075992D01*
X186463553Y-69851368D01*
X186479859Y-69748417D01*
X186500500Y-69618097D01*
X186500500Y-69381902D01*
X186463553Y-69148631D01*
X186390566Y-68924003D01*
X186283477Y-68713830D01*
X186283343Y-68713567D01*
X186144517Y-68522490D01*
X185977510Y-68355483D01*
X185786433Y-68216657D01*
X185785672Y-68216269D01*
X185575996Y-68109433D01*
X185351368Y-68036446D01*
X185118097Y-67999500D01*
X185118092Y-67999500D01*
X184881908Y-67999500D01*
X184881903Y-67999500D01*
X184648631Y-68036446D01*
X184424003Y-68109433D01*
X184213566Y-68216657D01*
X184166986Y-68250500D01*
X184022490Y-68355483D01*
X184022488Y-68355485D01*
X184022487Y-68355485D01*
X183855485Y-68522487D01*
X183855485Y-68522488D01*
X183855483Y-68522490D01*
X183813355Y-68580474D01*
X183716657Y-68713566D01*
X183609433Y-68924003D01*
X183536446Y-69148631D01*
X183499500Y-69381902D01*
X181999993Y-69381902D01*
X181963065Y-69148752D01*
X181890102Y-68924197D01*
X181782914Y-68713828D01*
X181722658Y-68630894D01*
X181722658Y-68630893D01*
X181023787Y-69329765D01*
X181012518Y-69287708D01*
X180940110Y-69162292D01*
X180837708Y-69059890D01*
X180712292Y-68987482D01*
X180670234Y-68976212D01*
X181369105Y-68277340D01*
X181369104Y-68277338D01*
X181286174Y-68217087D01*
X181075802Y-68109897D01*
X180851247Y-68036934D01*
X180851248Y-68036934D01*
X180618052Y-68000000D01*
X180381948Y-68000000D01*
X180148752Y-68036934D01*
X179924197Y-68109897D01*
X179713830Y-68217084D01*
X179630894Y-68277340D01*
X180329766Y-68976212D01*
X180287708Y-68987482D01*
X180162292Y-69059890D01*
X180059890Y-69162292D01*
X179987482Y-69287708D01*
X179976212Y-69329766D01*
X179277340Y-68630894D01*
X179217084Y-68713830D01*
X179109897Y-68924197D01*
X179036934Y-69148752D01*
X179000000Y-69381947D01*
X91333633Y-69381947D01*
X91332733Y-69376269D01*
X91329709Y-69357174D01*
X91268884Y-69169975D01*
X91268882Y-69169972D01*
X91268882Y-69169970D01*
X91179523Y-68994594D01*
X91174356Y-68987482D01*
X91063828Y-68835354D01*
X90924646Y-68696172D01*
X90834798Y-68630893D01*
X90765403Y-68580474D01*
X90588787Y-68490485D01*
X90537990Y-68442511D01*
X90521195Y-68374690D01*
X90543732Y-68308555D01*
X90588787Y-68269515D01*
X90765403Y-68179525D01*
X90765402Y-68179525D01*
X90765405Y-68179524D01*
X90924646Y-68063828D01*
X91063828Y-67924646D01*
X91179524Y-67765405D01*
X91268884Y-67590025D01*
X91329709Y-67402826D01*
X91335890Y-67363803D01*
X91360500Y-67208422D01*
X91360500Y-67011577D01*
X91329709Y-66817173D01*
X91268882Y-66629970D01*
X91179523Y-66454594D01*
X91063828Y-66295354D01*
X90924646Y-66156172D01*
X90873307Y-66118872D01*
X105027411Y-66118872D01*
X105027411Y-66381127D01*
X105037084Y-66454594D01*
X105061641Y-66641116D01*
X105126742Y-66884076D01*
X105129513Y-66894418D01*
X105129516Y-66894428D01*
X105229864Y-67136690D01*
X105229869Y-67136700D01*
X105360986Y-67363803D01*
X105520629Y-67571851D01*
X105520637Y-67571860D01*
X105706051Y-67757274D01*
X105706059Y-67757281D01*
X105914107Y-67916924D01*
X106141210Y-68048041D01*
X106141220Y-68048046D01*
X106383482Y-68148394D01*
X106383492Y-68148398D01*
X106636795Y-68216270D01*
X106896791Y-68250500D01*
X106896798Y-68250500D01*
X107159024Y-68250500D01*
X107159031Y-68250500D01*
X107419027Y-68216270D01*
X107672330Y-68148398D01*
X107914608Y-68048043D01*
X108141714Y-67916924D01*
X108349762Y-67757282D01*
X108349766Y-67757277D01*
X108349771Y-67757274D01*
X108535185Y-67571860D01*
X108535188Y-67571855D01*
X108535193Y-67571851D01*
X108694835Y-67363803D01*
X108825954Y-67136697D01*
X108926309Y-66894419D01*
X108994181Y-66641116D01*
X109028411Y-66381120D01*
X109028411Y-66118880D01*
X108994181Y-65858884D01*
X108926309Y-65605581D01*
X108918065Y-65585679D01*
X108825957Y-65363309D01*
X108825952Y-65363299D01*
X108694835Y-65136196D01*
X108535192Y-64928148D01*
X108535185Y-64928140D01*
X108349771Y-64742726D01*
X108349766Y-64742722D01*
X108349762Y-64742718D01*
X108292267Y-64698600D01*
X108170416Y-64605099D01*
X110885598Y-64605099D01*
X110885598Y-65179820D01*
X110916685Y-65376097D01*
X110978091Y-65565089D01*
X110978092Y-65565092D01*
X111061871Y-65729515D01*
X111068311Y-65742154D01*
X111185117Y-65902924D01*
X111325634Y-66043441D01*
X111486404Y-66160247D01*
X111573247Y-66204495D01*
X111663465Y-66250465D01*
X111663468Y-66250466D01*
X111757964Y-66281169D01*
X111852462Y-66311873D01*
X112048737Y-66342960D01*
X112048738Y-66342960D01*
X112247458Y-66342960D01*
X112247459Y-66342960D01*
X112443734Y-66311873D01*
X112632730Y-66250465D01*
X112809792Y-66160247D01*
X112970562Y-66043441D01*
X113111079Y-65902924D01*
X113227885Y-65742154D01*
X113307613Y-65585678D01*
X113355588Y-65534883D01*
X113423409Y-65518088D01*
X113489544Y-65540625D01*
X113528582Y-65585678D01*
X113608311Y-65742154D01*
X113725117Y-65902924D01*
X113865634Y-66043441D01*
X114026404Y-66160247D01*
X114113247Y-66204495D01*
X114203465Y-66250465D01*
X114203468Y-66250466D01*
X114297964Y-66281169D01*
X114392462Y-66311873D01*
X114588737Y-66342960D01*
X114588738Y-66342960D01*
X114787458Y-66342960D01*
X114787459Y-66342960D01*
X114983734Y-66311873D01*
X115172730Y-66250465D01*
X115349792Y-66160247D01*
X115510562Y-66043441D01*
X115651079Y-65902924D01*
X115767885Y-65742154D01*
X115847613Y-65585678D01*
X115895588Y-65534883D01*
X115963409Y-65518088D01*
X116029544Y-65540625D01*
X116068582Y-65585678D01*
X116148311Y-65742154D01*
X116265117Y-65902924D01*
X116405634Y-66043441D01*
X116566404Y-66160247D01*
X116653247Y-66204495D01*
X116743465Y-66250465D01*
X116743468Y-66250466D01*
X116837964Y-66281169D01*
X116932462Y-66311873D01*
X117128737Y-66342960D01*
X117128738Y-66342960D01*
X117327458Y-66342960D01*
X117327459Y-66342960D01*
X117523734Y-66311873D01*
X117712730Y-66250465D01*
X117889792Y-66160247D01*
X118050562Y-66043441D01*
X118191079Y-65902924D01*
X118307885Y-65742154D01*
X118387613Y-65585678D01*
X118435588Y-65534883D01*
X118503409Y-65518088D01*
X118569544Y-65540625D01*
X118608582Y-65585678D01*
X118688311Y-65742154D01*
X118805117Y-65902924D01*
X118945634Y-66043441D01*
X119106404Y-66160247D01*
X119193247Y-66204495D01*
X119283465Y-66250465D01*
X119283468Y-66250466D01*
X119377964Y-66281169D01*
X119472462Y-66311873D01*
X119668737Y-66342960D01*
X119668738Y-66342960D01*
X119867458Y-66342960D01*
X119867459Y-66342960D01*
X120063734Y-66311873D01*
X120252730Y-66250465D01*
X120429792Y-66160247D01*
X120590562Y-66043441D01*
X120731079Y-65902924D01*
X120847885Y-65742154D01*
X120927613Y-65585678D01*
X120975588Y-65534883D01*
X121043409Y-65518088D01*
X121109544Y-65540625D01*
X121148582Y-65585678D01*
X121228311Y-65742154D01*
X121345117Y-65902924D01*
X121485634Y-66043441D01*
X121646404Y-66160247D01*
X121733247Y-66204495D01*
X121823465Y-66250465D01*
X121823468Y-66250466D01*
X121917964Y-66281169D01*
X122012462Y-66311873D01*
X122208737Y-66342960D01*
X122208738Y-66342960D01*
X122407458Y-66342960D01*
X122407459Y-66342960D01*
X122603734Y-66311873D01*
X122792730Y-66250465D01*
X122969792Y-66160247D01*
X123130562Y-66043441D01*
X123271079Y-65902924D01*
X123387885Y-65742154D01*
X123467613Y-65585678D01*
X123515588Y-65534883D01*
X123583409Y-65518088D01*
X123649544Y-65540625D01*
X123688582Y-65585678D01*
X123768311Y-65742154D01*
X123885117Y-65902924D01*
X124025634Y-66043441D01*
X124186404Y-66160247D01*
X124273247Y-66204495D01*
X124363465Y-66250465D01*
X124363468Y-66250466D01*
X124457964Y-66281169D01*
X124552462Y-66311873D01*
X124748737Y-66342960D01*
X124748738Y-66342960D01*
X124947458Y-66342960D01*
X124947459Y-66342960D01*
X125143734Y-66311873D01*
X125332730Y-66250465D01*
X125509792Y-66160247D01*
X125670562Y-66043441D01*
X125811079Y-65902924D01*
X125927885Y-65742154D01*
X126007613Y-65585678D01*
X126055588Y-65534883D01*
X126123409Y-65518088D01*
X126189544Y-65540625D01*
X126228582Y-65585678D01*
X126308311Y-65742154D01*
X126425117Y-65902924D01*
X126565634Y-66043441D01*
X126726404Y-66160247D01*
X126813247Y-66204495D01*
X126903465Y-66250465D01*
X126903468Y-66250466D01*
X126997964Y-66281169D01*
X127092462Y-66311873D01*
X127288737Y-66342960D01*
X127288738Y-66342960D01*
X127487458Y-66342960D01*
X127487459Y-66342960D01*
X127683734Y-66311873D01*
X127872730Y-66250465D01*
X128049792Y-66160247D01*
X128210562Y-66043441D01*
X128351079Y-65902924D01*
X128467885Y-65742154D01*
X128547613Y-65585678D01*
X128595588Y-65534883D01*
X128663409Y-65518088D01*
X128729544Y-65540625D01*
X128768582Y-65585678D01*
X128848311Y-65742154D01*
X128965117Y-65902924D01*
X129105634Y-66043441D01*
X129266404Y-66160247D01*
X129353247Y-66204495D01*
X129443465Y-66250465D01*
X129443468Y-66250466D01*
X129537964Y-66281169D01*
X129632462Y-66311873D01*
X129828737Y-66342960D01*
X129828738Y-66342960D01*
X130027458Y-66342960D01*
X130027459Y-66342960D01*
X130223734Y-66311873D01*
X130412730Y-66250465D01*
X130589792Y-66160247D01*
X130750562Y-66043441D01*
X130891079Y-65902924D01*
X131007885Y-65742154D01*
X131087613Y-65585678D01*
X131135588Y-65534883D01*
X131203409Y-65518088D01*
X131269544Y-65540625D01*
X131308582Y-65585678D01*
X131388311Y-65742154D01*
X131505117Y-65902924D01*
X131645634Y-66043441D01*
X131806404Y-66160247D01*
X131893247Y-66204495D01*
X131983465Y-66250465D01*
X131983468Y-66250466D01*
X132077964Y-66281169D01*
X132172462Y-66311873D01*
X132368737Y-66342960D01*
X132368738Y-66342960D01*
X132567458Y-66342960D01*
X132567459Y-66342960D01*
X132763734Y-66311873D01*
X132952730Y-66250465D01*
X133129792Y-66160247D01*
X133290562Y-66043441D01*
X133431079Y-65902924D01*
X133547885Y-65742154D01*
X133627613Y-65585678D01*
X133675588Y-65534883D01*
X133743409Y-65518088D01*
X133809544Y-65540625D01*
X133848582Y-65585678D01*
X133928311Y-65742154D01*
X134045117Y-65902924D01*
X134185634Y-66043441D01*
X134346404Y-66160247D01*
X134433247Y-66204495D01*
X134523465Y-66250465D01*
X134523468Y-66250466D01*
X134617964Y-66281169D01*
X134712462Y-66311873D01*
X134908737Y-66342960D01*
X134908738Y-66342960D01*
X135107458Y-66342960D01*
X135107459Y-66342960D01*
X135303734Y-66311873D01*
X135492730Y-66250465D01*
X135669792Y-66160247D01*
X135830562Y-66043441D01*
X135971079Y-65902924D01*
X136087885Y-65742154D01*
X136167613Y-65585678D01*
X136215588Y-65534883D01*
X136283409Y-65518088D01*
X136349544Y-65540625D01*
X136388582Y-65585678D01*
X136468311Y-65742154D01*
X136585117Y-65902924D01*
X136725634Y-66043441D01*
X136886404Y-66160247D01*
X136973247Y-66204495D01*
X137063465Y-66250465D01*
X137063468Y-66250466D01*
X137157964Y-66281169D01*
X137252462Y-66311873D01*
X137448737Y-66342960D01*
X137448738Y-66342960D01*
X137647458Y-66342960D01*
X137647459Y-66342960D01*
X137843734Y-66311873D01*
X138032730Y-66250465D01*
X138209792Y-66160247D01*
X138370562Y-66043441D01*
X138511079Y-65902924D01*
X138627885Y-65742154D01*
X138707613Y-65585678D01*
X138755588Y-65534883D01*
X138823409Y-65518088D01*
X138889544Y-65540625D01*
X138928582Y-65585678D01*
X139008311Y-65742154D01*
X139125117Y-65902924D01*
X139265634Y-66043441D01*
X139426404Y-66160247D01*
X139513247Y-66204495D01*
X139603465Y-66250465D01*
X139603468Y-66250466D01*
X139697964Y-66281169D01*
X139792462Y-66311873D01*
X139988737Y-66342960D01*
X139988738Y-66342960D01*
X140187458Y-66342960D01*
X140187459Y-66342960D01*
X140383734Y-66311873D01*
X140572730Y-66250465D01*
X140749792Y-66160247D01*
X140910562Y-66043441D01*
X141051079Y-65902924D01*
X141167885Y-65742154D01*
X141247613Y-65585678D01*
X141295588Y-65534883D01*
X141363409Y-65518088D01*
X141429544Y-65540625D01*
X141468582Y-65585678D01*
X141548311Y-65742154D01*
X141665117Y-65902924D01*
X141805634Y-66043441D01*
X141966404Y-66160247D01*
X142053247Y-66204495D01*
X142143465Y-66250465D01*
X142143468Y-66250466D01*
X142237964Y-66281169D01*
X142332462Y-66311873D01*
X142528737Y-66342960D01*
X142528738Y-66342960D01*
X142727458Y-66342960D01*
X142727459Y-66342960D01*
X142923734Y-66311873D01*
X143112730Y-66250465D01*
X143289792Y-66160247D01*
X143450562Y-66043441D01*
X143591079Y-65902924D01*
X143707885Y-65742154D01*
X143787894Y-65585127D01*
X143835867Y-65534332D01*
X143903688Y-65517537D01*
X143969823Y-65540074D01*
X144008863Y-65585128D01*
X144088739Y-65741892D01*
X144205501Y-65902599D01*
X144205501Y-65902600D01*
X144345957Y-66043056D01*
X144506665Y-66159818D01*
X144683660Y-66250002D01*
X144872571Y-66311382D01*
X144918098Y-66318593D01*
X144918098Y-65208146D01*
X144922492Y-65212540D01*
X145013704Y-65265201D01*
X145115437Y-65292460D01*
X145220759Y-65292460D01*
X145322492Y-65265201D01*
X145413704Y-65212540D01*
X145418098Y-65208146D01*
X145418098Y-66318592D01*
X145463624Y-66311382D01*
X145652535Y-66250002D01*
X145829530Y-66159818D01*
X145990237Y-66043056D01*
X145990238Y-66043056D01*
X146130694Y-65902600D01*
X146130694Y-65902599D01*
X146247456Y-65741892D01*
X146327332Y-65585128D01*
X146375306Y-65534332D01*
X146443127Y-65517537D01*
X146509262Y-65540074D01*
X146548301Y-65585127D01*
X146628311Y-65742154D01*
X146745117Y-65902924D01*
X146885634Y-66043441D01*
X147046404Y-66160247D01*
X147133247Y-66204495D01*
X147223465Y-66250465D01*
X147223468Y-66250466D01*
X147317964Y-66281169D01*
X147412462Y-66311873D01*
X147608737Y-66342960D01*
X147608738Y-66342960D01*
X147807458Y-66342960D01*
X147807459Y-66342960D01*
X148003734Y-66311873D01*
X148192730Y-66250465D01*
X148369792Y-66160247D01*
X148426740Y-66118872D01*
X151027411Y-66118872D01*
X151027411Y-66381127D01*
X151037084Y-66454594D01*
X151061641Y-66641116D01*
X151126742Y-66884076D01*
X151129513Y-66894418D01*
X151129516Y-66894428D01*
X151229864Y-67136690D01*
X151229869Y-67136700D01*
X151360986Y-67363803D01*
X151520629Y-67571851D01*
X151520637Y-67571860D01*
X151706051Y-67757274D01*
X151706059Y-67757281D01*
X151914107Y-67916924D01*
X152141210Y-68048041D01*
X152141220Y-68048046D01*
X152383482Y-68148394D01*
X152383492Y-68148398D01*
X152636795Y-68216270D01*
X152896791Y-68250500D01*
X152896798Y-68250500D01*
X153159024Y-68250500D01*
X153159031Y-68250500D01*
X153419027Y-68216270D01*
X153672330Y-68148398D01*
X153914608Y-68048043D01*
X154141714Y-67916924D01*
X154349762Y-67757282D01*
X154349766Y-67757277D01*
X154349771Y-67757274D01*
X154535185Y-67571860D01*
X154535188Y-67571855D01*
X154535193Y-67571851D01*
X154694835Y-67363803D01*
X154825954Y-67136697D01*
X154926309Y-66894419D01*
X154994181Y-66641116D01*
X155028411Y-66381120D01*
X155028411Y-66118880D01*
X154994181Y-65858884D01*
X154926309Y-65605581D01*
X154918065Y-65585679D01*
X154825957Y-65363309D01*
X154825952Y-65363299D01*
X154694835Y-65136196D01*
X154535192Y-64928148D01*
X154535185Y-64928140D01*
X154349771Y-64742726D01*
X154349762Y-64742718D01*
X154141714Y-64583075D01*
X153914611Y-64451958D01*
X153914601Y-64451953D01*
X153672339Y-64351605D01*
X153672332Y-64351603D01*
X153672330Y-64351602D01*
X153419027Y-64283730D01*
X153361250Y-64276123D01*
X153159038Y-64249500D01*
X153159031Y-64249500D01*
X152896791Y-64249500D01*
X152896783Y-64249500D01*
X152686591Y-64277174D01*
X152636795Y-64283730D01*
X152383492Y-64351602D01*
X152383482Y-64351605D01*
X152141220Y-64451953D01*
X152141210Y-64451958D01*
X151914107Y-64583075D01*
X151706059Y-64742718D01*
X151520629Y-64928148D01*
X151360986Y-65136196D01*
X151229869Y-65363299D01*
X151229864Y-65363309D01*
X151129516Y-65605571D01*
X151129513Y-65605581D01*
X151085845Y-65768555D01*
X151061641Y-65858885D01*
X151027411Y-66118872D01*
X148426740Y-66118872D01*
X148530562Y-66043441D01*
X148671079Y-65902924D01*
X148787885Y-65742154D01*
X148878103Y-65565092D01*
X148939511Y-65376096D01*
X148970598Y-65179821D01*
X148970598Y-64605099D01*
X148939511Y-64408824D01*
X148878103Y-64219828D01*
X148878103Y-64219827D01*
X148788019Y-64043029D01*
X148787885Y-64042766D01*
X148671079Y-63881996D01*
X148530562Y-63741479D01*
X148369792Y-63624673D01*
X148353108Y-63616172D01*
X148192730Y-63534454D01*
X148192727Y-63534453D01*
X148003735Y-63473047D01*
X147905596Y-63457503D01*
X147807459Y-63441960D01*
X147608737Y-63441960D01*
X147543312Y-63452322D01*
X147412460Y-63473047D01*
X147223468Y-63534453D01*
X147223465Y-63534454D01*
X147046403Y-63624673D01*
X146885631Y-63741481D01*
X146745119Y-63881993D01*
X146628311Y-64042765D01*
X146548302Y-64199791D01*
X146500327Y-64250587D01*
X146432506Y-64267382D01*
X146366371Y-64244844D01*
X146327332Y-64199791D01*
X146247456Y-64043027D01*
X146130694Y-63882320D01*
X146130694Y-63882319D01*
X145990238Y-63741863D01*
X145829530Y-63625101D01*
X145652532Y-63534916D01*
X145652534Y-63534916D01*
X145463615Y-63473534D01*
X145418098Y-63466325D01*
X145418098Y-64576774D01*
X145413704Y-64572380D01*
X145322492Y-64519719D01*
X145220759Y-64492460D01*
X145115437Y-64492460D01*
X145013704Y-64519719D01*
X144922492Y-64572380D01*
X144918098Y-64576774D01*
X144918098Y-63466325D01*
X144918097Y-63466325D01*
X144872580Y-63473534D01*
X144683662Y-63534916D01*
X144506665Y-63625101D01*
X144345958Y-63741863D01*
X144345957Y-63741863D01*
X144205501Y-63882319D01*
X144205501Y-63882320D01*
X144088737Y-64043029D01*
X144008862Y-64199792D01*
X143960888Y-64250587D01*
X143893067Y-64267382D01*
X143826932Y-64244844D01*
X143787894Y-64199792D01*
X143707885Y-64042766D01*
X143591079Y-63881996D01*
X143450562Y-63741479D01*
X143289792Y-63624673D01*
X143273108Y-63616172D01*
X143112730Y-63534454D01*
X143112727Y-63534453D01*
X142923735Y-63473047D01*
X142825596Y-63457503D01*
X142727459Y-63441960D01*
X142528737Y-63441960D01*
X142463312Y-63452322D01*
X142332460Y-63473047D01*
X142143468Y-63534453D01*
X142143465Y-63534454D01*
X141966403Y-63624673D01*
X141805631Y-63741481D01*
X141665119Y-63881993D01*
X141548311Y-64042765D01*
X141468583Y-64199240D01*
X141420608Y-64250036D01*
X141352787Y-64266831D01*
X141286652Y-64244293D01*
X141247613Y-64199240D01*
X141191939Y-64089975D01*
X141167885Y-64042766D01*
X141051079Y-63881996D01*
X140910562Y-63741479D01*
X140749792Y-63624673D01*
X140733108Y-63616172D01*
X140572730Y-63534454D01*
X140572727Y-63534453D01*
X140383735Y-63473047D01*
X140285596Y-63457503D01*
X140187459Y-63441960D01*
X139988737Y-63441960D01*
X139923312Y-63452322D01*
X139792460Y-63473047D01*
X139603468Y-63534453D01*
X139603465Y-63534454D01*
X139426403Y-63624673D01*
X139265631Y-63741481D01*
X139125119Y-63881993D01*
X139008311Y-64042765D01*
X138928583Y-64199240D01*
X138880608Y-64250036D01*
X138812787Y-64266831D01*
X138746652Y-64244293D01*
X138707613Y-64199240D01*
X138651939Y-64089975D01*
X138627885Y-64042766D01*
X138511079Y-63881996D01*
X138370562Y-63741479D01*
X138209792Y-63624673D01*
X138193108Y-63616172D01*
X138032730Y-63534454D01*
X138032727Y-63534453D01*
X137843735Y-63473047D01*
X137745596Y-63457503D01*
X137647459Y-63441960D01*
X137448737Y-63441960D01*
X137383312Y-63452322D01*
X137252460Y-63473047D01*
X137063468Y-63534453D01*
X137063465Y-63534454D01*
X136886403Y-63624673D01*
X136725631Y-63741481D01*
X136585119Y-63881993D01*
X136468311Y-64042765D01*
X136388583Y-64199240D01*
X136340608Y-64250036D01*
X136272787Y-64266831D01*
X136206652Y-64244293D01*
X136167613Y-64199240D01*
X136111939Y-64089975D01*
X136087885Y-64042766D01*
X135971079Y-63881996D01*
X135830562Y-63741479D01*
X135669792Y-63624673D01*
X135653108Y-63616172D01*
X135492730Y-63534454D01*
X135492727Y-63534453D01*
X135303735Y-63473047D01*
X135205596Y-63457503D01*
X135107459Y-63441960D01*
X134908737Y-63441960D01*
X134843312Y-63452322D01*
X134712460Y-63473047D01*
X134523468Y-63534453D01*
X134523465Y-63534454D01*
X134346403Y-63624673D01*
X134185631Y-63741481D01*
X134045119Y-63881993D01*
X133928311Y-64042765D01*
X133848583Y-64199240D01*
X133800608Y-64250036D01*
X133732787Y-64266831D01*
X133666652Y-64244293D01*
X133627613Y-64199240D01*
X133571939Y-64089975D01*
X133547885Y-64042766D01*
X133431079Y-63881996D01*
X133290562Y-63741479D01*
X133129792Y-63624673D01*
X133113108Y-63616172D01*
X132952730Y-63534454D01*
X132952727Y-63534453D01*
X132763735Y-63473047D01*
X132665596Y-63457503D01*
X132567459Y-63441960D01*
X132368737Y-63441960D01*
X132303312Y-63452322D01*
X132172460Y-63473047D01*
X131983468Y-63534453D01*
X131983465Y-63534454D01*
X131806403Y-63624673D01*
X131645631Y-63741481D01*
X131505119Y-63881993D01*
X131388311Y-64042765D01*
X131308583Y-64199240D01*
X131260608Y-64250036D01*
X131192787Y-64266831D01*
X131126652Y-64244293D01*
X131087613Y-64199240D01*
X131031939Y-64089975D01*
X131007885Y-64042766D01*
X130891079Y-63881996D01*
X130750562Y-63741479D01*
X130589792Y-63624673D01*
X130573108Y-63616172D01*
X130412730Y-63534454D01*
X130412727Y-63534453D01*
X130223735Y-63473047D01*
X130125596Y-63457503D01*
X130027459Y-63441960D01*
X129828737Y-63441960D01*
X129763312Y-63452322D01*
X129632460Y-63473047D01*
X129443468Y-63534453D01*
X129443465Y-63534454D01*
X129266403Y-63624673D01*
X129105631Y-63741481D01*
X128965119Y-63881993D01*
X128848311Y-64042765D01*
X128768583Y-64199240D01*
X128720608Y-64250036D01*
X128652787Y-64266831D01*
X128586652Y-64244293D01*
X128547613Y-64199240D01*
X128491939Y-64089975D01*
X128467885Y-64042766D01*
X128351079Y-63881996D01*
X128210562Y-63741479D01*
X128049792Y-63624673D01*
X128033108Y-63616172D01*
X127872730Y-63534454D01*
X127872727Y-63534453D01*
X127683735Y-63473047D01*
X127585596Y-63457503D01*
X127487459Y-63441960D01*
X127288737Y-63441960D01*
X127223312Y-63452322D01*
X127092460Y-63473047D01*
X126903468Y-63534453D01*
X126903465Y-63534454D01*
X126726403Y-63624673D01*
X126565631Y-63741481D01*
X126425119Y-63881993D01*
X126308311Y-64042765D01*
X126228583Y-64199240D01*
X126180608Y-64250036D01*
X126112787Y-64266831D01*
X126046652Y-64244293D01*
X126007613Y-64199240D01*
X125951939Y-64089975D01*
X125927885Y-64042766D01*
X125811079Y-63881996D01*
X125670562Y-63741479D01*
X125509792Y-63624673D01*
X125493108Y-63616172D01*
X125332730Y-63534454D01*
X125332727Y-63534453D01*
X125143735Y-63473047D01*
X125045596Y-63457503D01*
X124947459Y-63441960D01*
X124748737Y-63441960D01*
X124683312Y-63452322D01*
X124552460Y-63473047D01*
X124363468Y-63534453D01*
X124363465Y-63534454D01*
X124186403Y-63624673D01*
X124025631Y-63741481D01*
X123885119Y-63881993D01*
X123768311Y-64042765D01*
X123688583Y-64199240D01*
X123640608Y-64250036D01*
X123572787Y-64266831D01*
X123506652Y-64244293D01*
X123467613Y-64199240D01*
X123411939Y-64089975D01*
X123387885Y-64042766D01*
X123271079Y-63881996D01*
X123130562Y-63741479D01*
X122969792Y-63624673D01*
X122953108Y-63616172D01*
X122792730Y-63534454D01*
X122792727Y-63534453D01*
X122603735Y-63473047D01*
X122505596Y-63457503D01*
X122407459Y-63441960D01*
X122208737Y-63441960D01*
X122143312Y-63452322D01*
X122012460Y-63473047D01*
X121823468Y-63534453D01*
X121823465Y-63534454D01*
X121646403Y-63624673D01*
X121485631Y-63741481D01*
X121345119Y-63881993D01*
X121228311Y-64042765D01*
X121148583Y-64199240D01*
X121100608Y-64250036D01*
X121032787Y-64266831D01*
X120966652Y-64244293D01*
X120927613Y-64199240D01*
X120871939Y-64089975D01*
X120847885Y-64042766D01*
X120731079Y-63881996D01*
X120590562Y-63741479D01*
X120429792Y-63624673D01*
X120413108Y-63616172D01*
X120252730Y-63534454D01*
X120252727Y-63534453D01*
X120063735Y-63473047D01*
X119965596Y-63457503D01*
X119867459Y-63441960D01*
X119668737Y-63441960D01*
X119603312Y-63452322D01*
X119472460Y-63473047D01*
X119283468Y-63534453D01*
X119283465Y-63534454D01*
X119106403Y-63624673D01*
X118945631Y-63741481D01*
X118805119Y-63881993D01*
X118688311Y-64042765D01*
X118608583Y-64199240D01*
X118560608Y-64250036D01*
X118492787Y-64266831D01*
X118426652Y-64244293D01*
X118387613Y-64199240D01*
X118331939Y-64089975D01*
X118307885Y-64042766D01*
X118191079Y-63881996D01*
X118050562Y-63741479D01*
X117889792Y-63624673D01*
X117873108Y-63616172D01*
X117712730Y-63534454D01*
X117712727Y-63534453D01*
X117523735Y-63473047D01*
X117425596Y-63457503D01*
X117327459Y-63441960D01*
X117128737Y-63441960D01*
X117063312Y-63452322D01*
X116932460Y-63473047D01*
X116743468Y-63534453D01*
X116743465Y-63534454D01*
X116566403Y-63624673D01*
X116405631Y-63741481D01*
X116265119Y-63881993D01*
X116148311Y-64042765D01*
X116068583Y-64199240D01*
X116020608Y-64250036D01*
X115952787Y-64266831D01*
X115886652Y-64244293D01*
X115847613Y-64199240D01*
X115791939Y-64089975D01*
X115767885Y-64042766D01*
X115651079Y-63881996D01*
X115510562Y-63741479D01*
X115349792Y-63624673D01*
X115333108Y-63616172D01*
X115172730Y-63534454D01*
X115172727Y-63534453D01*
X114983735Y-63473047D01*
X114885596Y-63457503D01*
X114787459Y-63441960D01*
X114588737Y-63441960D01*
X114523312Y-63452322D01*
X114392460Y-63473047D01*
X114203468Y-63534453D01*
X114203465Y-63534454D01*
X114026403Y-63624673D01*
X113865631Y-63741481D01*
X113725119Y-63881993D01*
X113608311Y-64042765D01*
X113528583Y-64199240D01*
X113480608Y-64250036D01*
X113412787Y-64266831D01*
X113346652Y-64244293D01*
X113307613Y-64199240D01*
X113251939Y-64089975D01*
X113227885Y-64042766D01*
X113111079Y-63881996D01*
X112970562Y-63741479D01*
X112809792Y-63624673D01*
X112793108Y-63616172D01*
X112632730Y-63534454D01*
X112632727Y-63534453D01*
X112443735Y-63473047D01*
X112345596Y-63457503D01*
X112247459Y-63441960D01*
X112048737Y-63441960D01*
X111983312Y-63452322D01*
X111852460Y-63473047D01*
X111663468Y-63534453D01*
X111663465Y-63534454D01*
X111486403Y-63624673D01*
X111325631Y-63741481D01*
X111185119Y-63881993D01*
X111068311Y-64042765D01*
X110978092Y-64219827D01*
X110978091Y-64219830D01*
X110916685Y-64408822D01*
X110885598Y-64605099D01*
X108170416Y-64605099D01*
X108141714Y-64583075D01*
X107914611Y-64451958D01*
X107914601Y-64451953D01*
X107672339Y-64351605D01*
X107672332Y-64351603D01*
X107672330Y-64351602D01*
X107419027Y-64283730D01*
X107361250Y-64276123D01*
X107159038Y-64249500D01*
X107159031Y-64249500D01*
X106896791Y-64249500D01*
X106896783Y-64249500D01*
X106686591Y-64277174D01*
X106636795Y-64283730D01*
X106383492Y-64351602D01*
X106383482Y-64351605D01*
X106141220Y-64451953D01*
X106141210Y-64451958D01*
X105914107Y-64583075D01*
X105706059Y-64742718D01*
X105520629Y-64928148D01*
X105360986Y-65136196D01*
X105229869Y-65363299D01*
X105229864Y-65363309D01*
X105129516Y-65605571D01*
X105129513Y-65605581D01*
X105085845Y-65768555D01*
X105061641Y-65858885D01*
X105027411Y-66118872D01*
X90873307Y-66118872D01*
X90845025Y-66098324D01*
X90765403Y-66040474D01*
X90588787Y-65950485D01*
X90537990Y-65902511D01*
X90521195Y-65834690D01*
X90543732Y-65768555D01*
X90588787Y-65729515D01*
X90765403Y-65639525D01*
X90765402Y-65639525D01*
X90765405Y-65639524D01*
X90924646Y-65523828D01*
X91063828Y-65384646D01*
X91179524Y-65225405D01*
X91268884Y-65050025D01*
X91329709Y-64862826D01*
X91348731Y-64742726D01*
X91360500Y-64668422D01*
X91360500Y-64471577D01*
X91329709Y-64277173D01*
X91268882Y-64089970D01*
X91179523Y-63914594D01*
X91063828Y-63755354D01*
X90924646Y-63616172D01*
X90765405Y-63500476D01*
X90590025Y-63411116D01*
X90590024Y-63411115D01*
X90588235Y-63410204D01*
X90537439Y-63362230D01*
X90520644Y-63294409D01*
X90543181Y-63228274D01*
X90588236Y-63189234D01*
X90765141Y-63099097D01*
X90924321Y-62983444D01*
X91063444Y-62844321D01*
X91179095Y-62685143D01*
X91268418Y-62509837D01*
X91329218Y-62322716D01*
X91335984Y-62280000D01*
X89675686Y-62280000D01*
X89680080Y-62275606D01*
X89732741Y-62184394D01*
X89760000Y-62082661D01*
X89760000Y-61977339D01*
X89732741Y-61875606D01*
X89680080Y-61784394D01*
X89675686Y-61780000D01*
X91335984Y-61780000D01*
X91329218Y-61737283D01*
X91268418Y-61550162D01*
X91179095Y-61374856D01*
X91063444Y-61215678D01*
X90924321Y-61076555D01*
X90765143Y-60960904D01*
X90588235Y-60870765D01*
X90537439Y-60822790D01*
X90520644Y-60754969D01*
X90543181Y-60688835D01*
X90588236Y-60649795D01*
X90590022Y-60648884D01*
X90590025Y-60648884D01*
X90765405Y-60559524D01*
X90924646Y-60443828D01*
X91063828Y-60304646D01*
X91179524Y-60145405D01*
X91268884Y-59970025D01*
X91329709Y-59782826D01*
X91360500Y-59588422D01*
X91360500Y-59391577D01*
X91329709Y-59197173D01*
X91268882Y-59009970D01*
X91179523Y-58834594D01*
X91063828Y-58675354D01*
X90924646Y-58536172D01*
X90765405Y-58420476D01*
X90590029Y-58331117D01*
X90402826Y-58270290D01*
X90208422Y-58239500D01*
X90208417Y-58239500D01*
X88511583Y-58239500D01*
X88511578Y-58239500D01*
X88317173Y-58270290D01*
X88129970Y-58331117D01*
X87954594Y-58420476D01*
X87863741Y-58486485D01*
X87795354Y-58536172D01*
X87795352Y-58536174D01*
X87795351Y-58536174D01*
X87656174Y-58675351D01*
X87656174Y-58675352D01*
X87656172Y-58675354D01*
X87606485Y-58743741D01*
X87540476Y-58834594D01*
X87451117Y-59009970D01*
X87390290Y-59197173D01*
X87359500Y-59391577D01*
X82000500Y-59391577D01*
X82000500Y-55393713D01*
X179149500Y-55393713D01*
X179149500Y-55606286D01*
X179182753Y-55816239D01*
X179248444Y-56018414D01*
X179344951Y-56207820D01*
X179469890Y-56379786D01*
X179620213Y-56530109D01*
X179792182Y-56655050D01*
X179800946Y-56659516D01*
X179851742Y-56707491D01*
X179868536Y-56775312D01*
X179845998Y-56841447D01*
X179800946Y-56880484D01*
X179792182Y-56884949D01*
X179620213Y-57009890D01*
X179469890Y-57160213D01*
X179344951Y-57332179D01*
X179248444Y-57521585D01*
X179182753Y-57723760D01*
X179149500Y-57933713D01*
X179149500Y-58146287D01*
X179182754Y-58356243D01*
X179241217Y-58536174D01*
X179248444Y-58558414D01*
X179344951Y-58747820D01*
X179469890Y-58919786D01*
X179620213Y-59070109D01*
X179792179Y-59195048D01*
X179792181Y-59195049D01*
X179792184Y-59195051D01*
X179981588Y-59291557D01*
X180183757Y-59357246D01*
X180393713Y-59390500D01*
X180393714Y-59390500D01*
X180606286Y-59390500D01*
X180606287Y-59390500D01*
X180816243Y-59357246D01*
X181018412Y-59291557D01*
X181207816Y-59195051D01*
X181229789Y-59179086D01*
X181379786Y-59070109D01*
X181379788Y-59070106D01*
X181379792Y-59070104D01*
X181530104Y-58919792D01*
X181530106Y-58919788D01*
X181530109Y-58919786D01*
X181655048Y-58747820D01*
X181655047Y-58747820D01*
X181655051Y-58747816D01*
X181751557Y-58558412D01*
X181817246Y-58356243D01*
X181850500Y-58146287D01*
X181850500Y-57933713D01*
X181817246Y-57723757D01*
X181751557Y-57521588D01*
X181655051Y-57332184D01*
X181655049Y-57332181D01*
X181655048Y-57332179D01*
X181530109Y-57160213D01*
X181379786Y-57009890D01*
X181207820Y-56884951D01*
X181207115Y-56884591D01*
X181199054Y-56880485D01*
X181148259Y-56832512D01*
X181131463Y-56764692D01*
X181153999Y-56698556D01*
X181199054Y-56659515D01*
X181207816Y-56655051D01*
X181229789Y-56639086D01*
X181379786Y-56530109D01*
X181379788Y-56530106D01*
X181379792Y-56530104D01*
X181530104Y-56379792D01*
X181530106Y-56379788D01*
X181530109Y-56379786D01*
X181655048Y-56207820D01*
X181655047Y-56207820D01*
X181655051Y-56207816D01*
X181751557Y-56018412D01*
X181817246Y-55816243D01*
X181850500Y-55606287D01*
X181850500Y-55393713D01*
X181817246Y-55183757D01*
X181751557Y-54981588D01*
X181655051Y-54792184D01*
X181655049Y-54792181D01*
X181655048Y-54792179D01*
X181530109Y-54620213D01*
X181416181Y-54506285D01*
X181382696Y-54444962D01*
X181387680Y-54375270D01*
X181429552Y-54319337D01*
X181460529Y-54302422D01*
X181592086Y-54253354D01*
X181592093Y-54253350D01*
X181707187Y-54167190D01*
X181707190Y-54167187D01*
X181793350Y-54052093D01*
X181793354Y-54052086D01*
X181843596Y-53917379D01*
X181843598Y-53917372D01*
X181849999Y-53857844D01*
X181850000Y-53857827D01*
X181850000Y-53210000D01*
X180933012Y-53210000D01*
X180965925Y-53152993D01*
X181000000Y-53025826D01*
X181000000Y-52894174D01*
X180965925Y-52767007D01*
X180933012Y-52710000D01*
X181850000Y-52710000D01*
X181850000Y-52062172D01*
X181849999Y-52062155D01*
X181843598Y-52002627D01*
X181843596Y-52002620D01*
X181793354Y-51867913D01*
X181793350Y-51867906D01*
X181707190Y-51752812D01*
X181707187Y-51752809D01*
X181592093Y-51666649D01*
X181592086Y-51666645D01*
X181457379Y-51616403D01*
X181457372Y-51616401D01*
X181397844Y-51610000D01*
X180750000Y-51610000D01*
X180750000Y-52526988D01*
X180692993Y-52494075D01*
X180565826Y-52460000D01*
X180434174Y-52460000D01*
X180307007Y-52494075D01*
X180250000Y-52526988D01*
X180250000Y-51610000D01*
X179602155Y-51610000D01*
X179542627Y-51616401D01*
X179542620Y-51616403D01*
X179407913Y-51666645D01*
X179407906Y-51666649D01*
X179292812Y-51752809D01*
X179292809Y-51752812D01*
X179206649Y-51867906D01*
X179206645Y-51867913D01*
X179156403Y-52002620D01*
X179156401Y-52002627D01*
X179150000Y-52062155D01*
X179150000Y-52710000D01*
X180066988Y-52710000D01*
X180034075Y-52767007D01*
X180000000Y-52894174D01*
X180000000Y-53025826D01*
X180034075Y-53152993D01*
X180066988Y-53210000D01*
X179150000Y-53210000D01*
X179150000Y-53857844D01*
X179156401Y-53917372D01*
X179156403Y-53917379D01*
X179206645Y-54052086D01*
X179206649Y-54052093D01*
X179292809Y-54167187D01*
X179292812Y-54167190D01*
X179407906Y-54253350D01*
X179407913Y-54253354D01*
X179539470Y-54302422D01*
X179595404Y-54344293D01*
X179619821Y-54409758D01*
X179604969Y-54478031D01*
X179583819Y-54506285D01*
X179469889Y-54620215D01*
X179344951Y-54792179D01*
X179248444Y-54981585D01*
X179182753Y-55183760D01*
X179149500Y-55393713D01*
X82000500Y-55393713D01*
X82000500Y-49124500D01*
X82020185Y-49057461D01*
X82072989Y-49011706D01*
X82124500Y-49000500D01*
X189875499Y-49000500D01*
X189942538Y-49020185D01*
G37*
%TD.AperFunction*%
%TD*%
M02*
