%TF.GenerationSoftware,KiCad,Pcbnew,10.0.3*%
%TF.CreationDate,2026-05-31T14:48:56+03:00*%
%TF.ProjectId,maratui,6d617261-7475-4692-9e6b-696361645f70,rev?*%
%TF.SameCoordinates,Original*%
%TF.FileFunction,Soldermask,Top*%
%TF.FilePolarity,Negative*%
%FSLAX46Y46*%
G04 Gerber Fmt 4.6, Leading zero omitted, Abs format (unit mm)*
G04 Created by KiCad (PCBNEW 10.0.3) date 2026-05-31 14:48:56*
%MOMM*%
%LPD*%
G01*
G04 APERTURE LIST*
%ADD10R,1.700000X1.700000*%
%ADD11C,1.700000*%
%ADD12R,2.600000X2.600000*%
%ADD13C,2.600000*%
%ADD14O,3.000000X1.500000*%
%ADD15O,1.524000X1.900000*%
%ADD16C,2.000000*%
G04 APERTURE END LIST*
D10*
%TO.C,J2*%
X180500000Y-52960000D03*
D11*
X180500000Y-55500000D03*
X180500000Y-58040000D03*
%TD*%
D12*
%TO.C,J1*%
X182300000Y-92000000D03*
D13*
X182300000Y-98000000D03*
X187000000Y-95000000D03*
%TD*%
D14*
%TO.C,U1*%
X89360000Y-59490000D03*
X89360000Y-62030000D03*
X89360000Y-64570000D03*
X89360000Y-67110000D03*
X89360000Y-69650000D03*
X89360000Y-72190000D03*
X89360000Y-74730000D03*
X89360000Y-77270000D03*
X89360000Y-79810000D03*
X89360000Y-82350000D03*
X89360000Y-84890000D03*
X89360000Y-87430000D03*
X89360000Y-89970000D03*
X89360000Y-92510000D03*
%TD*%
D15*
%TO.C,U2*%
X147708098Y-90292460D03*
X145168098Y-90292460D03*
X142628098Y-90292460D03*
X140088098Y-90292460D03*
X137548098Y-90292460D03*
X135008098Y-90292460D03*
X132468098Y-90292460D03*
X129928098Y-90292460D03*
X127388098Y-90292460D03*
X124848098Y-90292460D03*
X122308098Y-90292460D03*
X119768098Y-90292460D03*
X117228098Y-90292460D03*
X114688098Y-90292460D03*
X112148098Y-90292460D03*
X147708098Y-64892460D03*
X145168098Y-64892460D03*
X142628098Y-64892460D03*
X140088098Y-64892460D03*
X137548098Y-64892460D03*
X135008098Y-64892460D03*
X132468098Y-64892460D03*
X129928098Y-64892460D03*
X127388098Y-64892460D03*
X124848098Y-64892460D03*
X122308098Y-64892460D03*
X119768098Y-64892460D03*
X117228098Y-64892460D03*
X114688098Y-64892460D03*
X112148098Y-64892460D03*
%TD*%
D16*
%TO.C,SW1*%
X185000000Y-69500000D03*
X185000000Y-76000000D03*
X180500000Y-69500000D03*
X180500000Y-76000000D03*
%TD*%
M02*
