%TF.GenerationSoftware,KiCad,Pcbnew,10.0.3*%
%TF.CreationDate,2026-05-31T14:48:56+03:00*%
%TF.ProjectId,maratui,6d617261-7475-4692-9e6b-696361645f70,rev?*%
%TF.SameCoordinates,Original*%
%TF.FileFunction,Legend,Top*%
%TF.FilePolarity,Positive*%
%FSLAX46Y46*%
G04 Gerber Fmt 4.6, Leading zero omitted, Abs format (unit mm)*
G04 Created by KiCad (PCBNEW 10.0.3) date 2026-05-31 14:48:56*
%MOMM*%
%LPD*%
G01*
G04 APERTURE LIST*
%ADD10C,0.500000*%
%ADD11C,0.100000*%
%ADD12C,0.125000*%
%ADD13C,0.150000*%
%ADD14C,0.120000*%
%ADD15C,0.200000*%
G04 APERTURE END LIST*
D10*
X105500000Y-75000000D02*
X105500000Y-71500000D01*
X105500000Y-76500000D02*
X109500000Y-76500000D01*
X105500000Y-78000000D02*
X105500000Y-76500000D01*
X105500000Y-79500000D02*
X109500000Y-79500000D01*
X105500000Y-81000000D02*
X105500000Y-79500000D01*
D11*
X105500000Y-84000000D02*
X105500000Y-82500000D01*
D10*
X105500000Y-84000000D02*
X105500000Y-82500000D01*
X109500000Y-75000000D02*
X105500000Y-75000000D01*
X109500000Y-76500000D02*
X109500000Y-75000000D01*
X109500000Y-78000000D02*
X105500000Y-78000000D01*
X109500000Y-79500000D02*
X109500000Y-78000000D01*
X109500000Y-81000000D02*
X105500000Y-81000000D01*
X109500000Y-82500000D02*
X105500000Y-82500000D01*
X109500000Y-82500000D02*
X109500000Y-81000000D01*
X109500000Y-84000000D02*
X105500000Y-84000000D01*
D11*
X92627693Y-61420038D02*
X92532455Y-61372419D01*
X92532455Y-61372419D02*
X92389598Y-61372419D01*
X92389598Y-61372419D02*
X92246741Y-61420038D01*
X92246741Y-61420038D02*
X92151503Y-61515276D01*
X92151503Y-61515276D02*
X92103884Y-61610514D01*
X92103884Y-61610514D02*
X92056265Y-61800990D01*
X92056265Y-61800990D02*
X92056265Y-61943847D01*
X92056265Y-61943847D02*
X92103884Y-62134323D01*
X92103884Y-62134323D02*
X92151503Y-62229561D01*
X92151503Y-62229561D02*
X92246741Y-62324800D01*
X92246741Y-62324800D02*
X92389598Y-62372419D01*
X92389598Y-62372419D02*
X92484836Y-62372419D01*
X92484836Y-62372419D02*
X92627693Y-62324800D01*
X92627693Y-62324800D02*
X92675312Y-62277180D01*
X92675312Y-62277180D02*
X92675312Y-61943847D01*
X92675312Y-61943847D02*
X92484836Y-61943847D01*
X93103884Y-62372419D02*
X93103884Y-61372419D01*
X93103884Y-61372419D02*
X93675312Y-62372419D01*
X93675312Y-62372419D02*
X93675312Y-61372419D01*
X94151503Y-62372419D02*
X94151503Y-61372419D01*
X94151503Y-61372419D02*
X94389598Y-61372419D01*
X94389598Y-61372419D02*
X94532455Y-61420038D01*
X94532455Y-61420038D02*
X94627693Y-61515276D01*
X94627693Y-61515276D02*
X94675312Y-61610514D01*
X94675312Y-61610514D02*
X94722931Y-61800990D01*
X94722931Y-61800990D02*
X94722931Y-61943847D01*
X94722931Y-61943847D02*
X94675312Y-62134323D01*
X94675312Y-62134323D02*
X94627693Y-62229561D01*
X94627693Y-62229561D02*
X94532455Y-62324800D01*
X94532455Y-62324800D02*
X94389598Y-62372419D01*
X94389598Y-62372419D02*
X94151503Y-62372419D01*
X92675312Y-64847180D02*
X92627693Y-64894800D01*
X92627693Y-64894800D02*
X92484836Y-64942419D01*
X92484836Y-64942419D02*
X92389598Y-64942419D01*
X92389598Y-64942419D02*
X92246741Y-64894800D01*
X92246741Y-64894800D02*
X92151503Y-64799561D01*
X92151503Y-64799561D02*
X92103884Y-64704323D01*
X92103884Y-64704323D02*
X92056265Y-64513847D01*
X92056265Y-64513847D02*
X92056265Y-64370990D01*
X92056265Y-64370990D02*
X92103884Y-64180514D01*
X92103884Y-64180514D02*
X92151503Y-64085276D01*
X92151503Y-64085276D02*
X92246741Y-63990038D01*
X92246741Y-63990038D02*
X92389598Y-63942419D01*
X92389598Y-63942419D02*
X92484836Y-63942419D01*
X92484836Y-63942419D02*
X92627693Y-63990038D01*
X92627693Y-63990038D02*
X92675312Y-64037657D01*
X93056265Y-64894800D02*
X93199122Y-64942419D01*
X93199122Y-64942419D02*
X93437217Y-64942419D01*
X93437217Y-64942419D02*
X93532455Y-64894800D01*
X93532455Y-64894800D02*
X93580074Y-64847180D01*
X93580074Y-64847180D02*
X93627693Y-64751942D01*
X93627693Y-64751942D02*
X93627693Y-64656704D01*
X93627693Y-64656704D02*
X93580074Y-64561466D01*
X93580074Y-64561466D02*
X93532455Y-64513847D01*
X93532455Y-64513847D02*
X93437217Y-64466228D01*
X93437217Y-64466228D02*
X93246741Y-64418609D01*
X93246741Y-64418609D02*
X93151503Y-64370990D01*
X93151503Y-64370990D02*
X93103884Y-64323371D01*
X93103884Y-64323371D02*
X93056265Y-64228133D01*
X93056265Y-64228133D02*
X93056265Y-64132895D01*
X93056265Y-64132895D02*
X93103884Y-64037657D01*
X93103884Y-64037657D02*
X93151503Y-63990038D01*
X93151503Y-63990038D02*
X93246741Y-63942419D01*
X93246741Y-63942419D02*
X93484836Y-63942419D01*
X93484836Y-63942419D02*
X93627693Y-63990038D01*
X92675312Y-67482419D02*
X92341979Y-67006228D01*
X92103884Y-67482419D02*
X92103884Y-66482419D01*
X92103884Y-66482419D02*
X92484836Y-66482419D01*
X92484836Y-66482419D02*
X92580074Y-66530038D01*
X92580074Y-66530038D02*
X92627693Y-66577657D01*
X92627693Y-66577657D02*
X92675312Y-66672895D01*
X92675312Y-66672895D02*
X92675312Y-66815752D01*
X92675312Y-66815752D02*
X92627693Y-66910990D01*
X92627693Y-66910990D02*
X92580074Y-66958609D01*
X92580074Y-66958609D02*
X92484836Y-67006228D01*
X92484836Y-67006228D02*
X92103884Y-67006228D01*
X93056265Y-67434800D02*
X93199122Y-67482419D01*
X93199122Y-67482419D02*
X93437217Y-67482419D01*
X93437217Y-67482419D02*
X93532455Y-67434800D01*
X93532455Y-67434800D02*
X93580074Y-67387180D01*
X93580074Y-67387180D02*
X93627693Y-67291942D01*
X93627693Y-67291942D02*
X93627693Y-67196704D01*
X93627693Y-67196704D02*
X93580074Y-67101466D01*
X93580074Y-67101466D02*
X93532455Y-67053847D01*
X93532455Y-67053847D02*
X93437217Y-67006228D01*
X93437217Y-67006228D02*
X93246741Y-66958609D01*
X93246741Y-66958609D02*
X93151503Y-66910990D01*
X93151503Y-66910990D02*
X93103884Y-66863371D01*
X93103884Y-66863371D02*
X93056265Y-66768133D01*
X93056265Y-66768133D02*
X93056265Y-66672895D01*
X93056265Y-66672895D02*
X93103884Y-66577657D01*
X93103884Y-66577657D02*
X93151503Y-66530038D01*
X93151503Y-66530038D02*
X93246741Y-66482419D01*
X93246741Y-66482419D02*
X93484836Y-66482419D01*
X93484836Y-66482419D02*
X93627693Y-66530038D01*
X93913408Y-66482419D02*
X94484836Y-66482419D01*
X94199122Y-67482419D02*
X94199122Y-66482419D01*
X92103884Y-69922419D02*
X92103884Y-68922419D01*
X92103884Y-68922419D02*
X92341979Y-68922419D01*
X92341979Y-68922419D02*
X92484836Y-68970038D01*
X92484836Y-68970038D02*
X92580074Y-69065276D01*
X92580074Y-69065276D02*
X92627693Y-69160514D01*
X92627693Y-69160514D02*
X92675312Y-69350990D01*
X92675312Y-69350990D02*
X92675312Y-69493847D01*
X92675312Y-69493847D02*
X92627693Y-69684323D01*
X92627693Y-69684323D02*
X92580074Y-69779561D01*
X92580074Y-69779561D02*
X92484836Y-69874800D01*
X92484836Y-69874800D02*
X92341979Y-69922419D01*
X92341979Y-69922419D02*
X92103884Y-69922419D01*
X93675312Y-69827180D02*
X93627693Y-69874800D01*
X93627693Y-69874800D02*
X93484836Y-69922419D01*
X93484836Y-69922419D02*
X93389598Y-69922419D01*
X93389598Y-69922419D02*
X93246741Y-69874800D01*
X93246741Y-69874800D02*
X93151503Y-69779561D01*
X93151503Y-69779561D02*
X93103884Y-69684323D01*
X93103884Y-69684323D02*
X93056265Y-69493847D01*
X93056265Y-69493847D02*
X93056265Y-69350990D01*
X93056265Y-69350990D02*
X93103884Y-69160514D01*
X93103884Y-69160514D02*
X93151503Y-69065276D01*
X93151503Y-69065276D02*
X93246741Y-68970038D01*
X93246741Y-68970038D02*
X93389598Y-68922419D01*
X93389598Y-68922419D02*
X93484836Y-68922419D01*
X93484836Y-68922419D02*
X93627693Y-68970038D01*
X93627693Y-68970038D02*
X93675312Y-69017657D01*
X92103884Y-72572419D02*
X92103884Y-71572419D01*
X92103884Y-71572419D02*
X92437217Y-72286704D01*
X92437217Y-72286704D02*
X92770550Y-71572419D01*
X92770550Y-71572419D02*
X92770550Y-72572419D01*
X93437217Y-71572419D02*
X93627693Y-71572419D01*
X93627693Y-71572419D02*
X93722931Y-71620038D01*
X93722931Y-71620038D02*
X93818169Y-71715276D01*
X93818169Y-71715276D02*
X93865788Y-71905752D01*
X93865788Y-71905752D02*
X93865788Y-72239085D01*
X93865788Y-72239085D02*
X93818169Y-72429561D01*
X93818169Y-72429561D02*
X93722931Y-72524800D01*
X93722931Y-72524800D02*
X93627693Y-72572419D01*
X93627693Y-72572419D02*
X93437217Y-72572419D01*
X93437217Y-72572419D02*
X93341979Y-72524800D01*
X93341979Y-72524800D02*
X93246741Y-72429561D01*
X93246741Y-72429561D02*
X93199122Y-72239085D01*
X93199122Y-72239085D02*
X93199122Y-71905752D01*
X93199122Y-71905752D02*
X93246741Y-71715276D01*
X93246741Y-71715276D02*
X93341979Y-71620038D01*
X93341979Y-71620038D02*
X93437217Y-71572419D01*
X94246741Y-72524800D02*
X94389598Y-72572419D01*
X94389598Y-72572419D02*
X94627693Y-72572419D01*
X94627693Y-72572419D02*
X94722931Y-72524800D01*
X94722931Y-72524800D02*
X94770550Y-72477180D01*
X94770550Y-72477180D02*
X94818169Y-72381942D01*
X94818169Y-72381942D02*
X94818169Y-72286704D01*
X94818169Y-72286704D02*
X94770550Y-72191466D01*
X94770550Y-72191466D02*
X94722931Y-72143847D01*
X94722931Y-72143847D02*
X94627693Y-72096228D01*
X94627693Y-72096228D02*
X94437217Y-72048609D01*
X94437217Y-72048609D02*
X94341979Y-72000990D01*
X94341979Y-72000990D02*
X94294360Y-71953371D01*
X94294360Y-71953371D02*
X94246741Y-71858133D01*
X94246741Y-71858133D02*
X94246741Y-71762895D01*
X94246741Y-71762895D02*
X94294360Y-71667657D01*
X94294360Y-71667657D02*
X94341979Y-71620038D01*
X94341979Y-71620038D02*
X94437217Y-71572419D01*
X94437217Y-71572419D02*
X94675312Y-71572419D01*
X94675312Y-71572419D02*
X94818169Y-71620038D01*
X95246741Y-72572419D02*
X95246741Y-71572419D01*
X92056265Y-75054800D02*
X92199122Y-75102419D01*
X92199122Y-75102419D02*
X92437217Y-75102419D01*
X92437217Y-75102419D02*
X92532455Y-75054800D01*
X92532455Y-75054800D02*
X92580074Y-75007180D01*
X92580074Y-75007180D02*
X92627693Y-74911942D01*
X92627693Y-74911942D02*
X92627693Y-74816704D01*
X92627693Y-74816704D02*
X92580074Y-74721466D01*
X92580074Y-74721466D02*
X92532455Y-74673847D01*
X92532455Y-74673847D02*
X92437217Y-74626228D01*
X92437217Y-74626228D02*
X92246741Y-74578609D01*
X92246741Y-74578609D02*
X92151503Y-74530990D01*
X92151503Y-74530990D02*
X92103884Y-74483371D01*
X92103884Y-74483371D02*
X92056265Y-74388133D01*
X92056265Y-74388133D02*
X92056265Y-74292895D01*
X92056265Y-74292895D02*
X92103884Y-74197657D01*
X92103884Y-74197657D02*
X92151503Y-74150038D01*
X92151503Y-74150038D02*
X92246741Y-74102419D01*
X92246741Y-74102419D02*
X92484836Y-74102419D01*
X92484836Y-74102419D02*
X92627693Y-74150038D01*
X93627693Y-75007180D02*
X93580074Y-75054800D01*
X93580074Y-75054800D02*
X93437217Y-75102419D01*
X93437217Y-75102419D02*
X93341979Y-75102419D01*
X93341979Y-75102419D02*
X93199122Y-75054800D01*
X93199122Y-75054800D02*
X93103884Y-74959561D01*
X93103884Y-74959561D02*
X93056265Y-74864323D01*
X93056265Y-74864323D02*
X93008646Y-74673847D01*
X93008646Y-74673847D02*
X93008646Y-74530990D01*
X93008646Y-74530990D02*
X93056265Y-74340514D01*
X93056265Y-74340514D02*
X93103884Y-74245276D01*
X93103884Y-74245276D02*
X93199122Y-74150038D01*
X93199122Y-74150038D02*
X93341979Y-74102419D01*
X93341979Y-74102419D02*
X93437217Y-74102419D01*
X93437217Y-74102419D02*
X93580074Y-74150038D01*
X93580074Y-74150038D02*
X93627693Y-74197657D01*
X94056265Y-75102419D02*
X94056265Y-74102419D01*
X94627693Y-75102419D02*
X94199122Y-74530990D01*
X94627693Y-74102419D02*
X94056265Y-74673847D01*
X92580074Y-77642419D02*
X92103884Y-77642419D01*
X92103884Y-77642419D02*
X92103884Y-76642419D01*
X92913408Y-77118609D02*
X93246741Y-77118609D01*
X93389598Y-77642419D02*
X92913408Y-77642419D01*
X92913408Y-77642419D02*
X92913408Y-76642419D01*
X92913408Y-76642419D02*
X93389598Y-76642419D01*
X93818170Y-77642419D02*
X93818170Y-76642419D01*
X93818170Y-76642419D02*
X94056265Y-76642419D01*
X94056265Y-76642419D02*
X94199122Y-76690038D01*
X94199122Y-76690038D02*
X94294360Y-76785276D01*
X94294360Y-76785276D02*
X94341979Y-76880514D01*
X94341979Y-76880514D02*
X94389598Y-77070990D01*
X94389598Y-77070990D02*
X94389598Y-77213847D01*
X94389598Y-77213847D02*
X94341979Y-77404323D01*
X94341979Y-77404323D02*
X94294360Y-77499561D01*
X94294360Y-77499561D02*
X94199122Y-77594800D01*
X94199122Y-77594800D02*
X94056265Y-77642419D01*
X94056265Y-77642419D02*
X93818170Y-77642419D01*
X104732455Y-93705752D02*
X104732455Y-94515276D01*
X104732455Y-94515276D02*
X104684836Y-94610514D01*
X104684836Y-94610514D02*
X104637217Y-94658133D01*
X104637217Y-94658133D02*
X104541979Y-94705752D01*
X104541979Y-94705752D02*
X104399122Y-94705752D01*
X104399122Y-94705752D02*
X104303884Y-94658133D01*
X104732455Y-94324800D02*
X104637217Y-94372419D01*
X104637217Y-94372419D02*
X104446741Y-94372419D01*
X104446741Y-94372419D02*
X104351503Y-94324800D01*
X104351503Y-94324800D02*
X104303884Y-94277180D01*
X104303884Y-94277180D02*
X104256265Y-94181942D01*
X104256265Y-94181942D02*
X104256265Y-93896228D01*
X104256265Y-93896228D02*
X104303884Y-93800990D01*
X104303884Y-93800990D02*
X104351503Y-93753371D01*
X104351503Y-93753371D02*
X104446741Y-93705752D01*
X104446741Y-93705752D02*
X104637217Y-93705752D01*
X104637217Y-93705752D02*
X104732455Y-93753371D01*
X105208646Y-94372419D02*
X105208646Y-93705752D01*
X105208646Y-93372419D02*
X105161027Y-93420038D01*
X105161027Y-93420038D02*
X105208646Y-93467657D01*
X105208646Y-93467657D02*
X105256265Y-93420038D01*
X105256265Y-93420038D02*
X105208646Y-93372419D01*
X105208646Y-93372419D02*
X105208646Y-93467657D01*
X105541979Y-93705752D02*
X105922931Y-93705752D01*
X105684836Y-93372419D02*
X105684836Y-94229561D01*
X105684836Y-94229561D02*
X105732455Y-94324800D01*
X105732455Y-94324800D02*
X105827693Y-94372419D01*
X105827693Y-94372419D02*
X105922931Y-94372419D01*
X106256265Y-94372419D02*
X106256265Y-93372419D01*
X106684836Y-94372419D02*
X106684836Y-93848609D01*
X106684836Y-93848609D02*
X106637217Y-93753371D01*
X106637217Y-93753371D02*
X106541979Y-93705752D01*
X106541979Y-93705752D02*
X106399122Y-93705752D01*
X106399122Y-93705752D02*
X106303884Y-93753371D01*
X106303884Y-93753371D02*
X106256265Y-93800990D01*
X107589598Y-93705752D02*
X107589598Y-94372419D01*
X107161027Y-93705752D02*
X107161027Y-94229561D01*
X107161027Y-94229561D02*
X107208646Y-94324800D01*
X107208646Y-94324800D02*
X107303884Y-94372419D01*
X107303884Y-94372419D02*
X107446741Y-94372419D01*
X107446741Y-94372419D02*
X107541979Y-94324800D01*
X107541979Y-94324800D02*
X107589598Y-94277180D01*
X108065789Y-94372419D02*
X108065789Y-93372419D01*
X108065789Y-93753371D02*
X108161027Y-93705752D01*
X108161027Y-93705752D02*
X108351503Y-93705752D01*
X108351503Y-93705752D02*
X108446741Y-93753371D01*
X108446741Y-93753371D02*
X108494360Y-93800990D01*
X108494360Y-93800990D02*
X108541979Y-93896228D01*
X108541979Y-93896228D02*
X108541979Y-94181942D01*
X108541979Y-94181942D02*
X108494360Y-94277180D01*
X108494360Y-94277180D02*
X108446741Y-94324800D01*
X108446741Y-94324800D02*
X108351503Y-94372419D01*
X108351503Y-94372419D02*
X108161027Y-94372419D01*
X108161027Y-94372419D02*
X108065789Y-94324800D01*
X108970551Y-94277180D02*
X109018170Y-94324800D01*
X109018170Y-94324800D02*
X108970551Y-94372419D01*
X108970551Y-94372419D02*
X108922932Y-94324800D01*
X108922932Y-94324800D02*
X108970551Y-94277180D01*
X108970551Y-94277180D02*
X108970551Y-94372419D01*
X109875312Y-94324800D02*
X109780074Y-94372419D01*
X109780074Y-94372419D02*
X109589598Y-94372419D01*
X109589598Y-94372419D02*
X109494360Y-94324800D01*
X109494360Y-94324800D02*
X109446741Y-94277180D01*
X109446741Y-94277180D02*
X109399122Y-94181942D01*
X109399122Y-94181942D02*
X109399122Y-93896228D01*
X109399122Y-93896228D02*
X109446741Y-93800990D01*
X109446741Y-93800990D02*
X109494360Y-93753371D01*
X109494360Y-93753371D02*
X109589598Y-93705752D01*
X109589598Y-93705752D02*
X109780074Y-93705752D01*
X109780074Y-93705752D02*
X109875312Y-93753371D01*
X110446741Y-94372419D02*
X110351503Y-94324800D01*
X110351503Y-94324800D02*
X110303884Y-94277180D01*
X110303884Y-94277180D02*
X110256265Y-94181942D01*
X110256265Y-94181942D02*
X110256265Y-93896228D01*
X110256265Y-93896228D02*
X110303884Y-93800990D01*
X110303884Y-93800990D02*
X110351503Y-93753371D01*
X110351503Y-93753371D02*
X110446741Y-93705752D01*
X110446741Y-93705752D02*
X110589598Y-93705752D01*
X110589598Y-93705752D02*
X110684836Y-93753371D01*
X110684836Y-93753371D02*
X110732455Y-93800990D01*
X110732455Y-93800990D02*
X110780074Y-93896228D01*
X110780074Y-93896228D02*
X110780074Y-94181942D01*
X110780074Y-94181942D02*
X110732455Y-94277180D01*
X110732455Y-94277180D02*
X110684836Y-94324800D01*
X110684836Y-94324800D02*
X110589598Y-94372419D01*
X110589598Y-94372419D02*
X110446741Y-94372419D01*
X111208646Y-94372419D02*
X111208646Y-93705752D01*
X111208646Y-93800990D02*
X111256265Y-93753371D01*
X111256265Y-93753371D02*
X111351503Y-93705752D01*
X111351503Y-93705752D02*
X111494360Y-93705752D01*
X111494360Y-93705752D02*
X111589598Y-93753371D01*
X111589598Y-93753371D02*
X111637217Y-93848609D01*
X111637217Y-93848609D02*
X111637217Y-94372419D01*
X111637217Y-93848609D02*
X111684836Y-93753371D01*
X111684836Y-93753371D02*
X111780074Y-93705752D01*
X111780074Y-93705752D02*
X111922931Y-93705752D01*
X111922931Y-93705752D02*
X112018170Y-93753371D01*
X112018170Y-93753371D02*
X112065789Y-93848609D01*
X112065789Y-93848609D02*
X112065789Y-94372419D01*
X113256264Y-93324800D02*
X112399122Y-94610514D01*
X113732455Y-94372419D02*
X113637217Y-94324800D01*
X113637217Y-94324800D02*
X113589598Y-94277180D01*
X113589598Y-94277180D02*
X113541979Y-94181942D01*
X113541979Y-94181942D02*
X113541979Y-93896228D01*
X113541979Y-93896228D02*
X113589598Y-93800990D01*
X113589598Y-93800990D02*
X113637217Y-93753371D01*
X113637217Y-93753371D02*
X113732455Y-93705752D01*
X113732455Y-93705752D02*
X113875312Y-93705752D01*
X113875312Y-93705752D02*
X113970550Y-93753371D01*
X113970550Y-93753371D02*
X114018169Y-93800990D01*
X114018169Y-93800990D02*
X114065788Y-93896228D01*
X114065788Y-93896228D02*
X114065788Y-94181942D01*
X114065788Y-94181942D02*
X114018169Y-94277180D01*
X114018169Y-94277180D02*
X113970550Y-94324800D01*
X113970550Y-94324800D02*
X113875312Y-94372419D01*
X113875312Y-94372419D02*
X113732455Y-94372419D01*
X114637217Y-94372419D02*
X114541979Y-94324800D01*
X114541979Y-94324800D02*
X114494360Y-94229561D01*
X114494360Y-94229561D02*
X114494360Y-93372419D01*
X115161027Y-94372419D02*
X115065789Y-94324800D01*
X115065789Y-94324800D02*
X115018170Y-94277180D01*
X115018170Y-94277180D02*
X114970551Y-94181942D01*
X114970551Y-94181942D02*
X114970551Y-93896228D01*
X114970551Y-93896228D02*
X115018170Y-93800990D01*
X115018170Y-93800990D02*
X115065789Y-93753371D01*
X115065789Y-93753371D02*
X115161027Y-93705752D01*
X115161027Y-93705752D02*
X115303884Y-93705752D01*
X115303884Y-93705752D02*
X115399122Y-93753371D01*
X115399122Y-93753371D02*
X115446741Y-93800990D01*
X115446741Y-93800990D02*
X115494360Y-93896228D01*
X115494360Y-93896228D02*
X115494360Y-94181942D01*
X115494360Y-94181942D02*
X115446741Y-94277180D01*
X115446741Y-94277180D02*
X115399122Y-94324800D01*
X115399122Y-94324800D02*
X115303884Y-94372419D01*
X115303884Y-94372419D02*
X115161027Y-94372419D01*
X116065789Y-94372419D02*
X115970551Y-94324800D01*
X115970551Y-94324800D02*
X115922932Y-94229561D01*
X115922932Y-94229561D02*
X115922932Y-93372419D01*
X116589599Y-94372419D02*
X116494361Y-94324800D01*
X116494361Y-94324800D02*
X116446742Y-94277180D01*
X116446742Y-94277180D02*
X116399123Y-94181942D01*
X116399123Y-94181942D02*
X116399123Y-93896228D01*
X116399123Y-93896228D02*
X116446742Y-93800990D01*
X116446742Y-93800990D02*
X116494361Y-93753371D01*
X116494361Y-93753371D02*
X116589599Y-93705752D01*
X116589599Y-93705752D02*
X116732456Y-93705752D01*
X116732456Y-93705752D02*
X116827694Y-93753371D01*
X116827694Y-93753371D02*
X116875313Y-93800990D01*
X116875313Y-93800990D02*
X116922932Y-93896228D01*
X116922932Y-93896228D02*
X116922932Y-94181942D01*
X116922932Y-94181942D02*
X116875313Y-94277180D01*
X116875313Y-94277180D02*
X116827694Y-94324800D01*
X116827694Y-94324800D02*
X116732456Y-94372419D01*
X116732456Y-94372419D02*
X116589599Y-94372419D01*
X117351504Y-93705752D02*
X117351504Y-94372419D01*
X117351504Y-93800990D02*
X117399123Y-93753371D01*
X117399123Y-93753371D02*
X117494361Y-93705752D01*
X117494361Y-93705752D02*
X117637218Y-93705752D01*
X117637218Y-93705752D02*
X117732456Y-93753371D01*
X117732456Y-93753371D02*
X117780075Y-93848609D01*
X117780075Y-93848609D02*
X117780075Y-94372419D01*
X118399123Y-94372419D02*
X118303885Y-94324800D01*
X118303885Y-94324800D02*
X118256266Y-94229561D01*
X118256266Y-94229561D02*
X118256266Y-93372419D01*
X118684838Y-93705752D02*
X118922933Y-94372419D01*
X119161028Y-93705752D02*
X118922933Y-94372419D01*
X118922933Y-94372419D02*
X118827695Y-94610514D01*
X118827695Y-94610514D02*
X118780076Y-94658133D01*
X118780076Y-94658133D02*
X118684838Y-94705752D01*
X120256266Y-93324800D02*
X119399124Y-94610514D01*
X120589600Y-94372419D02*
X120589600Y-93705752D01*
X120589600Y-93800990D02*
X120637219Y-93753371D01*
X120637219Y-93753371D02*
X120732457Y-93705752D01*
X120732457Y-93705752D02*
X120875314Y-93705752D01*
X120875314Y-93705752D02*
X120970552Y-93753371D01*
X120970552Y-93753371D02*
X121018171Y-93848609D01*
X121018171Y-93848609D02*
X121018171Y-94372419D01*
X121018171Y-93848609D02*
X121065790Y-93753371D01*
X121065790Y-93753371D02*
X121161028Y-93705752D01*
X121161028Y-93705752D02*
X121303885Y-93705752D01*
X121303885Y-93705752D02*
X121399124Y-93753371D01*
X121399124Y-93753371D02*
X121446743Y-93848609D01*
X121446743Y-93848609D02*
X121446743Y-94372419D01*
X122351504Y-94372419D02*
X122351504Y-93848609D01*
X122351504Y-93848609D02*
X122303885Y-93753371D01*
X122303885Y-93753371D02*
X122208647Y-93705752D01*
X122208647Y-93705752D02*
X122018171Y-93705752D01*
X122018171Y-93705752D02*
X121922933Y-93753371D01*
X122351504Y-94324800D02*
X122256266Y-94372419D01*
X122256266Y-94372419D02*
X122018171Y-94372419D01*
X122018171Y-94372419D02*
X121922933Y-94324800D01*
X121922933Y-94324800D02*
X121875314Y-94229561D01*
X121875314Y-94229561D02*
X121875314Y-94134323D01*
X121875314Y-94134323D02*
X121922933Y-94039085D01*
X121922933Y-94039085D02*
X122018171Y-93991466D01*
X122018171Y-93991466D02*
X122256266Y-93991466D01*
X122256266Y-93991466D02*
X122351504Y-93943847D01*
X122827695Y-94372419D02*
X122827695Y-93705752D01*
X122827695Y-93896228D02*
X122875314Y-93800990D01*
X122875314Y-93800990D02*
X122922933Y-93753371D01*
X122922933Y-93753371D02*
X123018171Y-93705752D01*
X123018171Y-93705752D02*
X123113409Y-93705752D01*
X123875314Y-94372419D02*
X123875314Y-93848609D01*
X123875314Y-93848609D02*
X123827695Y-93753371D01*
X123827695Y-93753371D02*
X123732457Y-93705752D01*
X123732457Y-93705752D02*
X123541981Y-93705752D01*
X123541981Y-93705752D02*
X123446743Y-93753371D01*
X123875314Y-94324800D02*
X123780076Y-94372419D01*
X123780076Y-94372419D02*
X123541981Y-94372419D01*
X123541981Y-94372419D02*
X123446743Y-94324800D01*
X123446743Y-94324800D02*
X123399124Y-94229561D01*
X123399124Y-94229561D02*
X123399124Y-94134323D01*
X123399124Y-94134323D02*
X123446743Y-94039085D01*
X123446743Y-94039085D02*
X123541981Y-93991466D01*
X123541981Y-93991466D02*
X123780076Y-93991466D01*
X123780076Y-93991466D02*
X123875314Y-93943847D01*
X124208648Y-93705752D02*
X124589600Y-93705752D01*
X124351505Y-93372419D02*
X124351505Y-94229561D01*
X124351505Y-94229561D02*
X124399124Y-94324800D01*
X124399124Y-94324800D02*
X124494362Y-94372419D01*
X124494362Y-94372419D02*
X124589600Y-94372419D01*
X125351505Y-93705752D02*
X125351505Y-94372419D01*
X124922934Y-93705752D02*
X124922934Y-94229561D01*
X124922934Y-94229561D02*
X124970553Y-94324800D01*
X124970553Y-94324800D02*
X125065791Y-94372419D01*
X125065791Y-94372419D02*
X125208648Y-94372419D01*
X125208648Y-94372419D02*
X125303886Y-94324800D01*
X125303886Y-94324800D02*
X125351505Y-94277180D01*
X125827696Y-94372419D02*
X125827696Y-93705752D01*
X125827696Y-93372419D02*
X125780077Y-93420038D01*
X125780077Y-93420038D02*
X125827696Y-93467657D01*
X125827696Y-93467657D02*
X125875315Y-93420038D01*
X125875315Y-93420038D02*
X125827696Y-93372419D01*
X125827696Y-93372419D02*
X125827696Y-93467657D01*
X176327693Y-52420038D02*
X176232455Y-52372419D01*
X176232455Y-52372419D02*
X176089598Y-52372419D01*
X176089598Y-52372419D02*
X175946741Y-52420038D01*
X175946741Y-52420038D02*
X175851503Y-52515276D01*
X175851503Y-52515276D02*
X175803884Y-52610514D01*
X175803884Y-52610514D02*
X175756265Y-52800990D01*
X175756265Y-52800990D02*
X175756265Y-52943847D01*
X175756265Y-52943847D02*
X175803884Y-53134323D01*
X175803884Y-53134323D02*
X175851503Y-53229561D01*
X175851503Y-53229561D02*
X175946741Y-53324800D01*
X175946741Y-53324800D02*
X176089598Y-53372419D01*
X176089598Y-53372419D02*
X176184836Y-53372419D01*
X176184836Y-53372419D02*
X176327693Y-53324800D01*
X176327693Y-53324800D02*
X176375312Y-53277180D01*
X176375312Y-53277180D02*
X176375312Y-52943847D01*
X176375312Y-52943847D02*
X176184836Y-52943847D01*
X176803884Y-53372419D02*
X176803884Y-52372419D01*
X176803884Y-52372419D02*
X177375312Y-53372419D01*
X177375312Y-53372419D02*
X177375312Y-52372419D01*
X177851503Y-53372419D02*
X177851503Y-52372419D01*
X177851503Y-52372419D02*
X178089598Y-52372419D01*
X178089598Y-52372419D02*
X178232455Y-52420038D01*
X178232455Y-52420038D02*
X178327693Y-52515276D01*
X178327693Y-52515276D02*
X178375312Y-52610514D01*
X178375312Y-52610514D02*
X178422931Y-52800990D01*
X178422931Y-52800990D02*
X178422931Y-52943847D01*
X178422931Y-52943847D02*
X178375312Y-53134323D01*
X178375312Y-53134323D02*
X178327693Y-53229561D01*
X178327693Y-53229561D02*
X178232455Y-53324800D01*
X178232455Y-53324800D02*
X178089598Y-53372419D01*
X178089598Y-53372419D02*
X177851503Y-53372419D01*
X176661027Y-54872419D02*
X177232455Y-54872419D01*
X176946741Y-55872419D02*
X176946741Y-54872419D01*
X177470551Y-54872419D02*
X178137217Y-55872419D01*
X178137217Y-54872419D02*
X177470551Y-55872419D01*
X177375312Y-58372419D02*
X177041979Y-57896228D01*
X176803884Y-58372419D02*
X176803884Y-57372419D01*
X176803884Y-57372419D02*
X177184836Y-57372419D01*
X177184836Y-57372419D02*
X177280074Y-57420038D01*
X177280074Y-57420038D02*
X177327693Y-57467657D01*
X177327693Y-57467657D02*
X177375312Y-57562895D01*
X177375312Y-57562895D02*
X177375312Y-57705752D01*
X177375312Y-57705752D02*
X177327693Y-57800990D01*
X177327693Y-57800990D02*
X177280074Y-57848609D01*
X177280074Y-57848609D02*
X177184836Y-57896228D01*
X177184836Y-57896228D02*
X176803884Y-57896228D01*
X177708646Y-57372419D02*
X178375312Y-58372419D01*
X178375312Y-57372419D02*
X177708646Y-58372419D01*
X101848609Y-83696115D02*
X101848609Y-83362782D01*
X102372419Y-83219925D02*
X102372419Y-83696115D01*
X102372419Y-83696115D02*
X101372419Y-83696115D01*
X101372419Y-83696115D02*
X101372419Y-83219925D01*
X102324800Y-82838972D02*
X102372419Y-82696115D01*
X102372419Y-82696115D02*
X102372419Y-82458020D01*
X102372419Y-82458020D02*
X102324800Y-82362782D01*
X102324800Y-82362782D02*
X102277180Y-82315163D01*
X102277180Y-82315163D02*
X102181942Y-82267544D01*
X102181942Y-82267544D02*
X102086704Y-82267544D01*
X102086704Y-82267544D02*
X101991466Y-82315163D01*
X101991466Y-82315163D02*
X101943847Y-82362782D01*
X101943847Y-82362782D02*
X101896228Y-82458020D01*
X101896228Y-82458020D02*
X101848609Y-82648496D01*
X101848609Y-82648496D02*
X101800990Y-82743734D01*
X101800990Y-82743734D02*
X101753371Y-82791353D01*
X101753371Y-82791353D02*
X101658133Y-82838972D01*
X101658133Y-82838972D02*
X101562895Y-82838972D01*
X101562895Y-82838972D02*
X101467657Y-82791353D01*
X101467657Y-82791353D02*
X101420038Y-82743734D01*
X101420038Y-82743734D02*
X101372419Y-82648496D01*
X101372419Y-82648496D02*
X101372419Y-82410401D01*
X101372419Y-82410401D02*
X101420038Y-82267544D01*
X102372419Y-81838972D02*
X101372419Y-81838972D01*
X101372419Y-81838972D02*
X101372419Y-81458020D01*
X101372419Y-81458020D02*
X101420038Y-81362782D01*
X101420038Y-81362782D02*
X101467657Y-81315163D01*
X101467657Y-81315163D02*
X101562895Y-81267544D01*
X101562895Y-81267544D02*
X101705752Y-81267544D01*
X101705752Y-81267544D02*
X101800990Y-81315163D01*
X101800990Y-81315163D02*
X101848609Y-81362782D01*
X101848609Y-81362782D02*
X101896228Y-81458020D01*
X101896228Y-81458020D02*
X101896228Y-81838972D01*
X101372419Y-80934210D02*
X101372419Y-80315163D01*
X101372419Y-80315163D02*
X101753371Y-80648496D01*
X101753371Y-80648496D02*
X101753371Y-80505639D01*
X101753371Y-80505639D02*
X101800990Y-80410401D01*
X101800990Y-80410401D02*
X101848609Y-80362782D01*
X101848609Y-80362782D02*
X101943847Y-80315163D01*
X101943847Y-80315163D02*
X102181942Y-80315163D01*
X102181942Y-80315163D02*
X102277180Y-80362782D01*
X102277180Y-80362782D02*
X102324800Y-80410401D01*
X102324800Y-80410401D02*
X102372419Y-80505639D01*
X102372419Y-80505639D02*
X102372419Y-80791353D01*
X102372419Y-80791353D02*
X102324800Y-80886591D01*
X102324800Y-80886591D02*
X102277180Y-80934210D01*
X101467657Y-79934210D02*
X101420038Y-79886591D01*
X101420038Y-79886591D02*
X101372419Y-79791353D01*
X101372419Y-79791353D02*
X101372419Y-79553258D01*
X101372419Y-79553258D02*
X101420038Y-79458020D01*
X101420038Y-79458020D02*
X101467657Y-79410401D01*
X101467657Y-79410401D02*
X101562895Y-79362782D01*
X101562895Y-79362782D02*
X101658133Y-79362782D01*
X101658133Y-79362782D02*
X101800990Y-79410401D01*
X101800990Y-79410401D02*
X102372419Y-79981829D01*
X102372419Y-79981829D02*
X102372419Y-79362782D01*
X101991466Y-78934210D02*
X101991466Y-78172306D01*
X101372419Y-77791353D02*
X102372419Y-77553258D01*
X102372419Y-77553258D02*
X101658133Y-77362782D01*
X101658133Y-77362782D02*
X102372419Y-77172306D01*
X102372419Y-77172306D02*
X101372419Y-76934211D01*
X102372419Y-76553258D02*
X101705752Y-76553258D01*
X101896228Y-76553258D02*
X101800990Y-76505639D01*
X101800990Y-76505639D02*
X101753371Y-76458020D01*
X101753371Y-76458020D02*
X101705752Y-76362782D01*
X101705752Y-76362782D02*
X101705752Y-76267544D01*
X102372419Y-75791353D02*
X102324800Y-75886591D01*
X102324800Y-75886591D02*
X102277180Y-75934210D01*
X102277180Y-75934210D02*
X102181942Y-75981829D01*
X102181942Y-75981829D02*
X101896228Y-75981829D01*
X101896228Y-75981829D02*
X101800990Y-75934210D01*
X101800990Y-75934210D02*
X101753371Y-75886591D01*
X101753371Y-75886591D02*
X101705752Y-75791353D01*
X101705752Y-75791353D02*
X101705752Y-75648496D01*
X101705752Y-75648496D02*
X101753371Y-75553258D01*
X101753371Y-75553258D02*
X101800990Y-75505639D01*
X101800990Y-75505639D02*
X101896228Y-75458020D01*
X101896228Y-75458020D02*
X102181942Y-75458020D01*
X102181942Y-75458020D02*
X102277180Y-75505639D01*
X102277180Y-75505639D02*
X102324800Y-75553258D01*
X102324800Y-75553258D02*
X102372419Y-75648496D01*
X102372419Y-75648496D02*
X102372419Y-75791353D01*
X102372419Y-74886591D02*
X102324800Y-74981829D01*
X102324800Y-74981829D02*
X102277180Y-75029448D01*
X102277180Y-75029448D02*
X102181942Y-75077067D01*
X102181942Y-75077067D02*
X101896228Y-75077067D01*
X101896228Y-75077067D02*
X101800990Y-75029448D01*
X101800990Y-75029448D02*
X101753371Y-74981829D01*
X101753371Y-74981829D02*
X101705752Y-74886591D01*
X101705752Y-74886591D02*
X101705752Y-74743734D01*
X101705752Y-74743734D02*
X101753371Y-74648496D01*
X101753371Y-74648496D02*
X101800990Y-74600877D01*
X101800990Y-74600877D02*
X101896228Y-74553258D01*
X101896228Y-74553258D02*
X102181942Y-74553258D01*
X102181942Y-74553258D02*
X102277180Y-74600877D01*
X102277180Y-74600877D02*
X102324800Y-74648496D01*
X102324800Y-74648496D02*
X102372419Y-74743734D01*
X102372419Y-74743734D02*
X102372419Y-74886591D01*
X102372419Y-74124686D02*
X101705752Y-74124686D01*
X101800990Y-74124686D02*
X101753371Y-74077067D01*
X101753371Y-74077067D02*
X101705752Y-73981829D01*
X101705752Y-73981829D02*
X101705752Y-73838972D01*
X101705752Y-73838972D02*
X101753371Y-73743734D01*
X101753371Y-73743734D02*
X101848609Y-73696115D01*
X101848609Y-73696115D02*
X102372419Y-73696115D01*
X101848609Y-73696115D02*
X101753371Y-73648496D01*
X101753371Y-73648496D02*
X101705752Y-73553258D01*
X101705752Y-73553258D02*
X101705752Y-73410401D01*
X101705752Y-73410401D02*
X101753371Y-73315162D01*
X101753371Y-73315162D02*
X101848609Y-73267543D01*
X101848609Y-73267543D02*
X102372419Y-73267543D01*
X101991466Y-72791353D02*
X101991466Y-72029449D01*
X101372419Y-71648496D02*
X101372419Y-71029449D01*
X101372419Y-71029449D02*
X101753371Y-71362782D01*
X101753371Y-71362782D02*
X101753371Y-71219925D01*
X101753371Y-71219925D02*
X101800990Y-71124687D01*
X101800990Y-71124687D02*
X101848609Y-71077068D01*
X101848609Y-71077068D02*
X101943847Y-71029449D01*
X101943847Y-71029449D02*
X102181942Y-71029449D01*
X102181942Y-71029449D02*
X102277180Y-71077068D01*
X102277180Y-71077068D02*
X102324800Y-71124687D01*
X102324800Y-71124687D02*
X102372419Y-71219925D01*
X102372419Y-71219925D02*
X102372419Y-71505639D01*
X102372419Y-71505639D02*
X102324800Y-71600877D01*
X102324800Y-71600877D02*
X102277180Y-71648496D01*
X101467657Y-70648496D02*
X101420038Y-70600877D01*
X101420038Y-70600877D02*
X101372419Y-70505639D01*
X101372419Y-70505639D02*
X101372419Y-70267544D01*
X101372419Y-70267544D02*
X101420038Y-70172306D01*
X101420038Y-70172306D02*
X101467657Y-70124687D01*
X101467657Y-70124687D02*
X101562895Y-70077068D01*
X101562895Y-70077068D02*
X101658133Y-70077068D01*
X101658133Y-70077068D02*
X101800990Y-70124687D01*
X101800990Y-70124687D02*
X102372419Y-70696115D01*
X102372419Y-70696115D02*
X102372419Y-70077068D01*
D12*
X91977474Y-58871119D02*
X92310807Y-59871119D01*
X92310807Y-59871119D02*
X92644140Y-58871119D01*
X93548902Y-59775880D02*
X93501283Y-59823500D01*
X93501283Y-59823500D02*
X93358426Y-59871119D01*
X93358426Y-59871119D02*
X93263188Y-59871119D01*
X93263188Y-59871119D02*
X93120331Y-59823500D01*
X93120331Y-59823500D02*
X93025093Y-59728261D01*
X93025093Y-59728261D02*
X92977474Y-59633023D01*
X92977474Y-59633023D02*
X92929855Y-59442547D01*
X92929855Y-59442547D02*
X92929855Y-59299690D01*
X92929855Y-59299690D02*
X92977474Y-59109214D01*
X92977474Y-59109214D02*
X93025093Y-59013976D01*
X93025093Y-59013976D02*
X93120331Y-58918738D01*
X93120331Y-58918738D02*
X93263188Y-58871119D01*
X93263188Y-58871119D02*
X93358426Y-58871119D01*
X93358426Y-58871119D02*
X93501283Y-58918738D01*
X93501283Y-58918738D02*
X93548902Y-58966357D01*
X94548902Y-59775880D02*
X94501283Y-59823500D01*
X94501283Y-59823500D02*
X94358426Y-59871119D01*
X94358426Y-59871119D02*
X94263188Y-59871119D01*
X94263188Y-59871119D02*
X94120331Y-59823500D01*
X94120331Y-59823500D02*
X94025093Y-59728261D01*
X94025093Y-59728261D02*
X93977474Y-59633023D01*
X93977474Y-59633023D02*
X93929855Y-59442547D01*
X93929855Y-59442547D02*
X93929855Y-59299690D01*
X93929855Y-59299690D02*
X93977474Y-59109214D01*
X93977474Y-59109214D02*
X94025093Y-59013976D01*
X94025093Y-59013976D02*
X94120331Y-58918738D01*
X94120331Y-58918738D02*
X94263188Y-58871119D01*
X94263188Y-58871119D02*
X94358426Y-58871119D01*
X94358426Y-58871119D02*
X94501283Y-58918738D01*
X94501283Y-58918738D02*
X94548902Y-58966357D01*
D13*
X180166666Y-50034819D02*
X180166666Y-50749104D01*
X180166666Y-50749104D02*
X180119047Y-50891961D01*
X180119047Y-50891961D02*
X180023809Y-50987200D01*
X180023809Y-50987200D02*
X179880952Y-51034819D01*
X179880952Y-51034819D02*
X179785714Y-51034819D01*
X180595238Y-50130057D02*
X180642857Y-50082438D01*
X180642857Y-50082438D02*
X180738095Y-50034819D01*
X180738095Y-50034819D02*
X180976190Y-50034819D01*
X180976190Y-50034819D02*
X181071428Y-50082438D01*
X181071428Y-50082438D02*
X181119047Y-50130057D01*
X181119047Y-50130057D02*
X181166666Y-50225295D01*
X181166666Y-50225295D02*
X181166666Y-50320533D01*
X181166666Y-50320533D02*
X181119047Y-50463390D01*
X181119047Y-50463390D02*
X180547619Y-51034819D01*
X180547619Y-51034819D02*
X181166666Y-51034819D01*
X184454819Y-58571429D02*
X184454819Y-59047619D01*
X184454819Y-59047619D02*
X183454819Y-59047619D01*
X184407200Y-57857143D02*
X184454819Y-57952381D01*
X184454819Y-57952381D02*
X184454819Y-58142857D01*
X184454819Y-58142857D02*
X184407200Y-58238095D01*
X184407200Y-58238095D02*
X184311961Y-58285714D01*
X184311961Y-58285714D02*
X183931009Y-58285714D01*
X183931009Y-58285714D02*
X183835771Y-58238095D01*
X183835771Y-58238095D02*
X183788152Y-58142857D01*
X183788152Y-58142857D02*
X183788152Y-57952381D01*
X183788152Y-57952381D02*
X183835771Y-57857143D01*
X183835771Y-57857143D02*
X183931009Y-57809524D01*
X183931009Y-57809524D02*
X184026247Y-57809524D01*
X184026247Y-57809524D02*
X184121485Y-58285714D01*
X184454819Y-57238095D02*
X184407200Y-57333333D01*
X184407200Y-57333333D02*
X184311961Y-57380952D01*
X184311961Y-57380952D02*
X183454819Y-57380952D01*
X184454819Y-56857142D02*
X183788152Y-56857142D01*
X183454819Y-56857142D02*
X183502438Y-56904761D01*
X183502438Y-56904761D02*
X183550057Y-56857142D01*
X183550057Y-56857142D02*
X183502438Y-56809523D01*
X183502438Y-56809523D02*
X183454819Y-56857142D01*
X183454819Y-56857142D02*
X183550057Y-56857142D01*
X183788152Y-56523809D02*
X183788152Y-56142857D01*
X183454819Y-56380952D02*
X184311961Y-56380952D01*
X184311961Y-56380952D02*
X184407200Y-56333333D01*
X184407200Y-56333333D02*
X184454819Y-56238095D01*
X184454819Y-56238095D02*
X184454819Y-56142857D01*
X184454819Y-55047618D02*
X183454819Y-55047618D01*
X183454819Y-55047618D02*
X184169104Y-54714285D01*
X184169104Y-54714285D02*
X183454819Y-54380952D01*
X183454819Y-54380952D02*
X184454819Y-54380952D01*
X184454819Y-53476190D02*
X183931009Y-53476190D01*
X183931009Y-53476190D02*
X183835771Y-53523809D01*
X183835771Y-53523809D02*
X183788152Y-53619047D01*
X183788152Y-53619047D02*
X183788152Y-53809523D01*
X183788152Y-53809523D02*
X183835771Y-53904761D01*
X184407200Y-53476190D02*
X184454819Y-53571428D01*
X184454819Y-53571428D02*
X184454819Y-53809523D01*
X184454819Y-53809523D02*
X184407200Y-53904761D01*
X184407200Y-53904761D02*
X184311961Y-53952380D01*
X184311961Y-53952380D02*
X184216723Y-53952380D01*
X184216723Y-53952380D02*
X184121485Y-53904761D01*
X184121485Y-53904761D02*
X184073866Y-53809523D01*
X184073866Y-53809523D02*
X184073866Y-53571428D01*
X184073866Y-53571428D02*
X184026247Y-53476190D01*
X184454819Y-52999999D02*
X183788152Y-52999999D01*
X183978628Y-52999999D02*
X183883390Y-52952380D01*
X183883390Y-52952380D02*
X183835771Y-52904761D01*
X183835771Y-52904761D02*
X183788152Y-52809523D01*
X183788152Y-52809523D02*
X183788152Y-52714285D01*
X184454819Y-51952380D02*
X183931009Y-51952380D01*
X183931009Y-51952380D02*
X183835771Y-51999999D01*
X183835771Y-51999999D02*
X183788152Y-52095237D01*
X183788152Y-52095237D02*
X183788152Y-52285713D01*
X183788152Y-52285713D02*
X183835771Y-52380951D01*
X184407200Y-51952380D02*
X184454819Y-52047618D01*
X184454819Y-52047618D02*
X184454819Y-52285713D01*
X184454819Y-52285713D02*
X184407200Y-52380951D01*
X184407200Y-52380951D02*
X184311961Y-52428570D01*
X184311961Y-52428570D02*
X184216723Y-52428570D01*
X184216723Y-52428570D02*
X184121485Y-52380951D01*
X184121485Y-52380951D02*
X184073866Y-52285713D01*
X184073866Y-52285713D02*
X184073866Y-52047618D01*
X184073866Y-52047618D02*
X184026247Y-51952380D01*
X187454819Y-98833333D02*
X188169104Y-98833333D01*
X188169104Y-98833333D02*
X188311961Y-98880952D01*
X188311961Y-98880952D02*
X188407200Y-98976190D01*
X188407200Y-98976190D02*
X188454819Y-99119047D01*
X188454819Y-99119047D02*
X188454819Y-99214285D01*
X188454819Y-97833333D02*
X188454819Y-98404761D01*
X188454819Y-98119047D02*
X187454819Y-98119047D01*
X187454819Y-98119047D02*
X187597676Y-98214285D01*
X187597676Y-98214285D02*
X187692914Y-98309523D01*
X187692914Y-98309523D02*
X187740533Y-98404761D01*
X88954819Y-96261904D02*
X89764342Y-96261904D01*
X89764342Y-96261904D02*
X89859580Y-96214285D01*
X89859580Y-96214285D02*
X89907200Y-96166666D01*
X89907200Y-96166666D02*
X89954819Y-96071428D01*
X89954819Y-96071428D02*
X89954819Y-95880952D01*
X89954819Y-95880952D02*
X89907200Y-95785714D01*
X89907200Y-95785714D02*
X89859580Y-95738095D01*
X89859580Y-95738095D02*
X89764342Y-95690476D01*
X89764342Y-95690476D02*
X88954819Y-95690476D01*
X89954819Y-94690476D02*
X89954819Y-95261904D01*
X89954819Y-94976190D02*
X88954819Y-94976190D01*
X88954819Y-94976190D02*
X89097676Y-95071428D01*
X89097676Y-95071428D02*
X89192914Y-95166666D01*
X89192914Y-95166666D02*
X89240533Y-95261904D01*
X153954819Y-77761904D02*
X154764342Y-77761904D01*
X154764342Y-77761904D02*
X154859580Y-77714285D01*
X154859580Y-77714285D02*
X154907200Y-77666666D01*
X154907200Y-77666666D02*
X154954819Y-77571428D01*
X154954819Y-77571428D02*
X154954819Y-77380952D01*
X154954819Y-77380952D02*
X154907200Y-77285714D01*
X154907200Y-77285714D02*
X154859580Y-77238095D01*
X154859580Y-77238095D02*
X154764342Y-77190476D01*
X154764342Y-77190476D02*
X153954819Y-77190476D01*
X154050057Y-76761904D02*
X154002438Y-76714285D01*
X154002438Y-76714285D02*
X153954819Y-76619047D01*
X153954819Y-76619047D02*
X153954819Y-76380952D01*
X153954819Y-76380952D02*
X154002438Y-76285714D01*
X154002438Y-76285714D02*
X154050057Y-76238095D01*
X154050057Y-76238095D02*
X154145295Y-76190476D01*
X154145295Y-76190476D02*
X154240533Y-76190476D01*
X154240533Y-76190476D02*
X154383390Y-76238095D01*
X154383390Y-76238095D02*
X154954819Y-76809523D01*
X154954819Y-76809523D02*
X154954819Y-76190476D01*
D11*
X112830377Y-67579102D02*
X112149424Y-67579102D01*
X112149424Y-67579102D02*
X112516091Y-67198150D01*
X112516091Y-67198150D02*
X112358948Y-67198150D01*
X112358948Y-67198150D02*
X112254186Y-67150531D01*
X112254186Y-67150531D02*
X112201805Y-67102912D01*
X112201805Y-67102912D02*
X112149424Y-67007674D01*
X112149424Y-67007674D02*
X112149424Y-66769579D01*
X112149424Y-66769579D02*
X112201805Y-66674341D01*
X112201805Y-66674341D02*
X112254186Y-66626722D01*
X112254186Y-66626722D02*
X112358948Y-66579102D01*
X112358948Y-66579102D02*
X112673234Y-66579102D01*
X112673234Y-66579102D02*
X112777996Y-66626722D01*
X112777996Y-66626722D02*
X112830377Y-66674341D01*
X111468472Y-67579102D02*
X111363710Y-67579102D01*
X111363710Y-67579102D02*
X111258948Y-67531483D01*
X111258948Y-67531483D02*
X111206567Y-67483864D01*
X111206567Y-67483864D02*
X111154186Y-67388626D01*
X111154186Y-67388626D02*
X111101805Y-67198150D01*
X111101805Y-67198150D02*
X111101805Y-66960055D01*
X111101805Y-66960055D02*
X111154186Y-66769579D01*
X111154186Y-66769579D02*
X111206567Y-66674341D01*
X111206567Y-66674341D02*
X111258948Y-66626722D01*
X111258948Y-66626722D02*
X111363710Y-66579102D01*
X111363710Y-66579102D02*
X111468472Y-66579102D01*
X111468472Y-66579102D02*
X111573234Y-66626722D01*
X111573234Y-66626722D02*
X111625615Y-66674341D01*
X111625615Y-66674341D02*
X111677996Y-66769579D01*
X111677996Y-66769579D02*
X111730377Y-66960055D01*
X111730377Y-66960055D02*
X111730377Y-67198150D01*
X111730377Y-67198150D02*
X111677996Y-67388626D01*
X111677996Y-67388626D02*
X111625615Y-67483864D01*
X111625615Y-67483864D02*
X111573234Y-67531483D01*
X111573234Y-67531483D02*
X111468472Y-67579102D01*
X112548501Y-87782163D02*
X113177073Y-87782163D01*
X112862787Y-87782163D02*
X112862787Y-88782163D01*
X112862787Y-88782163D02*
X112967549Y-88639306D01*
X112967549Y-88639306D02*
X113072311Y-88544068D01*
X113072311Y-88544068D02*
X113177073Y-88496449D01*
X111553263Y-88782163D02*
X112077073Y-88782163D01*
X112077073Y-88782163D02*
X112129454Y-88305973D01*
X112129454Y-88305973D02*
X112077073Y-88353592D01*
X112077073Y-88353592D02*
X111972311Y-88401211D01*
X111972311Y-88401211D02*
X111710406Y-88401211D01*
X111710406Y-88401211D02*
X111605644Y-88353592D01*
X111605644Y-88353592D02*
X111553263Y-88305973D01*
X111553263Y-88305973D02*
X111500882Y-88210735D01*
X111500882Y-88210735D02*
X111500882Y-87972640D01*
X111500882Y-87972640D02*
X111553263Y-87877402D01*
X111553263Y-87877402D02*
X111605644Y-87829783D01*
X111605644Y-87829783D02*
X111710406Y-87782163D01*
X111710406Y-87782163D02*
X111972311Y-87782163D01*
X111972311Y-87782163D02*
X112077073Y-87829783D01*
X112077073Y-87829783D02*
X112129454Y-87877402D01*
X115317996Y-67483864D02*
X115265615Y-67531483D01*
X115265615Y-67531483D02*
X115160853Y-67579102D01*
X115160853Y-67579102D02*
X114898948Y-67579102D01*
X114898948Y-67579102D02*
X114794186Y-67531483D01*
X114794186Y-67531483D02*
X114741805Y-67483864D01*
X114741805Y-67483864D02*
X114689424Y-67388626D01*
X114689424Y-67388626D02*
X114689424Y-67293388D01*
X114689424Y-67293388D02*
X114741805Y-67150531D01*
X114741805Y-67150531D02*
X115370377Y-66579102D01*
X115370377Y-66579102D02*
X114689424Y-66579102D01*
X114165615Y-66579102D02*
X113956091Y-66579102D01*
X113956091Y-66579102D02*
X113851329Y-66626722D01*
X113851329Y-66626722D02*
X113798948Y-66674341D01*
X113798948Y-66674341D02*
X113694186Y-66817198D01*
X113694186Y-66817198D02*
X113641805Y-67007674D01*
X113641805Y-67007674D02*
X113641805Y-67388626D01*
X113641805Y-67388626D02*
X113694186Y-67483864D01*
X113694186Y-67483864D02*
X113746567Y-67531483D01*
X113746567Y-67531483D02*
X113851329Y-67579102D01*
X113851329Y-67579102D02*
X114060853Y-67579102D01*
X114060853Y-67579102D02*
X114165615Y-67531483D01*
X114165615Y-67531483D02*
X114217996Y-67483864D01*
X114217996Y-67483864D02*
X114270377Y-67388626D01*
X114270377Y-67388626D02*
X114270377Y-67150531D01*
X114270377Y-67150531D02*
X114217996Y-67055293D01*
X114217996Y-67055293D02*
X114165615Y-67007674D01*
X114165615Y-67007674D02*
X114060853Y-66960055D01*
X114060853Y-66960055D02*
X113851329Y-66960055D01*
X113851329Y-66960055D02*
X113746567Y-67007674D01*
X113746567Y-67007674D02*
X113694186Y-67055293D01*
X113694186Y-67055293D02*
X113641805Y-67150531D01*
X115088501Y-87782163D02*
X115717073Y-87782163D01*
X115402787Y-87782163D02*
X115402787Y-88782163D01*
X115402787Y-88782163D02*
X115507549Y-88639306D01*
X115507549Y-88639306D02*
X115612311Y-88544068D01*
X115612311Y-88544068D02*
X115717073Y-88496449D01*
X114145644Y-88448830D02*
X114145644Y-87782163D01*
X114407549Y-88829783D02*
X114669454Y-88115497D01*
X114669454Y-88115497D02*
X113988501Y-88115497D01*
X117857996Y-67483864D02*
X117805615Y-67531483D01*
X117805615Y-67531483D02*
X117700853Y-67579102D01*
X117700853Y-67579102D02*
X117438948Y-67579102D01*
X117438948Y-67579102D02*
X117334186Y-67531483D01*
X117334186Y-67531483D02*
X117281805Y-67483864D01*
X117281805Y-67483864D02*
X117229424Y-67388626D01*
X117229424Y-67388626D02*
X117229424Y-67293388D01*
X117229424Y-67293388D02*
X117281805Y-67150531D01*
X117281805Y-67150531D02*
X117910377Y-66579102D01*
X117910377Y-66579102D02*
X117229424Y-66579102D01*
X116600853Y-67150531D02*
X116705615Y-67198150D01*
X116705615Y-67198150D02*
X116757996Y-67245769D01*
X116757996Y-67245769D02*
X116810377Y-67341007D01*
X116810377Y-67341007D02*
X116810377Y-67388626D01*
X116810377Y-67388626D02*
X116757996Y-67483864D01*
X116757996Y-67483864D02*
X116705615Y-67531483D01*
X116705615Y-67531483D02*
X116600853Y-67579102D01*
X116600853Y-67579102D02*
X116391329Y-67579102D01*
X116391329Y-67579102D02*
X116286567Y-67531483D01*
X116286567Y-67531483D02*
X116234186Y-67483864D01*
X116234186Y-67483864D02*
X116181805Y-67388626D01*
X116181805Y-67388626D02*
X116181805Y-67341007D01*
X116181805Y-67341007D02*
X116234186Y-67245769D01*
X116234186Y-67245769D02*
X116286567Y-67198150D01*
X116286567Y-67198150D02*
X116391329Y-67150531D01*
X116391329Y-67150531D02*
X116600853Y-67150531D01*
X116600853Y-67150531D02*
X116705615Y-67102912D01*
X116705615Y-67102912D02*
X116757996Y-67055293D01*
X116757996Y-67055293D02*
X116810377Y-66960055D01*
X116810377Y-66960055D02*
X116810377Y-66769579D01*
X116810377Y-66769579D02*
X116757996Y-66674341D01*
X116757996Y-66674341D02*
X116705615Y-66626722D01*
X116705615Y-66626722D02*
X116600853Y-66579102D01*
X116600853Y-66579102D02*
X116391329Y-66579102D01*
X116391329Y-66579102D02*
X116286567Y-66626722D01*
X116286567Y-66626722D02*
X116234186Y-66674341D01*
X116234186Y-66674341D02*
X116181805Y-66769579D01*
X116181805Y-66769579D02*
X116181805Y-66960055D01*
X116181805Y-66960055D02*
X116234186Y-67055293D01*
X116234186Y-67055293D02*
X116286567Y-67102912D01*
X116286567Y-67102912D02*
X116391329Y-67150531D01*
X117628501Y-87782163D02*
X118257073Y-87782163D01*
X117942787Y-87782163D02*
X117942787Y-88782163D01*
X117942787Y-88782163D02*
X118047549Y-88639306D01*
X118047549Y-88639306D02*
X118152311Y-88544068D01*
X118152311Y-88544068D02*
X118257073Y-88496449D01*
X117261835Y-88782163D02*
X116580882Y-88782163D01*
X116580882Y-88782163D02*
X116947549Y-88401211D01*
X116947549Y-88401211D02*
X116790406Y-88401211D01*
X116790406Y-88401211D02*
X116685644Y-88353592D01*
X116685644Y-88353592D02*
X116633263Y-88305973D01*
X116633263Y-88305973D02*
X116580882Y-88210735D01*
X116580882Y-88210735D02*
X116580882Y-87972640D01*
X116580882Y-87972640D02*
X116633263Y-87877402D01*
X116633263Y-87877402D02*
X116685644Y-87829783D01*
X116685644Y-87829783D02*
X116790406Y-87782163D01*
X116790406Y-87782163D02*
X117104692Y-87782163D01*
X117104692Y-87782163D02*
X117209454Y-87829783D01*
X117209454Y-87829783D02*
X117261835Y-87877402D01*
X120286056Y-67478511D02*
X120233675Y-67526130D01*
X120233675Y-67526130D02*
X120128913Y-67573749D01*
X120128913Y-67573749D02*
X119867008Y-67573749D01*
X119867008Y-67573749D02*
X119762246Y-67526130D01*
X119762246Y-67526130D02*
X119709865Y-67478511D01*
X119709865Y-67478511D02*
X119657484Y-67383273D01*
X119657484Y-67383273D02*
X119657484Y-67288035D01*
X119657484Y-67288035D02*
X119709865Y-67145178D01*
X119709865Y-67145178D02*
X120338437Y-66573749D01*
X120338437Y-66573749D02*
X119657484Y-66573749D01*
X119290818Y-67573749D02*
X118557484Y-67573749D01*
X118557484Y-67573749D02*
X119028913Y-66573749D01*
X120168501Y-87782163D02*
X120797073Y-87782163D01*
X120482787Y-87782163D02*
X120482787Y-88782163D01*
X120482787Y-88782163D02*
X120587549Y-88639306D01*
X120587549Y-88639306D02*
X120692311Y-88544068D01*
X120692311Y-88544068D02*
X120797073Y-88496449D01*
X119749454Y-88686925D02*
X119697073Y-88734544D01*
X119697073Y-88734544D02*
X119592311Y-88782163D01*
X119592311Y-88782163D02*
X119330406Y-88782163D01*
X119330406Y-88782163D02*
X119225644Y-88734544D01*
X119225644Y-88734544D02*
X119173263Y-88686925D01*
X119173263Y-88686925D02*
X119120882Y-88591687D01*
X119120882Y-88591687D02*
X119120882Y-88496449D01*
X119120882Y-88496449D02*
X119173263Y-88353592D01*
X119173263Y-88353592D02*
X119801835Y-87782163D01*
X119801835Y-87782163D02*
X119120882Y-87782163D01*
X122826056Y-67478511D02*
X122773675Y-67526130D01*
X122773675Y-67526130D02*
X122668913Y-67573749D01*
X122668913Y-67573749D02*
X122407008Y-67573749D01*
X122407008Y-67573749D02*
X122302246Y-67526130D01*
X122302246Y-67526130D02*
X122249865Y-67478511D01*
X122249865Y-67478511D02*
X122197484Y-67383273D01*
X122197484Y-67383273D02*
X122197484Y-67288035D01*
X122197484Y-67288035D02*
X122249865Y-67145178D01*
X122249865Y-67145178D02*
X122878437Y-66573749D01*
X122878437Y-66573749D02*
X122197484Y-66573749D01*
X121254627Y-67573749D02*
X121464151Y-67573749D01*
X121464151Y-67573749D02*
X121568913Y-67526130D01*
X121568913Y-67526130D02*
X121621294Y-67478511D01*
X121621294Y-67478511D02*
X121726056Y-67335654D01*
X121726056Y-67335654D02*
X121778437Y-67145178D01*
X121778437Y-67145178D02*
X121778437Y-66764226D01*
X121778437Y-66764226D02*
X121726056Y-66668988D01*
X121726056Y-66668988D02*
X121673675Y-66621369D01*
X121673675Y-66621369D02*
X121568913Y-66573749D01*
X121568913Y-66573749D02*
X121359389Y-66573749D01*
X121359389Y-66573749D02*
X121254627Y-66621369D01*
X121254627Y-66621369D02*
X121202246Y-66668988D01*
X121202246Y-66668988D02*
X121149865Y-66764226D01*
X121149865Y-66764226D02*
X121149865Y-67002321D01*
X121149865Y-67002321D02*
X121202246Y-67097559D01*
X121202246Y-67097559D02*
X121254627Y-67145178D01*
X121254627Y-67145178D02*
X121359389Y-67192797D01*
X121359389Y-67192797D02*
X121568913Y-67192797D01*
X121568913Y-67192797D02*
X121673675Y-67145178D01*
X121673675Y-67145178D02*
X121726056Y-67097559D01*
X121726056Y-67097559D02*
X121778437Y-67002321D01*
X122708501Y-87782163D02*
X123337073Y-87782163D01*
X123022787Y-87782163D02*
X123022787Y-88782163D01*
X123022787Y-88782163D02*
X123127549Y-88639306D01*
X123127549Y-88639306D02*
X123232311Y-88544068D01*
X123232311Y-88544068D02*
X123337073Y-88496449D01*
X121660882Y-87782163D02*
X122289454Y-87782163D01*
X121975168Y-87782163D02*
X121975168Y-88782163D01*
X121975168Y-88782163D02*
X122079930Y-88639306D01*
X122079930Y-88639306D02*
X122184692Y-88544068D01*
X122184692Y-88544068D02*
X122289454Y-88496449D01*
X125366056Y-67478511D02*
X125313675Y-67526130D01*
X125313675Y-67526130D02*
X125208913Y-67573749D01*
X125208913Y-67573749D02*
X124947008Y-67573749D01*
X124947008Y-67573749D02*
X124842246Y-67526130D01*
X124842246Y-67526130D02*
X124789865Y-67478511D01*
X124789865Y-67478511D02*
X124737484Y-67383273D01*
X124737484Y-67383273D02*
X124737484Y-67288035D01*
X124737484Y-67288035D02*
X124789865Y-67145178D01*
X124789865Y-67145178D02*
X125418437Y-66573749D01*
X125418437Y-66573749D02*
X124737484Y-66573749D01*
X123742246Y-67573749D02*
X124266056Y-67573749D01*
X124266056Y-67573749D02*
X124318437Y-67097559D01*
X124318437Y-67097559D02*
X124266056Y-67145178D01*
X124266056Y-67145178D02*
X124161294Y-67192797D01*
X124161294Y-67192797D02*
X123899389Y-67192797D01*
X123899389Y-67192797D02*
X123794627Y-67145178D01*
X123794627Y-67145178D02*
X123742246Y-67097559D01*
X123742246Y-67097559D02*
X123689865Y-67002321D01*
X123689865Y-67002321D02*
X123689865Y-66764226D01*
X123689865Y-66764226D02*
X123742246Y-66668988D01*
X123742246Y-66668988D02*
X123794627Y-66621369D01*
X123794627Y-66621369D02*
X123899389Y-66573749D01*
X123899389Y-66573749D02*
X124161294Y-66573749D01*
X124161294Y-66573749D02*
X124266056Y-66621369D01*
X124266056Y-66621369D02*
X124318437Y-66668988D01*
X125248501Y-87782163D02*
X125877073Y-87782163D01*
X125562787Y-87782163D02*
X125562787Y-88782163D01*
X125562787Y-88782163D02*
X125667549Y-88639306D01*
X125667549Y-88639306D02*
X125772311Y-88544068D01*
X125772311Y-88544068D02*
X125877073Y-88496449D01*
X124567549Y-88782163D02*
X124462787Y-88782163D01*
X124462787Y-88782163D02*
X124358025Y-88734544D01*
X124358025Y-88734544D02*
X124305644Y-88686925D01*
X124305644Y-88686925D02*
X124253263Y-88591687D01*
X124253263Y-88591687D02*
X124200882Y-88401211D01*
X124200882Y-88401211D02*
X124200882Y-88163116D01*
X124200882Y-88163116D02*
X124253263Y-87972640D01*
X124253263Y-87972640D02*
X124305644Y-87877402D01*
X124305644Y-87877402D02*
X124358025Y-87829783D01*
X124358025Y-87829783D02*
X124462787Y-87782163D01*
X124462787Y-87782163D02*
X124567549Y-87782163D01*
X124567549Y-87782163D02*
X124672311Y-87829783D01*
X124672311Y-87829783D02*
X124724692Y-87877402D01*
X124724692Y-87877402D02*
X124777073Y-87972640D01*
X124777073Y-87972640D02*
X124829454Y-88163116D01*
X124829454Y-88163116D02*
X124829454Y-88401211D01*
X124829454Y-88401211D02*
X124777073Y-88591687D01*
X124777073Y-88591687D02*
X124724692Y-88686925D01*
X124724692Y-88686925D02*
X124672311Y-88734544D01*
X124672311Y-88734544D02*
X124567549Y-88782163D01*
X127764011Y-87721170D02*
X127554487Y-87721170D01*
X127554487Y-87721170D02*
X127449725Y-87768790D01*
X127449725Y-87768790D02*
X127397344Y-87816409D01*
X127397344Y-87816409D02*
X127292582Y-87959266D01*
X127292582Y-87959266D02*
X127240201Y-88149742D01*
X127240201Y-88149742D02*
X127240201Y-88530694D01*
X127240201Y-88530694D02*
X127292582Y-88625932D01*
X127292582Y-88625932D02*
X127344963Y-88673551D01*
X127344963Y-88673551D02*
X127449725Y-88721170D01*
X127449725Y-88721170D02*
X127659249Y-88721170D01*
X127659249Y-88721170D02*
X127764011Y-88673551D01*
X127764011Y-88673551D02*
X127816392Y-88625932D01*
X127816392Y-88625932D02*
X127868773Y-88530694D01*
X127868773Y-88530694D02*
X127868773Y-88292599D01*
X127868773Y-88292599D02*
X127816392Y-88197361D01*
X127816392Y-88197361D02*
X127764011Y-88149742D01*
X127764011Y-88149742D02*
X127659249Y-88102123D01*
X127659249Y-88102123D02*
X127449725Y-88102123D01*
X127449725Y-88102123D02*
X127344963Y-88149742D01*
X127344963Y-88149742D02*
X127292582Y-88197361D01*
X127292582Y-88197361D02*
X127240201Y-88292599D01*
X127906056Y-67478511D02*
X127853675Y-67526130D01*
X127853675Y-67526130D02*
X127748913Y-67573749D01*
X127748913Y-67573749D02*
X127487008Y-67573749D01*
X127487008Y-67573749D02*
X127382246Y-67526130D01*
X127382246Y-67526130D02*
X127329865Y-67478511D01*
X127329865Y-67478511D02*
X127277484Y-67383273D01*
X127277484Y-67383273D02*
X127277484Y-67288035D01*
X127277484Y-67288035D02*
X127329865Y-67145178D01*
X127329865Y-67145178D02*
X127958437Y-66573749D01*
X127958437Y-66573749D02*
X127277484Y-66573749D01*
X126334627Y-67240416D02*
X126334627Y-66573749D01*
X126596532Y-67621369D02*
X126858437Y-66907083D01*
X126858437Y-66907083D02*
X126177484Y-66907083D01*
X130199249Y-88292599D02*
X130304011Y-88340218D01*
X130304011Y-88340218D02*
X130356392Y-88387837D01*
X130356392Y-88387837D02*
X130408773Y-88483075D01*
X130408773Y-88483075D02*
X130408773Y-88530694D01*
X130408773Y-88530694D02*
X130356392Y-88625932D01*
X130356392Y-88625932D02*
X130304011Y-88673551D01*
X130304011Y-88673551D02*
X130199249Y-88721170D01*
X130199249Y-88721170D02*
X129989725Y-88721170D01*
X129989725Y-88721170D02*
X129884963Y-88673551D01*
X129884963Y-88673551D02*
X129832582Y-88625932D01*
X129832582Y-88625932D02*
X129780201Y-88530694D01*
X129780201Y-88530694D02*
X129780201Y-88483075D01*
X129780201Y-88483075D02*
X129832582Y-88387837D01*
X129832582Y-88387837D02*
X129884963Y-88340218D01*
X129884963Y-88340218D02*
X129989725Y-88292599D01*
X129989725Y-88292599D02*
X130199249Y-88292599D01*
X130199249Y-88292599D02*
X130304011Y-88244980D01*
X130304011Y-88244980D02*
X130356392Y-88197361D01*
X130356392Y-88197361D02*
X130408773Y-88102123D01*
X130408773Y-88102123D02*
X130408773Y-87911647D01*
X130408773Y-87911647D02*
X130356392Y-87816409D01*
X130356392Y-87816409D02*
X130304011Y-87768790D01*
X130304011Y-87768790D02*
X130199249Y-87721170D01*
X130199249Y-87721170D02*
X129989725Y-87721170D01*
X129989725Y-87721170D02*
X129884963Y-87768790D01*
X129884963Y-87768790D02*
X129832582Y-87816409D01*
X129832582Y-87816409D02*
X129780201Y-87911647D01*
X129780201Y-87911647D02*
X129780201Y-88102123D01*
X129780201Y-88102123D02*
X129832582Y-88197361D01*
X129832582Y-88197361D02*
X129884963Y-88244980D01*
X129884963Y-88244980D02*
X129989725Y-88292599D01*
X130446056Y-67478511D02*
X130393675Y-67526130D01*
X130393675Y-67526130D02*
X130288913Y-67573749D01*
X130288913Y-67573749D02*
X130027008Y-67573749D01*
X130027008Y-67573749D02*
X129922246Y-67526130D01*
X129922246Y-67526130D02*
X129869865Y-67478511D01*
X129869865Y-67478511D02*
X129817484Y-67383273D01*
X129817484Y-67383273D02*
X129817484Y-67288035D01*
X129817484Y-67288035D02*
X129869865Y-67145178D01*
X129869865Y-67145178D02*
X130498437Y-66573749D01*
X130498437Y-66573749D02*
X129817484Y-66573749D01*
X129450818Y-67573749D02*
X128769865Y-67573749D01*
X128769865Y-67573749D02*
X129136532Y-67192797D01*
X129136532Y-67192797D02*
X128979389Y-67192797D01*
X128979389Y-67192797D02*
X128874627Y-67145178D01*
X128874627Y-67145178D02*
X128822246Y-67097559D01*
X128822246Y-67097559D02*
X128769865Y-67002321D01*
X128769865Y-67002321D02*
X128769865Y-66764226D01*
X128769865Y-66764226D02*
X128822246Y-66668988D01*
X128822246Y-66668988D02*
X128874627Y-66621369D01*
X128874627Y-66621369D02*
X128979389Y-66573749D01*
X128979389Y-66573749D02*
X129293675Y-66573749D01*
X129293675Y-66573749D02*
X129398437Y-66621369D01*
X129398437Y-66621369D02*
X129450818Y-66668988D01*
X133001154Y-88721170D02*
X132267820Y-88721170D01*
X132267820Y-88721170D02*
X132739249Y-87721170D01*
X132986056Y-67478511D02*
X132933675Y-67526130D01*
X132933675Y-67526130D02*
X132828913Y-67573749D01*
X132828913Y-67573749D02*
X132567008Y-67573749D01*
X132567008Y-67573749D02*
X132462246Y-67526130D01*
X132462246Y-67526130D02*
X132409865Y-67478511D01*
X132409865Y-67478511D02*
X132357484Y-67383273D01*
X132357484Y-67383273D02*
X132357484Y-67288035D01*
X132357484Y-67288035D02*
X132409865Y-67145178D01*
X132409865Y-67145178D02*
X133038437Y-66573749D01*
X133038437Y-66573749D02*
X132357484Y-66573749D01*
X131938437Y-67478511D02*
X131886056Y-67526130D01*
X131886056Y-67526130D02*
X131781294Y-67573749D01*
X131781294Y-67573749D02*
X131519389Y-67573749D01*
X131519389Y-67573749D02*
X131414627Y-67526130D01*
X131414627Y-67526130D02*
X131362246Y-67478511D01*
X131362246Y-67478511D02*
X131309865Y-67383273D01*
X131309865Y-67383273D02*
X131309865Y-67288035D01*
X131309865Y-67288035D02*
X131362246Y-67145178D01*
X131362246Y-67145178D02*
X131990818Y-66573749D01*
X131990818Y-66573749D02*
X131309865Y-66573749D01*
X135425102Y-67423259D02*
X135372721Y-67470878D01*
X135372721Y-67470878D02*
X135267959Y-67518497D01*
X135267959Y-67518497D02*
X135006054Y-67518497D01*
X135006054Y-67518497D02*
X134901292Y-67470878D01*
X134901292Y-67470878D02*
X134848911Y-67423259D01*
X134848911Y-67423259D02*
X134796530Y-67328021D01*
X134796530Y-67328021D02*
X134796530Y-67232783D01*
X134796530Y-67232783D02*
X134848911Y-67089926D01*
X134848911Y-67089926D02*
X135477483Y-66518497D01*
X135477483Y-66518497D02*
X134796530Y-66518497D01*
X133748911Y-66518497D02*
X134377483Y-66518497D01*
X134063197Y-66518497D02*
X134063197Y-67518497D01*
X134063197Y-67518497D02*
X134167959Y-67375640D01*
X134167959Y-67375640D02*
X134272721Y-67280402D01*
X134272721Y-67280402D02*
X134377483Y-67232783D01*
X134964963Y-88721170D02*
X135174487Y-88721170D01*
X135174487Y-88721170D02*
X135279249Y-88673551D01*
X135279249Y-88673551D02*
X135331630Y-88625932D01*
X135331630Y-88625932D02*
X135436392Y-88483075D01*
X135436392Y-88483075D02*
X135488773Y-88292599D01*
X135488773Y-88292599D02*
X135488773Y-87911647D01*
X135488773Y-87911647D02*
X135436392Y-87816409D01*
X135436392Y-87816409D02*
X135384011Y-87768790D01*
X135384011Y-87768790D02*
X135279249Y-87721170D01*
X135279249Y-87721170D02*
X135069725Y-87721170D01*
X135069725Y-87721170D02*
X134964963Y-87768790D01*
X134964963Y-87768790D02*
X134912582Y-87816409D01*
X134912582Y-87816409D02*
X134860201Y-87911647D01*
X134860201Y-87911647D02*
X134860201Y-88149742D01*
X134860201Y-88149742D02*
X134912582Y-88244980D01*
X134912582Y-88244980D02*
X134964963Y-88292599D01*
X134964963Y-88292599D02*
X135069725Y-88340218D01*
X135069725Y-88340218D02*
X135279249Y-88340218D01*
X135279249Y-88340218D02*
X135384011Y-88292599D01*
X135384011Y-88292599D02*
X135436392Y-88244980D01*
X135436392Y-88244980D02*
X135488773Y-88149742D01*
X137965102Y-67423259D02*
X137912721Y-67470878D01*
X137912721Y-67470878D02*
X137807959Y-67518497D01*
X137807959Y-67518497D02*
X137546054Y-67518497D01*
X137546054Y-67518497D02*
X137441292Y-67470878D01*
X137441292Y-67470878D02*
X137388911Y-67423259D01*
X137388911Y-67423259D02*
X137336530Y-67328021D01*
X137336530Y-67328021D02*
X137336530Y-67232783D01*
X137336530Y-67232783D02*
X137388911Y-67089926D01*
X137388911Y-67089926D02*
X138017483Y-66518497D01*
X138017483Y-66518497D02*
X137336530Y-66518497D01*
X136655578Y-67518497D02*
X136550816Y-67518497D01*
X136550816Y-67518497D02*
X136446054Y-67470878D01*
X136446054Y-67470878D02*
X136393673Y-67423259D01*
X136393673Y-67423259D02*
X136341292Y-67328021D01*
X136341292Y-67328021D02*
X136288911Y-67137545D01*
X136288911Y-67137545D02*
X136288911Y-66899450D01*
X136288911Y-66899450D02*
X136341292Y-66708974D01*
X136341292Y-66708974D02*
X136393673Y-66613736D01*
X136393673Y-66613736D02*
X136446054Y-66566117D01*
X136446054Y-66566117D02*
X136550816Y-66518497D01*
X136550816Y-66518497D02*
X136655578Y-66518497D01*
X136655578Y-66518497D02*
X136760340Y-66566117D01*
X136760340Y-66566117D02*
X136812721Y-66613736D01*
X136812721Y-66613736D02*
X136865102Y-66708974D01*
X136865102Y-66708974D02*
X136917483Y-66899450D01*
X136917483Y-66899450D02*
X136917483Y-67137545D01*
X136917483Y-67137545D02*
X136865102Y-67328021D01*
X136865102Y-67328021D02*
X136812721Y-67423259D01*
X136812721Y-67423259D02*
X136760340Y-67470878D01*
X136760340Y-67470878D02*
X136655578Y-67518497D01*
X137452582Y-88721170D02*
X137976392Y-88721170D01*
X137976392Y-88721170D02*
X138028773Y-88244980D01*
X138028773Y-88244980D02*
X137976392Y-88292599D01*
X137976392Y-88292599D02*
X137871630Y-88340218D01*
X137871630Y-88340218D02*
X137609725Y-88340218D01*
X137609725Y-88340218D02*
X137504963Y-88292599D01*
X137504963Y-88292599D02*
X137452582Y-88244980D01*
X137452582Y-88244980D02*
X137400201Y-88149742D01*
X137400201Y-88149742D02*
X137400201Y-87911647D01*
X137400201Y-87911647D02*
X137452582Y-87816409D01*
X137452582Y-87816409D02*
X137504963Y-87768790D01*
X137504963Y-87768790D02*
X137609725Y-87721170D01*
X137609725Y-87721170D02*
X137871630Y-87721170D01*
X137871630Y-87721170D02*
X137976392Y-87768790D01*
X137976392Y-87768790D02*
X138028773Y-87816409D01*
X139876530Y-66518497D02*
X140505102Y-66518497D01*
X140190816Y-66518497D02*
X140190816Y-67518497D01*
X140190816Y-67518497D02*
X140295578Y-67375640D01*
X140295578Y-67375640D02*
X140400340Y-67280402D01*
X140400340Y-67280402D02*
X140505102Y-67232783D01*
X139352721Y-66518497D02*
X139143197Y-66518497D01*
X139143197Y-66518497D02*
X139038435Y-66566117D01*
X139038435Y-66566117D02*
X138986054Y-66613736D01*
X138986054Y-66613736D02*
X138881292Y-66756593D01*
X138881292Y-66756593D02*
X138828911Y-66947069D01*
X138828911Y-66947069D02*
X138828911Y-67328021D01*
X138828911Y-67328021D02*
X138881292Y-67423259D01*
X138881292Y-67423259D02*
X138933673Y-67470878D01*
X138933673Y-67470878D02*
X139038435Y-67518497D01*
X139038435Y-67518497D02*
X139247959Y-67518497D01*
X139247959Y-67518497D02*
X139352721Y-67470878D01*
X139352721Y-67470878D02*
X139405102Y-67423259D01*
X139405102Y-67423259D02*
X139457483Y-67328021D01*
X139457483Y-67328021D02*
X139457483Y-67089926D01*
X139457483Y-67089926D02*
X139405102Y-66994688D01*
X139405102Y-66994688D02*
X139352721Y-66947069D01*
X139352721Y-66947069D02*
X139247959Y-66899450D01*
X139247959Y-66899450D02*
X139038435Y-66899450D01*
X139038435Y-66899450D02*
X138933673Y-66947069D01*
X138933673Y-66947069D02*
X138881292Y-66994688D01*
X138881292Y-66994688D02*
X138828911Y-67089926D01*
X140044963Y-88387837D02*
X140044963Y-87721170D01*
X140306868Y-88768790D02*
X140568773Y-88054504D01*
X140568773Y-88054504D02*
X139887820Y-88054504D01*
X142416530Y-66518497D02*
X143045102Y-66518497D01*
X142730816Y-66518497D02*
X142730816Y-67518497D01*
X142730816Y-67518497D02*
X142835578Y-67375640D01*
X142835578Y-67375640D02*
X142940340Y-67280402D01*
X142940340Y-67280402D02*
X143045102Y-67232783D01*
X141787959Y-67089926D02*
X141892721Y-67137545D01*
X141892721Y-67137545D02*
X141945102Y-67185164D01*
X141945102Y-67185164D02*
X141997483Y-67280402D01*
X141997483Y-67280402D02*
X141997483Y-67328021D01*
X141997483Y-67328021D02*
X141945102Y-67423259D01*
X141945102Y-67423259D02*
X141892721Y-67470878D01*
X141892721Y-67470878D02*
X141787959Y-67518497D01*
X141787959Y-67518497D02*
X141578435Y-67518497D01*
X141578435Y-67518497D02*
X141473673Y-67470878D01*
X141473673Y-67470878D02*
X141421292Y-67423259D01*
X141421292Y-67423259D02*
X141368911Y-67328021D01*
X141368911Y-67328021D02*
X141368911Y-67280402D01*
X141368911Y-67280402D02*
X141421292Y-67185164D01*
X141421292Y-67185164D02*
X141473673Y-67137545D01*
X141473673Y-67137545D02*
X141578435Y-67089926D01*
X141578435Y-67089926D02*
X141787959Y-67089926D01*
X141787959Y-67089926D02*
X141892721Y-67042307D01*
X141892721Y-67042307D02*
X141945102Y-66994688D01*
X141945102Y-66994688D02*
X141997483Y-66899450D01*
X141997483Y-66899450D02*
X141997483Y-66708974D01*
X141997483Y-66708974D02*
X141945102Y-66613736D01*
X141945102Y-66613736D02*
X141892721Y-66566117D01*
X141892721Y-66566117D02*
X141787959Y-66518497D01*
X141787959Y-66518497D02*
X141578435Y-66518497D01*
X141578435Y-66518497D02*
X141473673Y-66566117D01*
X141473673Y-66566117D02*
X141421292Y-66613736D01*
X141421292Y-66613736D02*
X141368911Y-66708974D01*
X141368911Y-66708974D02*
X141368911Y-66899450D01*
X141368911Y-66899450D02*
X141421292Y-66994688D01*
X141421292Y-66994688D02*
X141473673Y-67042307D01*
X141473673Y-67042307D02*
X141578435Y-67089926D01*
X143161154Y-88721170D02*
X142480201Y-88721170D01*
X142480201Y-88721170D02*
X142846868Y-88340218D01*
X142846868Y-88340218D02*
X142689725Y-88340218D01*
X142689725Y-88340218D02*
X142584963Y-88292599D01*
X142584963Y-88292599D02*
X142532582Y-88244980D01*
X142532582Y-88244980D02*
X142480201Y-88149742D01*
X142480201Y-88149742D02*
X142480201Y-87911647D01*
X142480201Y-87911647D02*
X142532582Y-87816409D01*
X142532582Y-87816409D02*
X142584963Y-87768790D01*
X142584963Y-87768790D02*
X142689725Y-87721170D01*
X142689725Y-87721170D02*
X143004011Y-87721170D01*
X143004011Y-87721170D02*
X143108773Y-87768790D01*
X143108773Y-87768790D02*
X143161154Y-87816409D01*
X144956530Y-66518497D02*
X145585102Y-66518497D01*
X145270816Y-66518497D02*
X145270816Y-67518497D01*
X145270816Y-67518497D02*
X145375578Y-67375640D01*
X145375578Y-67375640D02*
X145480340Y-67280402D01*
X145480340Y-67280402D02*
X145585102Y-67232783D01*
X144589864Y-67518497D02*
X143856530Y-67518497D01*
X143856530Y-67518497D02*
X144327959Y-66518497D01*
X145648773Y-88625932D02*
X145596392Y-88673551D01*
X145596392Y-88673551D02*
X145491630Y-88721170D01*
X145491630Y-88721170D02*
X145229725Y-88721170D01*
X145229725Y-88721170D02*
X145124963Y-88673551D01*
X145124963Y-88673551D02*
X145072582Y-88625932D01*
X145072582Y-88625932D02*
X145020201Y-88530694D01*
X145020201Y-88530694D02*
X145020201Y-88435456D01*
X145020201Y-88435456D02*
X145072582Y-88292599D01*
X145072582Y-88292599D02*
X145701154Y-87721170D01*
X145701154Y-87721170D02*
X145020201Y-87721170D01*
X147496530Y-66518497D02*
X148125102Y-66518497D01*
X147810816Y-66518497D02*
X147810816Y-67518497D01*
X147810816Y-67518497D02*
X147915578Y-67375640D01*
X147915578Y-67375640D02*
X148020340Y-67280402D01*
X148020340Y-67280402D02*
X148125102Y-67232783D01*
X146553673Y-67518497D02*
X146763197Y-67518497D01*
X146763197Y-67518497D02*
X146867959Y-67470878D01*
X146867959Y-67470878D02*
X146920340Y-67423259D01*
X146920340Y-67423259D02*
X147025102Y-67280402D01*
X147025102Y-67280402D02*
X147077483Y-67089926D01*
X147077483Y-67089926D02*
X147077483Y-66708974D01*
X147077483Y-66708974D02*
X147025102Y-66613736D01*
X147025102Y-66613736D02*
X146972721Y-66566117D01*
X146972721Y-66566117D02*
X146867959Y-66518497D01*
X146867959Y-66518497D02*
X146658435Y-66518497D01*
X146658435Y-66518497D02*
X146553673Y-66566117D01*
X146553673Y-66566117D02*
X146501292Y-66613736D01*
X146501292Y-66613736D02*
X146448911Y-66708974D01*
X146448911Y-66708974D02*
X146448911Y-66947069D01*
X146448911Y-66947069D02*
X146501292Y-67042307D01*
X146501292Y-67042307D02*
X146553673Y-67089926D01*
X146553673Y-67089926D02*
X146658435Y-67137545D01*
X146658435Y-67137545D02*
X146867959Y-67137545D01*
X146867959Y-67137545D02*
X146972721Y-67089926D01*
X146972721Y-67089926D02*
X147025102Y-67042307D01*
X147025102Y-67042307D02*
X147077483Y-66947069D01*
X147560201Y-87721170D02*
X148188773Y-87721170D01*
X147874487Y-87721170D02*
X147874487Y-88721170D01*
X147874487Y-88721170D02*
X147979249Y-88578313D01*
X147979249Y-88578313D02*
X148084011Y-88483075D01*
X148084011Y-88483075D02*
X148188773Y-88435456D01*
D13*
X188407200Y-74083332D02*
X188454819Y-73940475D01*
X188454819Y-73940475D02*
X188454819Y-73702380D01*
X188454819Y-73702380D02*
X188407200Y-73607142D01*
X188407200Y-73607142D02*
X188359580Y-73559523D01*
X188359580Y-73559523D02*
X188264342Y-73511904D01*
X188264342Y-73511904D02*
X188169104Y-73511904D01*
X188169104Y-73511904D02*
X188073866Y-73559523D01*
X188073866Y-73559523D02*
X188026247Y-73607142D01*
X188026247Y-73607142D02*
X187978628Y-73702380D01*
X187978628Y-73702380D02*
X187931009Y-73892856D01*
X187931009Y-73892856D02*
X187883390Y-73988094D01*
X187883390Y-73988094D02*
X187835771Y-74035713D01*
X187835771Y-74035713D02*
X187740533Y-74083332D01*
X187740533Y-74083332D02*
X187645295Y-74083332D01*
X187645295Y-74083332D02*
X187550057Y-74035713D01*
X187550057Y-74035713D02*
X187502438Y-73988094D01*
X187502438Y-73988094D02*
X187454819Y-73892856D01*
X187454819Y-73892856D02*
X187454819Y-73654761D01*
X187454819Y-73654761D02*
X187502438Y-73511904D01*
X187454819Y-73178570D02*
X188454819Y-72940475D01*
X188454819Y-72940475D02*
X187740533Y-72749999D01*
X187740533Y-72749999D02*
X188454819Y-72559523D01*
X188454819Y-72559523D02*
X187454819Y-72321428D01*
X188454819Y-71416666D02*
X188454819Y-71988094D01*
X188454819Y-71702380D02*
X187454819Y-71702380D01*
X187454819Y-71702380D02*
X187597676Y-71797618D01*
X187597676Y-71797618D02*
X187692914Y-71892856D01*
X187692914Y-71892856D02*
X187740533Y-71988094D01*
%TO.C,J2*%
D14*
X179120000Y-51580000D02*
X180500000Y-51580000D01*
X179120000Y-52960000D02*
X179120000Y-51580000D01*
X179120000Y-54230000D02*
X179120000Y-59420000D01*
X179120000Y-54230000D02*
X181880000Y-54230000D01*
X179120000Y-59420000D02*
X181880000Y-59420000D01*
X181880000Y-54230000D02*
X181880000Y-59420000D01*
%TO.C,J1*%
X177460000Y-90960000D02*
X179200000Y-90960000D01*
X177460000Y-92700000D02*
X177460000Y-90960000D01*
X177700000Y-91200000D02*
X180500000Y-91200000D01*
X177700000Y-105800000D02*
X177700000Y-91200000D01*
X184100000Y-91200000D02*
X186900000Y-91200000D01*
X186900000Y-91200000D02*
X186900000Y-93200000D01*
X186900000Y-96800000D02*
X186900000Y-105800000D01*
X186900000Y-105800000D02*
X177700000Y-105800000D01*
%TO.C,U1*%
X85550000Y-50600000D02*
X85550000Y-101400000D01*
X85550000Y-101400000D02*
X174450000Y-101400000D01*
X87360000Y-58240000D02*
X91360000Y-58240000D01*
X87360000Y-93760000D02*
X87360000Y-58240000D01*
X91360000Y-60760000D02*
X87360000Y-60760000D01*
X91360000Y-93760000D02*
X87360000Y-93760000D01*
X91614000Y-58240000D02*
X91614000Y-93760000D01*
X98250000Y-50600000D02*
X98250000Y-101400000D01*
X166576000Y-50600000D02*
X166576000Y-101400000D01*
X174450000Y-50600000D02*
X85550000Y-50600000D01*
X174450000Y-101400000D02*
X174450000Y-50600000D01*
X95855051Y-53775000D02*
G75*
G02*
X92262949Y-53775000I-1796051J0D01*
G01*
X92262949Y-53775000D02*
G75*
G02*
X95855051Y-53775000I1796051J0D01*
G01*
X95855051Y-98225000D02*
G75*
G02*
X92262949Y-98225000I-1796051J0D01*
G01*
X92262949Y-98225000D02*
G75*
G02*
X95855051Y-98225000I1796051J0D01*
G01*
X172436051Y-54156000D02*
G75*
G02*
X168843949Y-54156000I-1796051J0D01*
G01*
X168843949Y-54156000D02*
G75*
G02*
X172436051Y-54156000I1796051J0D01*
G01*
X172436051Y-98098000D02*
G75*
G02*
X168843949Y-98098000I-1796051J0D01*
G01*
X168843949Y-98098000D02*
G75*
G02*
X172436051Y-98098000I1796051J0D01*
G01*
%TO.C,U2*%
D15*
X104067911Y-63490000D02*
X155567911Y-63490000D01*
X155567911Y-91790000D01*
X104067911Y-91790000D01*
X104067911Y-63490000D01*
%TO.C,SW1*%
D14*
X179500000Y-70500000D02*
X179500000Y-75000000D01*
X182000000Y-76250000D02*
X183500000Y-76250000D01*
X183500000Y-69250000D02*
X182000000Y-69250000D01*
X186000000Y-75000000D02*
X186000000Y-70500000D01*
%TD*%
M02*
